<?xml version="1.0" encoding="UTF-8"?>
<svg version="1.1" xmlns="http://www.w3.org/2000/svg" width="512" height="512">
<path d="M0 0 C0.76058374 -0.00170885 1.52116747 -0.0034177 2.3047992 -0.00517833 C4.8428738 -0.00846177 7.38068161 0.00251145 9.91873169 0.01345825 C11.74225356 0.01402261 13.56577588 0.01370532 15.38929749 0.01257324 C20.3330393 0.01199971 25.27668395 0.02375425 30.22040319 0.03772116 C35.38938243 0.05022829 40.55836392 0.051399 45.72735596 0.05377197 C55.51260937 0.05998678 65.29781807 0.07639764 75.0830518 0.09647095 C86.22444791 0.11882989 97.36584617 0.12982338 108.50725913 0.13986182 C131.42325003 0.16076385 154.33920124 0.19593988 177.25515747 0.24050903 C177.25754582 0.89612257 177.25993418 1.55173611 177.26239491 2.22721672 C177.32164334 18.2118985 177.39725596 34.19640766 177.49087238 50.18092155 C177.53575466 57.9110566 177.57518657 65.64114635 177.60159302 73.37136841 C177.62463462 80.11245616 177.6581009 86.85339966 177.70385903 93.59437287 C177.72770863 97.16058149 177.74649129 100.72664799 177.75277138 104.29293442 C177.75999426 108.28331429 177.79050036 112.27320235 177.82278442 116.26345825 C177.82134933 117.43375076 177.81991425 118.60404327 177.81843567 119.80979919 C177.95968722 132.19279552 181.03214262 140.89297933 189.25515747 150.24050903 C215.08506857 175.3541661 259.19481753 183.25650944 293.79421997 183.44363403 C294.66978546 183.45064835 295.54535095 183.45766266 296.44744873 183.46488953 C299.25840465 183.48229256 302.06914965 183.4887422 304.88015747 183.49050903 C305.84224121 183.49118378 306.80432495 183.49185852 307.79556274 183.49255371 C322.47748078 183.47619835 336.79111375 182.96818024 351.25515747 180.24050903 C352.22243774 180.06358521 353.18971802 179.88666138 354.18630981 179.70437622 C376.77976857 175.47152956 398.88944163 168.55145644 417.25515747 154.24050903 C417.89839966 153.76097778 418.54164185 153.28144653 419.20437622 152.78738403 C427.0241939 146.61295099 431.12422807 138.86328369 433.25515747 129.24050903 C433.673679 124.91151178 433.69286106 120.61043182 433.68753052 116.26345825 C433.69772217 115.00378738 433.70791382 113.74411652 433.71841431 112.4462738 C433.74577997 109.02339779 433.75524066 105.60068787 433.76126838 102.17771673 C433.77070584 98.58889137 433.79691316 95.00018749 433.8212738 91.41143799 C433.86479574 84.62963761 433.89343022 77.847861 433.91659719 71.06596386 C433.94372599 63.3390854 433.98763246 55.61233003 434.03288591 47.88553977 C434.12552703 32.00392632 434.19730128 16.12228963 434.25515747 0.24050903 C435.86060156 0.69303112 437.46387392 1.15326266 439.06619263 1.61672974 C439.95924103 1.8721907 440.85228943 2.12765167 441.7723999 2.39085388 C448.31216607 4.62890809 453.680741 10.50566825 456.81765747 16.55300903 C458.51033397 20.89509224 459.37946561 24.27607298 459.38658524 28.9242506 C459.39042638 29.86718131 459.39426753 30.81011202 459.39822507 31.78161639 C459.39735859 32.81438199 459.3964921 33.84714758 459.39559937 34.91120911 C459.40005605 36.56064922 459.40005605 36.56064922 459.40460277 38.24341136 C459.41329909 41.94126341 459.41479881 45.63908311 459.41629028 49.33694458 C459.42091781 51.98299818 459.42592176 54.62904883 459.43133545 57.27510071 C459.44491381 64.47358398 459.45094285 71.67206169 459.45534611 78.87055564 C459.45810963 83.36660934 459.46234722 87.8626609 459.46685028 92.35871315 C459.4790428 104.81034428 459.48934182 117.26197368 459.49272537 129.71361065 C459.49294494 130.51046114 459.4931645 131.30731164 459.49339072 132.12830912 C459.493609 132.92705354 459.49382728 133.72579797 459.49405217 134.54874676 C459.49449564 136.16727364 459.4949422 137.78580052 459.49539185 139.40432739 C459.49561328 140.20717058 459.49583471 141.01001377 459.49606284 141.83718554 C459.50000953 154.84152829 459.51745965 167.84581497 459.54075137 180.85013606 C459.5644792 194.20592495 459.57692789 207.56168572 459.57809329 220.91749603 C459.5790093 228.41446188 459.58474284 235.91135469 459.6029129 243.4083004 C459.61833329 249.79319147 459.62342299 256.1779869 459.6151748 262.56289306 C459.61127497 265.81872187 459.61380583 269.07431848 459.62623215 272.33013153 C459.63893218 275.86521654 459.6330848 279.3998091 459.62265015 282.93489075 C459.63473475 284.46730873 459.63473475 284.46730873 459.64706349 286.03068465 C459.57912678 295.88606587 457.21247026 304.05632734 450.25515747 311.24050903 C442.74669223 317.51146797 435.14427131 319.55771654 425.45829964 319.49498463 C424.33968594 319.49979434 424.33968594 319.49979434 423.19847399 319.50470123 C420.70964942 319.51297597 418.2210671 319.50708586 415.73223877 319.50120544 C413.92579709 319.50422728 412.11935669 319.50811692 410.31291854 319.51279801 C405.35638807 319.52308258 400.39992989 319.520895 395.44339347 319.51661742 C390.09495497 319.51415104 384.74653392 319.52316325 379.39810181 319.53065491 C368.92288026 319.54340631 358.44768435 319.54519505 347.97245635 319.54285464 C339.45823658 319.54107184 330.94402459 319.54282031 322.42980576 319.54707909 C320.61235014 319.54797187 320.61235014 319.54797187 318.75817826 319.54888269 C316.29676184 319.55009444 313.83534542 319.55130857 311.37392901 319.55252507 C288.28910331 319.56340227 265.20429222 319.56123723 242.11946569 319.55514022 C221.0005696 319.54997072 199.88171963 319.56122707 178.76283266 319.58023844 C157.07758877 319.59961 135.3923667 319.60787405 113.7071141 319.60411519 C101.53264401 319.60220213 89.35821319 319.60470091 77.18375015 319.61882973 C66.81971162 319.63073577 56.45573651 319.63215709 46.09169711 319.62003956 C40.80441571 319.6141455 35.51725037 319.6130661 30.22997665 319.62504196 C25.38775821 319.63588226 20.54575299 319.63281938 15.7035446 319.61878028 C13.95395397 319.61612826 12.20434672 319.61851571 10.45477237 319.62651614 C-1.7012487 319.67823479 -12.07996559 319.31498195 -21.76828003 311.20144653 C-28.5659791 304.45748421 -30.95771163 296.8369596 -31.02165353 287.41972804 C-31.01855633 286.3895793 -31.01545913 285.35943056 -31.01226807 284.29806519 C-31.01679918 283.1933516 -31.02133029 282.08863802 -31.02599871 280.95044827 C-31.03866284 277.24728803 -31.03702101 273.54427448 -31.03536987 269.84109497 C-31.04135389 267.18651279 -31.04810255 264.5319421 -31.0557251 261.87736511 C-31.0723226 255.41378502 -31.07783409 248.95024141 -31.07894985 242.48664179 C-31.079901 237.23085824 -31.08401462 231.9750867 -31.0903511 226.71930695 C-31.10796074 211.80893617 -31.11719051 196.89859416 -31.11569016 181.98821291 C-31.11561024 181.18475677 -31.11553033 180.38130062 -31.115448 179.55349731 C-31.11536624 178.74905682 -31.11528448 177.94461634 -31.11520024 177.11579886 C-31.1143876 164.08313567 -31.13352039 151.05058812 -31.16172473 138.01795837 C-31.19047504 124.62706495 -31.20426382 111.23622788 -31.20253718 97.84530282 C-31.20187398 90.3309899 -31.20733542 82.81679819 -31.22889328 75.30251312 C-31.24713346 68.90376503 -31.25142931 62.50519308 -31.23787443 56.1064302 C-31.23135869 52.84432855 -31.23336401 49.58263351 -31.24858093 46.32055092 C-31.26403789 42.77702962 -31.25472091 39.23439004 -31.23931885 35.69088745 C-31.24960597 34.6696616 -31.2598931 33.64843574 -31.27049196 32.59626365 C-31.17661704 22.79590642 -28.28303546 15.06155102 -21.53781128 7.92800903 C-15.09442924 1.86364946 -8.69150095 -0.07209233 0 0 Z M4.14529419 48.09915161 C2.97276656 50.2976428 2.97276656 50.2976428 4.00515747 52.92800903 C5.05744057 55.13806051 5.05744057 55.13806051 6.25515747 56.24050903 C9.17709942 56.37887663 12.07369353 56.45368876 14.99734497 56.47879028 C16.31631271 56.4908979 16.31631271 56.4908979 17.66192627 56.50325012 C19.52647927 56.51710671 21.3910578 56.52782179 23.25564575 56.53567505 C26.11143901 56.55289616 28.96607733 56.59676807 31.82156372 56.64089966 C33.63014893 56.65102536 35.43874401 56.65954185 37.24734497 56.66629028 C38.10367523 56.68379837 38.96000549 56.70130646 39.84228516 56.71934509 C44.53245399 56.79902504 44.53245399 56.79902504 48.36502075 54.38186646 C49.53754838 52.18337526 49.53754838 52.18337526 48.50515747 49.55300903 C47.45287437 47.34295756 47.45287437 47.34295756 46.25515747 46.24050903 C43.33321552 46.10214144 40.43662141 46.02732931 37.51296997 46.00222778 C36.19400223 45.99012016 36.19400223 45.99012016 34.84838867 45.97776794 C32.98383567 45.96391136 31.11925714 45.95319628 29.25466919 45.94534302 C26.39887594 45.92812191 23.54423761 45.88425 20.68875122 45.84011841 C18.88016601 45.8299927 17.07157093 45.82147622 15.26296997 45.81472778 C14.40663971 45.7972197 13.55030945 45.77971161 12.66802979 45.76167297 C7.97786095 45.68199302 7.97786095 45.68199302 4.14529419 48.09915161 Z M75.28163147 48.10290527 C73.94762305 50.27904421 73.94762305 50.27904421 75.00515747 52.92800903 C76.05744057 55.13806051 76.05744057 55.13806051 77.25515747 56.24050903 C79.44754841 56.35065153 81.64353042 56.38965157 83.83865356 56.40164185 C84.52648422 56.40660675 85.21431488 56.41157166 85.92298889 56.41668701 C88.20820094 56.43134325 90.49334356 56.43811654 92.77859497 56.44363403 C94.36181644 56.44938291 95.94503787 56.45514067 97.52825928 56.46090698 C100.85226772 56.47142701 104.1762519 56.47726301 107.50027466 56.48074341 C111.76326432 56.48622844 116.02593461 56.51025219 120.28882408 56.53871536 C123.56073955 56.55732412 126.83257786 56.5625464 130.10454178 56.56407928 C131.67625295 56.56711066 133.24796261 56.57515548 134.81962204 56.58826447 C137.01762022 56.60528784 139.21483527 56.60345424 141.41287231 56.59695435 C143.29031631 56.60242279 143.29031631 56.60242279 145.20568848 56.60800171 C148.2283873 56.48748103 148.2283873 56.48748103 150.19451904 54.87838745 C151.5116534 53.20541833 151.5116534 53.20541833 151.06765747 50.67800903 C150.40888714 48.09609631 150.40888714 48.09609631 148.25515747 46.24050903 C145.19980269 45.91850412 145.19980269 45.91850412 141.55813599 45.94998169 C140.8701593 45.94326447 140.18218262 45.93654724 139.47335815 45.92962646 C137.19352038 45.91059014 134.91397607 45.90671956 132.63406372 45.90457153 C131.05227028 45.89814771 129.47047804 45.89141967 127.88868713 45.88439941 C124.57063033 45.87241271 121.25267776 45.86872003 117.93460083 45.86990356 C113.67935175 45.87010688 109.4247696 45.84279837 105.16967869 45.80835915 C101.90203268 45.78614002 98.63454847 45.78206447 95.36683464 45.78312302 C93.79790891 45.78075976 92.2289792 45.77189559 90.66012764 45.75645828 C88.46679886 45.73689679 86.27492487 45.74259564 84.08157349 45.75466919 C82.83296036 45.75181915 81.58434723 45.74896912 80.29789734 45.74603271 C77.18241899 45.96043209 77.18241899 45.96043209 75.28163147 48.10290527 Z M89.72712708 93.81404114 C87.8797054 96.85942289 86.98074811 99.96433568 86.0786438 103.37649536 C85.88313431 104.08759964 85.68762482 104.79870392 85.4861908 105.53135681 C84.84419565 107.8760732 84.21530043 110.22406988 83.58718872 112.57254028 C83.14359792 114.20929498 82.69947267 115.84590492 82.25483704 117.4823761 C81.32537833 120.9113636 80.40238845 124.34200997 79.48391724 127.7739563 C78.30905695 132.16188221 77.11835754 136.5453205 75.92274952 140.92763233 C75.00268303 144.30690469 74.09108133 147.68841633 73.18198204 151.07065392 C72.74640364 152.68719858 72.30823353 154.30304731 71.86738014 155.91816139 C71.2508226 158.18201517 70.64574577 160.44864556 70.04348755 162.71633911 C69.86118591 163.37684265 69.67888428 164.03734619 69.49105835 164.71786499 C68.37695828 168.97515141 67.92538894 172.84666261 68.25515747 177.24050903 C68.91515747 177.90050903 69.57515747 178.56050903 70.25515747 179.24050903 C73.85194813 178.9172435 73.85194813 178.9172435 77.25515747 178.24050903 C80.57293942 167.83370168 83.68248424 157.39972916 86.53250122 146.85379028 C86.71796572 146.1686202 86.90343021 145.48345013 87.09451485 144.77751732 C88.06893921 141.1742405 89.03887667 137.56978921 90.00540161 133.96438599 C90.800674 131.00131784 91.60518213 128.04098684 92.41751099 125.08255005 C93.40966 121.46916964 94.38657406 117.85200005 95.35251045 114.23152733 C95.72006058 112.86379623 96.09286282 111.49746484 96.4711132 110.13265419 C96.99566334 108.23548524 97.49882503 106.33244177 98.00100708 104.42922974 C98.43805214 102.81284355 98.43805214 102.81284355 98.88392639 101.1638031 C99.30679686 97.8338698 98.79814384 96.18303597 97.25515747 93.24050903 C96.20653653 91.98894849 96.20653653 91.98894849 93.88015747 91.92800903 C91.19909883 91.96764298 91.19909883 91.96764298 89.72712708 93.81404114 Z M38.88015747 102.05300903 C37.95239502 102.79526733 37.95239502 102.79526733 37.00588989 103.55252075 C31.714166 107.80933186 26.52856472 112.18974822 21.36453247 116.59988403 C18.38056646 119.14426454 15.35568352 121.63582291 12.31765747 124.11550903 C11.43593872 124.83996216 10.55421997 125.56441528 9.64578247 126.31082153 C8.19873826 127.47886049 6.73416545 128.62620468 5.23953247 129.73269653 C2.09662471 132.05050918 2.09662471 132.05050918 0.83718872 135.61160278 C1.41042777 139.21711566 2.86173336 140.22327367 5.63015747 142.55300903 C6.54668091 143.33289185 7.46320435 144.11277466 8.40750122 144.91629028 C11.82288775 147.70388285 15.23797494 150.48806455 18.70046997 153.21707153 C21.35145812 155.31678386 23.96045576 157.46173371 26.56765747 159.61550903 C28.46305564 161.15771068 30.35891783 162.69934215 32.25515747 164.24050903 C32.80703735 164.69877075 33.35891724 165.15703247 33.92752075 165.62918091 C35.65019283 167.05610906 37.38833771 168.46205329 39.13015747 169.86550903 C39.93320313 170.54105835 39.93320313 170.54105835 40.75247192 171.23025513 C43.27941105 173.23707024 44.73499394 174.24787679 48.01296997 174.20144653 C50.58196976 173.3420807 50.58196976 173.3420807 52.25515747 170.24050903 C52.24890628 166.47104218 51.34330924 165.32945856 48.66531372 162.62722778 C47.55987683 161.71468142 46.44328563 160.81552964 45.31765747 159.92800903 C44.72936157 159.44799438 44.14106567 158.96797974 43.53494263 158.47341919 C41.78466921 157.04992681 40.02175949 155.64365483 38.25515747 154.24050903 C37.36441528 153.52250122 36.4736731 152.80449341 35.55593872 152.06472778 C33.12911873 150.11467436 30.69249664 148.17739142 28.25515747 146.24050903 C26.25082788 144.64175527 24.25085451 143.03752574 22.25515747 141.42800903 C21.34765747 140.69968872 20.44015747 139.97136841 19.50515747 139.22097778 C17.25515747 137.24050903 17.25515747 137.24050903 15.25515747 134.24050903 C15.84127808 133.96900024 16.42739868 133.69749146 17.03128052 133.41775513 C19.22653811 132.25565916 20.93781397 130.99752923 22.83718872 129.40457153 C23.5152356 128.84052612 24.19328247 128.27648071 24.89187622 127.69534302 C25.60988403 127.0914978 26.32789185 126.48765259 27.06765747 125.86550903 C31.55125331 122.11409763 36.03256819 118.37929406 40.67312622 114.82254028 C41.36108276 114.2912854 42.04903931 113.76003052 42.75784302 113.212677 C44.06245914 112.21025469 45.37487427 111.21787964 46.6958313 110.23709106 C49.35053186 108.18346166 51.07245319 106.72537807 52.27078247 103.54519653 C52.48367714 101.06348478 52.48367714 101.06348478 50.50515747 98.92800903 C45.68018437 95.30927921 42.79869708 98.86336364 38.88015747 102.05300903 Z M115.25515747 99.24050903 C114.28997526 101.11683899 114.28997526 101.11683899 114.25515747 103.24050903 C117.89411432 110.02014233 125.53514261 114.76115783 131.52859497 119.34597778 C135.87062501 122.68064772 140.02395989 126.22424645 144.16775513 129.80032349 C147.0297785 132.28306685 147.0297785 132.28306685 150.25515747 134.24050903 C150.25515747 135.23050903 150.25515747 136.22050903 150.25515747 137.24050903 C148.23344245 139.03489478 146.23379688 140.63761679 144.06765747 142.24050903 C142.77949064 143.2200371 141.49307351 144.2018698 140.20828247 145.18582153 C139.55021606 145.68887817 138.89214966 146.19193481 138.21414185 146.7102356 C134.60477648 149.52971492 131.15394001 152.53347255 127.68484497 155.52224731 C124.90808149 157.89751981 122.11531912 160.10052613 119.06765747 162.11550903 C116.07936512 164.37332992 114.91591021 165.55917235 114.25515747 169.24050903 C114.66384999 171.55800026 114.66384999 171.55800026 116.25515747 173.24050903 C118.50565508 174.26844268 118.50565508 174.26844268 121.25515747 174.24050903 C123.50340162 172.90866875 125.27682827 171.65014266 127.25515747 169.99050903 C127.81694702 169.53885376 128.37873657 169.08719849 128.95755005 168.62185669 C130.73926615 167.17952689 132.49944872 165.71435351 134.25515747 164.24050903 C134.81896118 163.76903442 135.38276489 163.29755981 135.96365356 162.8117981 C138.71677384 160.50324626 141.45509323 158.17818486 144.18484497 155.84207153 C146.93302415 153.49849017 149.73620363 151.23315902 152.56765747 148.99050903 C153.35527466 148.36015747 154.14289185 147.72980591 154.95437622 147.08035278 C156.51239776 145.83446459 158.07776714 144.59771942 159.64968872 143.36941528 C160.38574341 142.77000122 161.1217981 142.17058716 161.88015747 141.55300903 C162.5324231 141.03351685 163.18468872 140.51402466 163.85671997 139.97879028 C165.43781436 138.28399518 165.43781436 138.28399518 165.75515747 135.82254028 C165.05119473 132.18723272 163.4176177 131.01738399 160.63015747 128.61550903 C160.13942749 128.18802368 159.64869751 127.76053833 159.14309692 127.32009888 C154.77789194 123.56486399 150.23821745 120.023091 145.68069458 116.50564575 C140.61716887 112.584201 135.76162126 108.4499199 130.96096802 104.21170044 C123.79803134 97.36414814 123.79803134 97.36414814 115.25515747 99.24050903 Z M3.25515747 224.24050903 C4.37370333 227.96665057 4.37370333 227.96665057 7.25515747 230.24050903 C10.32091311 230.34976671 13.36429828 230.397852 16.43069458 230.40164185 C17.38201767 230.40660675 18.33334076 230.41157166 19.31349182 230.41668701 C22.46983556 230.43132794 25.62612907 230.43811329 28.78250122 230.44363403 C30.96964012 230.44938319 33.15677899 230.45514095 35.34391785 230.46090698 C39.93306718 230.47142199 44.52219896 230.47726162 49.11135864 230.48074341 C55.00085596 230.48623402 60.89012277 230.51027216 66.77954769 230.53871536 C71.29789414 230.5573078 75.81618464 230.56254549 80.33456612 230.56407928 C82.50635605 230.56711322 84.67814483 230.57516652 86.84989738 230.58826447 C89.88352053 230.60525658 92.91657485 230.60346161 95.95022583 230.59695435 C97.30389252 230.61077652 97.30389252 230.61077652 98.68490601 230.62487793 C99.51072678 230.61930878 100.33654755 230.61373962 101.18739319 230.60800171 C101.90471587 230.60946827 102.62203856 230.61093483 103.36109829 230.61244583 C105.83400983 230.12683967 106.72019081 229.20370719 108.25515747 227.24050903 C108.92182414 224.74050903 108.92182414 224.74050903 108.25515747 222.24050903 C103.84085795 218.56132912 99.50895903 218.80202545 94.0461731 218.82058716 C93.12688522 218.81211761 92.20759735 218.80364807 91.26045227 218.79492188 C88.22729593 218.77155768 85.19464692 218.77052947 82.16140747 218.77175903 C80.05060625 218.76465796 77.93980697 218.75695904 75.82901001 218.74868774 C71.40736522 218.73524487 66.985899 218.73367372 62.5642395 218.73953247 C56.89786577 218.74543335 51.23234742 218.71481953 45.56613922 218.67441559 C41.20809309 218.64857048 36.85025393 218.6456582 32.49214172 218.64930725 C30.40293729 218.64761353 28.31372355 218.63794691 26.22459412 218.62016296 C23.30385974 218.59803275 20.38487013 218.60764454 17.46414185 218.62527466 C16.60165329 218.61201141 15.73916473 218.59874817 14.85054016 218.58508301 C9.27179492 218.66334541 6.85718578 219.63315726 3.25515747 224.24050903 Z M132.25515747 221.24050903 C131.17292381 224.15055806 131.17292381 224.15055806 131.25515747 227.24050903 C132.45321425 228.9882528 132.45321425 228.9882528 134.25515747 230.24050903 C137.23211364 230.55107777 139.99551242 230.68466023 142.97390747 230.67410278 C143.82819336 230.67934464 144.68247925 230.68458649 145.56265259 230.68998718 C147.36818352 230.69640841 149.17375629 230.69506905 150.97927856 230.68655396 C153.74517064 230.67803978 156.50900056 230.70680882 159.27468872 230.73855591 C161.02859435 230.74016788 162.78250364 230.73959047 164.53640747 230.73660278 C165.36458984 230.74783676 166.19277222 230.75907074 167.04605103 230.77064514 C171.61116196 230.76063611 171.61116196 230.76063611 175.3039856 228.33840942 C176.4087964 226.31102433 176.4087964 226.31102433 176.19265747 224.17800903 C174.91769309 221.54308265 173.80931399 220.71037798 171.25515747 219.24050903 C168.53945602 218.95992335 166.06072523 218.84312684 163.34890747 218.87722778 C162.58719238 218.87672928 161.82547729 218.87623077 161.04067993 218.87571716 C159.43359767 218.87805292 157.82651142 218.8877521 156.21951294 218.90432739 C153.76361277 218.92792778 151.30879858 218.92488386 148.85281372 218.91824341 C147.28900518 218.92382043 145.72520121 218.93093046 144.16140747 218.93972778 C143.42901855 218.93881638 142.69662964 218.93790497 141.94204712 218.93696594 C136.77084251 218.99540951 136.77084251 218.99540951 132.25515747 221.24050903 Z M229.25515747 222.24050903 C228.58835379 225.28330275 228.58835379 225.28330275 229.25515747 228.24050903 C233.10734907 230.80863676 236.28992629 230.52855388 240.75515747 230.50613403 C241.58724731 230.50804749 242.41933716 230.50996094 243.27664185 230.51193237 C245.03510847 230.51329278 246.79358517 230.50960642 248.55203247 230.50125122 C251.2449701 230.49054952 253.93724062 230.50115124 256.63015747 230.51394653 C258.33849228 230.51262491 260.04682667 230.51006247 261.75515747 230.50613403 C262.56146606 230.5101825 263.36777466 230.51423096 264.19851685 230.5184021 C268.06990439 230.48589823 269.95982173 230.43739952 273.25515747 228.24050903 C273.92196115 225.28330275 273.92196115 225.28330275 273.25515747 222.24050903 C269.2591096 218.98704734 265.46199912 218.79920532 260.50515747 218.84207153 C259.40155884 218.83776627 259.40155884 218.83776627 258.27566528 218.83337402 C256.72585273 218.83133977 255.17601413 218.83682488 253.62625122 218.84939575 C251.26238255 218.86545993 248.90022336 218.84952683 246.53640747 218.83035278 C245.02598705 218.83233533 243.5155677 218.83617925 242.00515747 218.84207153 C241.30294067 218.83599884 240.60072388 218.82992615 239.87722778 218.82366943 C235.5348634 218.8854944 232.6547817 219.47263749 229.25515747 222.24050903 Z M297.25515747 221.24050903 C296.17292381 224.15055806 296.17292381 224.15055806 296.25515747 227.24050903 C297.37874414 229.01310947 297.37874414 229.01310947 299.25515747 230.24050903 C301.61369154 230.69464696 301.61369154 230.69464696 304.29652405 230.62818909 C305.3382225 230.63809372 306.37992096 230.64799835 307.45318604 230.65820312 C308.5956076 230.65370148 309.73802917 230.64919983 310.91506958 230.64456177 C312.72025307 230.65485664 312.72025307 230.65485664 314.56190491 230.6653595 C317.86373357 230.68054116 321.16499849 230.68211707 324.46682048 230.67641711 C327.22284252 230.67332934 329.9788133 230.67941314 332.73482805 230.68545586 C339.23668361 230.69950952 345.73840779 230.69793308 352.24026489 230.68655396 C358.94835041 230.67507334 365.6560361 230.68914513 372.36406893 230.71595043 C378.12298396 230.7381016 383.88177344 230.74474612 389.64072806 230.73887402 C393.08046226 230.73550159 396.5199402 230.73793794 399.9596386 230.75512505 C403.79520233 230.77345315 407.63027379 230.75941303 411.46585083 230.74221802 C412.60624817 230.75188599 413.74664551 230.76155396 414.92160034 230.77151489 C416.48837776 230.75676369 416.48837776 230.75676369 418.08680725 230.74171448 C418.99364226 230.74150519 419.90047728 230.74129591 420.83479214 230.74108028 C423.98326546 230.08992436 425.20625642 228.64579957 427.25515747 226.24050903 C426.00538991 222.58734232 425.58416994 221.45985068 422.25515747 219.24050903 C419.94057844 218.9394471 419.94057844 218.9394471 417.3276825 218.98654175 C416.3112265 218.9809021 415.29477051 218.97526245 414.24751282 218.9694519 C413.13314346 218.97350037 412.01877411 218.97754883 410.87063599 218.98171997 C409.69644104 218.97821533 408.52224609 218.97471069 407.31246948 218.97109985 C404.09135143 218.9637988 400.87039737 218.96552012 397.64928174 218.97185802 C394.27855918 218.97691943 390.90784762 218.97222607 387.53712463 218.96908569 C381.87532584 218.96544596 376.21357921 218.9702448 370.55178833 218.97976685 C364.00740581 218.99064619 357.46314795 218.98712968 350.91876847 218.97611403 C345.29999747 218.96703509 339.68126398 218.96575901 334.06248802 218.97099137 C330.70666743 218.97410842 327.3509054 218.97452784 323.99508858 218.9679184 C320.25299733 218.96285058 316.51114677 218.97056759 312.76907349 218.98171997 C311.65672836 218.97767151 310.54438324 218.97362305 309.39833069 218.9694519 C308.37905487 218.97509155 307.35977905 218.9807312 306.30961609 218.98654175 C305.42490411 218.9872958 304.54019213 218.98804985 303.62867069 218.98882675 C301.02701787 219.26470047 299.42623075 219.78574238 297.25515747 221.24050903 Z M3.25515747 266.24050903 C4.50492503 269.89367574 4.926145 271.02116739 8.25515747 273.24050903 C11.31408328 273.56664185 11.31408328 273.56664185 14.85037231 273.54690552 C15.84847679 273.55939079 15.84847679 273.55939079 16.866745 273.5721283 C19.06658784 273.59622462 21.26613414 273.60499983 23.46609497 273.61160278 C24.99682707 273.6205696 26.52755828 273.62969146 28.05828857 273.63896179 C31.26781341 273.65545345 34.47723391 273.66315217 37.6867981 273.66604614 C41.7951153 273.6714295 45.902449 273.7091053 50.01048851 273.75479031 C53.17270467 273.78456621 56.33468419 273.7917698 59.49702835 273.79277229 C61.01129281 273.79697381 62.52555803 273.8094056 64.0396843 273.83028984 C66.16090465 273.85721793 68.27984827 273.8523778 70.40115356 273.83987427 C71.60677948 273.84494492 72.8124054 273.85001556 74.05456543 273.85523987 C78.12947203 273.07258131 79.62918419 271.36200262 82.25515747 268.24050903 C81.13661161 264.5143675 81.13661161 264.5143675 78.25515747 262.24050903 C76.03017085 262.12794441 73.80176765 262.0811248 71.57400513 262.06350708 C70.54444954 262.05365028 70.54444954 262.05365028 69.49409485 262.04359436 C67.21913549 262.02385805 64.94424211 262.01219883 62.66921997 262.00222778 C61.89273479 261.99815226 61.11624962 261.99407673 60.31623459 261.9898777 C56.20733658 261.9690167 52.09847199 261.95471448 47.98953247 261.94534302 C43.74338898 261.93427133 39.49776851 261.89986336 35.25181007 261.86017132 C31.98843402 261.83404191 28.72518336 261.82565455 25.46171188 261.82206154 C23.89639117 261.81718692 22.33107638 261.805548 20.7658577 261.78702354 C18.57518135 261.76270603 16.38586852 261.76358249 14.19509888 261.77053833 C12.94870636 261.76467209 11.70231384 261.75880585 10.41815186 261.75276184 C6.71242774 262.32420027 5.55063177 263.35239241 3.25515747 266.24050903 Z M108.32659912 264.10777187 C107.04923375 266.23388081 107.04923375 266.23388081 107.31765747 268.86550903 C108.02700844 271.30631233 108.02700844 271.30631233 109.88912201 272.37265301 C113.03137963 273.52522542 115.70065498 273.49558301 119.04922485 273.50120544 C119.73177353 273.50503099 120.41432221 273.50885654 121.11755419 273.51279801 C123.40373475 273.52311356 125.6896635 273.5191387 127.9758606 273.51516724 C129.61526217 273.51951447 131.25466171 273.52469766 132.89405823 273.53065491 C137.34645015 273.54405374 141.79875723 273.54462268 146.25116539 273.54209161 C149.96656177 273.54102267 153.68194093 273.54590318 157.39733362 273.55069703 C166.16066429 273.56179489 174.92395208 273.5622278 183.68728638 273.55618286 C192.73277577 273.55013935 201.77810976 273.562463 210.82357264 273.58375293 C218.58671897 273.60135397 226.34981576 273.60737273 234.11298132 273.60411519 C238.75095691 273.60230007 243.38882161 273.60496134 248.02677917 273.61882973 C252.38688808 273.63137943 256.74675415 273.62949121 261.10685921 273.61641884 C262.70806522 273.6140474 264.30928818 273.616808 265.91047478 273.62504196 C268.09429715 273.63546342 270.27729768 273.62744682 272.46109009 273.61473083 C273.68372307 273.61489858 274.90635605 273.61506632 276.16603851 273.61523914 C279.50761562 273.20988423 280.91502632 272.62465738 283.25515747 270.24050903 C283.74447796 267.44439195 283.75617857 265.98203678 282.15246582 263.60848904 C279.29849183 261.55074268 276.95116668 261.85963056 273.46072388 261.85282898 C272.41874816 261.84475067 272.41874816 261.84475067 271.35572243 261.83650917 C269.02254264 261.82217439 266.68992581 261.82934656 264.35671997 261.8364563 C262.68628481 261.83075563 261.01585355 261.82379256 259.34542847 261.81565857 C254.80417127 261.79767947 250.26310678 261.7989043 245.72182465 261.80460095 C241.9343024 261.80768561 238.14681755 261.80160851 234.35930061 261.79556221 C225.42676828 261.78150331 216.49433156 261.78308992 207.5617981 261.79446411 C198.33732896 261.80595025 189.1131504 261.79186446 179.88871956 261.76506764 C171.97613027 261.74293978 164.06363238 261.73626656 156.15101433 261.74214405 C151.42192504 261.74552141 146.6930221 261.74304698 141.96395874 261.72589302 C137.51843799 261.71047199 133.07334915 261.71432515 128.62784576 261.73319817 C126.9939711 261.73689738 125.36006477 261.73373699 123.72621918 261.72331238 C121.50017241 261.71019082 119.27557433 261.72156881 117.04959106 261.73930359 C115.80261444 261.73951287 114.55563782 261.73972216 113.27087402 261.73993778 C110.17983451 261.95936499 110.17983451 261.95936499 108.32659912 264.10777187 Z M317.27078247 263.57400513 C315.97604665 265.35173053 315.97604665 265.35173053 316.38015747 268.30300903 C317.0016616 271.53306318 317.0016616 271.53306318 320.25515747 273.24050903 C324.80662297 273.62939023 329.36755775 273.56964914 333.93362427 273.55618286 C336.1812701 273.55302503 338.42759644 273.57647943 340.67507935 273.60183716 C342.10671831 273.60411051 343.53836081 273.60481348 344.97000122 273.60379028 C346.27058472 273.60677124 347.57116821 273.6097522 348.91116333 273.61282349 C352.40860168 273.22342482 353.83807004 272.75219284 356.25515747 270.24050903 C356.73995499 267.47023751 356.73942277 265.99233542 355.20437622 263.60916138 C352.22227128 261.51526354 349.14396163 261.81238615 345.63015747 261.84207153 C344.88685181 261.83920135 344.14354614 261.83633118 343.37771606 261.83337402 C341.80755857 261.83133427 340.23737561 261.83685803 338.66726685 261.84939575 C336.26369415 261.86545201 333.86180286 261.84954551 331.45828247 261.83035278 C329.93223709 261.83233523 328.40619276 261.83617895 326.88015747 261.84207153 C326.16134399 261.83599884 325.44253052 261.82992615 324.70193481 261.82366943 C321.77825968 261.86488567 319.73561683 261.91764129 317.27078247 263.57400513 Z M388.30593872 263.60916138 C386.77089217 265.99233542 386.77035995 267.47023751 387.25515747 270.24050903 C389.6656402 272.73846896 391.10303526 273.22276591 394.58328247 273.62869263 C395.87750122 273.63207642 397.17171997 273.63546021 398.50515747 273.63894653 C399.20028442 273.64181671 399.89541138 273.64468689 400.61160278 273.64764404 C402.07743141 273.64968037 403.54328748 273.64418059 405.00906372 273.63162231 C407.24796524 273.61556063 409.48506184 273.63148361 411.72390747 273.65066528 C413.15099477 273.64868277 414.57808096 273.64483893 416.00515747 273.63894653 C417.29937622 273.63556274 418.59359497 273.63217896 419.92703247 273.62869263 C423.40727968 273.22276591 424.84467474 272.73846896 427.25515747 270.24050903 C427.73995499 267.47023751 427.73942277 265.99233542 426.20437622 263.60916138 C423.22227128 261.51526354 420.14396163 261.81238615 416.63015747 261.84207153 C415.88685181 261.83920135 415.14354614 261.83633118 414.37771606 261.83337402 C412.80755857 261.83133427 411.23737561 261.83685803 409.66726685 261.84939575 C407.26369415 261.86545201 404.86180286 261.84954551 402.45828247 261.83035278 C400.93223709 261.83233523 399.40619276 261.83617895 397.88015747 261.84207153 C397.16134399 261.83599884 396.44253052 261.82992615 395.70193481 261.82366943 C392.76746757 261.86503781 390.74923895 261.89358759 388.30593872 263.60916138 Z " fill="#02AADF" transform="translate(41.744842529296875,82.75949096679688)"/>
<path d="M0 0 C1.07323517 -0.00101212 1.07323517 -0.00101212 2.16815186 -0.00204468 C36.78812111 0.04923778 84.24469214 4.1628083 110.4375 30.25 C115.74386919 36.82266184 118.88955407 41.93926735 118.77734375 50.4921875 C117.77089469 58.65946376 112.70794752 65.23125778 106.4375 70.25 C66.40586512 99.64616753 7.18668911 101.13790966 -39.9296875 94.1875 C-64.87569283 90.20026387 -95.79139673 82.68262908 -112.34375 61.9921875 C-116.24677774 56.41285939 -117.68582602 50.91361355 -116.5625 44.25 C-112.36409312 31.37082915 -101.91897288 24.03685601 -90.35791016 18.14794922 C-89.7654248 17.85162598 -89.17293945 17.55530273 -88.5625 17.25 C-87.49386719 16.71503906 -86.42523438 16.18007813 -85.32421875 15.62890625 C-59.058388 3.51831363 -28.62585732 0.02456905 0 0 Z " fill="#02AADF" transform="translate(346.5625,28.75)"/>
<path d="M0 0 C3.42419019 2.01910367 6.50906026 4.15863727 9.625 6.625 C26.30157538 18.78593433 46.54230199 24.6406132 66.5 28.75 C67.45922363 28.94883789 68.41844727 29.14767578 69.40673828 29.35253906 C85.20753948 32.41550402 101.06041997 33.38545177 117.125 33.3125 C117.96828857 33.31067719 118.81157715 33.30885437 119.68041992 33.30697632 C155.42128626 33.17774276 201.80992039 28.54574328 229.6875 3.3125 C230.31011719 2.66925781 230.93273437 2.02601562 231.57421875 1.36328125 C233 0 233 0 235 0 C235.10185277 6.4044834 235.17165458 12.80875607 235.21972656 19.21386719 C235.23977764 21.39037888 235.26702571 23.56683714 235.30175781 25.74316406 C235.35056212 28.88099393 235.37303438 32.01810835 235.390625 35.15625 C235.41127014 36.12115356 235.43191528 37.08605713 235.45318604 38.0802002 C235.45603211 46.75009153 232.62501814 52.91272768 226.796875 59.2890625 C208.10194893 77.08988341 179.68839228 83.44127102 155 87 C154.22640137 87.11714355 153.45280273 87.23428711 152.65576172 87.35498047 C107.694294 93.91165821 49.89634072 90.68758414 12.1875 62.9296875 C6.58882212 58.23342809 2.32663644 52.97990932 0 46 C-0.08669529 44.48092376 -0.117694 42.95830999 -0.11352539 41.43676758 C-0.11344986 40.51603958 -0.11337433 39.59531158 -0.11329651 38.64668274 C-0.10813522 37.65597275 -0.10297394 36.66526276 -0.09765625 35.64453125 C-0.0962413 34.62775803 -0.09482635 33.6109848 -0.09336853 32.56340027 C-0.08776707 29.31307036 -0.07521432 26.06280912 -0.0625 22.8125 C-0.05748519 20.61002704 -0.05292225 18.40755299 -0.04882812 16.20507812 C-0.03779717 10.80336196 -0.02105762 5.40168588 0 0 Z " fill="#183D7F" transform="translate(230,102)"/>
<path d="M0 0 C1.28491962 0.96141507 2.56952792 1.92324621 3.85400391 2.88525391 C4.92710312 3.68861679 4.92710312 3.68861679 6.0218811 4.50820923 C7.47189192 5.60172932 8.9080492 6.71368416 10.3359375 7.8359375 C49.75594018 37.58973262 112.26866247 37.57087196 158.63671875 31.2578125 C187.41161932 26.97319137 211.86535867 17.36946899 235 0 C235.12742989 6.52851369 235.21461371 13.05670328 235.2746582 19.58618164 C235.2997055 21.80440252 235.33375331 24.02254167 235.37719727 26.24047852 C235.43827957 29.44047278 235.46630846 32.63937011 235.48828125 35.83984375 C235.51408768 36.82145981 235.5398941 37.80307587 235.56648254 38.81443787 C235.569712 46.85521149 233.01708611 52.02353344 228.21875 58.34765625 C201.05465229 85.45001738 153.72351888 89.99479645 117.4375 90.25 C81.01953666 90.03214183 35.95778217 85.1926738 8.0859375 59.17578125 C3.09076471 53.96546057 -0.26704556 49.53695198 -0.22705078 42.11791992 C-0.22689972 41.17732224 -0.22674866 40.23672455 -0.22659302 39.2676239 C-0.21627045 38.2653627 -0.20594788 37.2631015 -0.1953125 36.23046875 C-0.1924826 35.19432938 -0.18965271 34.15819 -0.18673706 33.09065247 C-0.17556454 29.78948293 -0.15046505 26.48858719 -0.125 23.1875 C-0.11496643 20.94596747 -0.10584124 18.70443067 -0.09765625 16.46289062 C-0.07563478 10.9751674 -0.04218621 5.48760326 0 0 Z " fill="#183D7F" transform="translate(230,167)"/>
<path d="M0 0 C24.42 0 48.84 0 74 0 C73.34 2.97 72.68 5.94 72 9 C68.34308443 26.14388859 68.29393027 40.23051143 74 57 C75.64198364 57.02187378 75.64198364 57.02187378 77.31713867 57.04418945 C81.38956905 57.10228739 85.46145315 57.17951927 89.53344727 57.26245117 C91.29377355 57.29564654 93.05420488 57.32369524 94.81469727 57.34643555 C97.34957525 57.3800812 99.88349523 57.4324006 102.41796875 57.48828125 C103.59325386 57.49786613 103.59325386 57.49786613 104.7922821 57.50764465 C109.30493529 57.62828939 112.49633482 58.03747122 116 61 C116.82598309 66.78188165 116.82598309 66.78188165 114.85069275 69.69494057 C112.17447577 71.58213779 110.1461139 71.37764451 106.88891602 71.38095093 C105.61017609 71.3894104 104.33143616 71.39786987 103.01394653 71.40658569 C101.59393184 71.40075258 100.17391839 71.39460806 98.75390625 71.38818359 C97.26080948 71.39224797 95.76771573 71.3975891 94.27462769 71.40411377 C90.21680729 71.41780924 86.15921531 71.41247961 82.10139084 71.40297651 C77.85868455 71.39539143 73.61599806 71.40242232 69.37329102 71.40713501 C62.24784832 71.41259593 55.12249886 71.40539215 47.99707031 71.39111328 C39.75420314 71.37478609 31.51155856 71.38007436 23.26869678 71.3965925 C16.19686633 71.41019781 9.12510297 71.41213171 2.05326366 71.40427649 C-2.1727698 71.3995947 -6.39869857 71.39898895 -10.62472534 71.40888596 C-14.59743568 71.41753951 -18.56985848 71.41156347 -22.54253769 71.39420319 C-24.00225217 71.39022968 -25.46199076 71.39138713 -26.92169571 71.39799118 C-28.91076047 71.40616183 -30.89987799 71.39410936 -32.88891602 71.38095093 C-34.00315445 71.37981985 -35.11739288 71.37868877 -36.26539612 71.37752342 C-39 71 -39 71 -40.85069275 69.69494057 C-42.83142682 66.77385352 -42.48444607 64.39112251 -42 61 C-37.87882999 57.51533917 -33.57989288 57.53037865 -28.41796875 57.48828125 C-27.60378983 57.47033005 -26.7896109 57.45237885 -25.95075989 57.43388367 C-23.36305848 57.3799179 -20.77554007 57.34592975 -18.1875 57.3125 C-16.42770899 57.27931472 -14.66794208 57.24482394 -12.90820312 57.20898438 C-8.60560107 57.12419958 -4.30305199 57.05732335 0 57 C0.65177969 54.81426438 1.29614674 52.6263177 1.9375 50.4375 C2.29714844 49.21933594 2.65679687 48.00117188 3.02734375 46.74609375 C7.22346745 30.58511934 3.54125249 15.93563622 0 0 Z " fill="#183D80" transform="translate(219,412)"/>
</svg>
