<?xml version="1.0" encoding="UTF-8"?>
<svg version="1.1" xmlns="http://www.w3.org/2000/svg" width="512" height="512">
<path d="M0 0 C0.72699097 -0.00511093 1.45398193 -0.01022186 2.20300293 -0.01548767 C4.61271332 -0.02941874 7.02213882 -0.02842427 9.43188477 -0.02612305 C11.10335904 -0.03000815 12.77483233 -0.03434243 14.44630432 -0.03910828 C17.95267942 -0.04657811 21.45895385 -0.04627379 24.96533203 -0.04101562 C29.4626027 -0.03522096 33.95946153 -0.05214801 38.45666409 -0.0753603 C41.90959591 -0.09008025 45.36242818 -0.09097171 48.81538582 -0.08785057 C50.47361123 -0.08836469 52.13184208 -0.09361948 53.79003716 -0.10366249 C56.10769405 -0.1159758 58.42454388 -0.10926657 60.7421875 -0.09765625 C62.72169655 -0.09860039 62.72169655 -0.09860039 64.74119568 -0.0995636 C67.93579102 0.2746582 67.93579102 0.2746582 69.84451294 1.68302917 C73.21543175 6.59951412 72.56606163 13.92482409 72.99829102 19.6496582 C73.08771973 20.81674316 73.17714844 21.98382812 73.26928711 23.1862793 C73.85723365 31.23722731 74.20001625 39.20110938 73.93579102 47.2746582 C74.53294922 47.36755127 75.13010742 47.46044434 75.74536133 47.55615234 C82.52359151 48.74345963 88.42221656 50.90669323 94.68579102 53.7121582 C95.59200195 54.10725586 96.49821289 54.50235352 97.43188477 54.90942383 C101.1641373 56.54671125 104.77200894 58.18238927 108.32641602 60.18481445 C110.8165188 61.57663356 110.8165188 61.57663356 112.88696289 60.53100586 C114.95364152 59.26371222 116.57512348 57.93538833 118.32641602 56.26293945 C118.9497583 55.67303223 119.57310059 55.083125 120.21533203 54.4753418 C120.8655835 53.85224121 121.51583496 53.22914062 122.18579102 52.5871582 C123.53270467 51.31423656 124.88035352 50.04209238 126.22875977 48.77075195 C126.87119629 48.16344238 127.51363281 47.55613281 128.17553711 46.93041992 C138.89175956 36.85033384 138.89175956 36.85033384 143.93579102 34.2746582 C149.43400411 34.50305645 152.04317412 35.63600169 155.8737793 39.53149414 C156.77806671 40.43623474 157.68235413 41.34097534 158.61404419 42.27313232 C159.57838061 43.26812582 160.5423925 44.26343394 161.50610352 45.2590332 C162.5141289 46.27826751 163.52350087 47.29617163 164.53414917 48.31280518 C167.18589675 50.98739504 169.8191525 53.67948553 172.44885254 56.37573242 C175.11724739 59.10535587 177.80253507 61.8182424 180.48657227 64.5324707 C185.21644689 69.31965769 189.93119363 74.12123458 194.63528442 78.93377686 C196.30515806 80.63295741 198.00736701 82.30055025 199.72824097 83.94805908 C201.93579102 86.2746582 201.93579102 86.2746582 201.93579102 88.2746582 C202.78915039 88.28883789 203.64250977 88.30301758 204.52172852 88.31762695 C232.7497007 89.39436404 261.45377992 97.22810746 286.93579102 109.2746582 C287.67410156 109.62254395 288.41241211 109.97042969 289.1730957 110.32885742 C307.33007868 119.04054118 325.81543619 131.82304232 333.69993591 151.14753723 C336.53993682 159.31265723 336.41474155 167.50206165 336.44750977 176.03637695 C336.46478153 177.78450106 336.48318405 179.53261427 336.50259399 181.28071594 C336.55202523 186.1429141 336.58150185 191.00505263 336.60635757 195.86743164 C336.62335222 198.97334367 336.64504478 202.07918754 336.66830444 205.18505859 C336.76698324 218.44526094 336.83397803 231.70545486 336.88394833 244.96592522 C336.91340721 252.77314124 336.94574829 260.58033032 336.98327637 268.38751221 C337.08178057 288.96766972 337.16284908 309.54774433 337.20739841 330.12809658 C337.21154763 332.03523702 337.21570787 333.94237743 337.21987915 335.84951782 C337.22193051 336.79239129 337.22398186 337.73526477 337.22609538 338.70671016 C337.2415137 345.37363685 337.26661286 352.04048635 337.29550171 358.70736694 C337.33088137 366.93867132 337.35142312 375.16986191 337.35391879 383.40124422 C337.35557288 387.66726551 337.3637117 391.9330171 337.38908768 396.19896889 C337.41238123 400.15609821 337.41665167 404.11279879 337.40647185 408.06997931 C337.40600801 409.50491849 337.4122501 410.93987982 337.42608297 412.3747524 C337.57237785 428.44938261 332.27559699 441.19665538 321.31469727 452.98950195 C312.56430841 461.3950479 302.58791166 467.59763206 291.93579102 473.2746582 C290.99606445 473.79672852 290.05633789 474.31879883 289.08813477 474.85668945 C253.98101408 493.57061173 210.44906048 498.88528123 171.33129883 498.66577148 C167.93603386 498.64965936 164.54195854 498.66576208 161.14672852 498.68481445 C140.55018719 498.70566219 120.14281715 496.85473031 99.99829102 492.4621582 C98.79156738 492.20499023 97.58484375 491.94782227 96.34155273 491.68286133 C86.3184666 489.48433516 76.58275951 486.76487835 66.93579102 483.2746582 C66.29609375 483.04842773 65.65639648 482.82219727 64.99731445 482.58911133 C40.34155242 473.760634 16.49585486 460.09614556 3.49438477 436.6340332 C-0.26665622 428.52752883 -0.33245399 421.54775012 -0.25952148 412.68481445 C-0.25669159 411.38515244 -0.25386169 410.08549042 -0.25094604 408.7464447 C-0.24335553 405.31216565 -0.22374721 401.87805913 -0.20153809 398.44384766 C-0.1809802 394.9310947 -0.17192319 391.41831352 -0.16186523 387.90551758 C-0.14049635 381.02849414 -0.10641662 374.15158449 -0.06420898 367.2746582 C-1.85362915 367.08347412 -1.85362915 367.08347412 -3.67919922 366.88842773 C-7.3485756 366.42722918 -10.70306479 365.61393406 -14.22436523 364.4543457 C-15.89970337 363.90290894 -15.89970337 363.90290894 -17.60888672 363.34033203 C-18.76976807 362.94740967 -19.93064941 362.5544873 -21.12670898 362.1496582 C-22.32303955 361.75093506 -23.51937012 361.35221191 -24.75195312 360.94140625 C-32.61685718 358.26538744 -40.02581188 355.22158717 -47.34155273 351.29418945 C-49.93875306 349.97922841 -49.93875306 349.97922841 -52.02246094 351.02270508 C-54.0862634 352.28818146 -55.70593176 353.61621078 -57.45483398 355.28637695 C-58.07825684 355.87628418 -58.70167969 356.46619141 -59.34399414 357.07397461 C-60.31925049 358.00862549 -60.31925049 358.00862549 -61.31420898 358.9621582 C-62.65974692 360.23515691 -64.00609311 361.50730189 -65.35327148 362.77856445 C-65.99554688 363.38587402 -66.63782227 363.99318359 -67.29956055 364.61889648 C-69.975931 367.13012288 -72.70872083 369.56677042 -75.50561523 371.94262695 C-76.92086166 373.15214833 -78.2778114 374.4290605 -79.62670898 375.7121582 C-83.13994239 377.9642309 -84.95719059 378.0403735 -89.06420898 377.2746582 C-90.85310364 375.99157715 -90.85310364 375.99157715 -92.72363281 374.29223633 C-93.7747374 373.33752441 -93.7747374 373.33752441 -94.84707642 372.36352539 C-98.69407743 368.73908078 -102.46104375 365.04056443 -106.20092773 361.3059082 C-107.04339554 360.4667688 -107.88586334 359.62762939 -108.75386047 358.76306152 C-110.52243553 356.99951959 -112.28968454 355.23464691 -114.05566406 353.46850586 C-116.74906206 350.77730297 -119.45037051 348.09421284 -122.15209961 345.41137695 C-123.87719858 343.68921099 -125.60182423 341.96657075 -127.32592773 340.2434082 C-128.12810226 339.44841919 -128.93027679 338.65343018 -129.75675964 337.83435059 C-140.89112295 326.65459124 -140.89112295 326.65459124 -141.31420898 320.8371582 C-139.5874707 315.91595411 -136.70461887 312.92957171 -133.06420898 309.2746582 C-132.47897461 308.6868457 -131.89374023 308.0990332 -131.29077148 307.4934082 C-130.13840927 306.3462603 -128.98213705 305.20302702 -127.82202148 304.0637207 C-125.32915427 301.52653585 -123.03009604 298.83524725 -120.70874023 296.1418457 C-118.59290003 293.73953783 -116.36174288 291.50256986 -114.06420898 289.2746582 C-115.57036704 284.31365305 -117.6611013 279.84574923 -119.93920898 275.2121582 C-128.06420898 258.32486729 -128.06420898 258.32486729 -128.06420898 249.2746582 C-129.27592773 249.28625977 -130.48764648 249.29786133 -131.73608398 249.30981445 C-140.83279379 249.37024554 -149.91255435 249.29826079 -159.00170898 248.8996582 C-160.25129395 248.8533728 -160.25129395 248.8533728 -161.52612305 248.80615234 C-166.82663492 248.54439195 -171.14386608 248.19500111 -175.06420898 244.2746582 C-175.26758698 241.85189476 -175.3474624 239.54292101 -175.33886719 237.11865234 C-175.34397812 236.38190781 -175.34908905 235.64516327 -175.35435486 234.88609314 C-175.36828657 232.44391824 -175.36729141 230.00202443 -175.36499023 227.55981445 C-175.3688753 225.86591995 -175.37320957 224.17202641 -175.37797546 222.47813416 C-175.38544543 218.92468104 -175.38514087 215.37132726 -175.37988281 211.81787109 C-175.37408809 207.2600684 -175.39101529 202.70267205 -175.41422749 198.14493656 C-175.42894693 194.64568192 -175.42983897 191.14652552 -175.42671776 187.64724541 C-175.42723191 185.96669141 -175.43248713 184.28613205 -175.44252968 182.60560799 C-175.45484201 180.25682166 -175.4481343 177.90883181 -175.43652344 175.56005859 C-175.44416718 174.86333038 -175.45181091 174.16660217 -175.45968628 173.44876099 C-175.42821846 170.57439128 -175.39058048 168.71999272 -173.66178894 166.36105347 C-170.67257821 164.32831365 -167.53404685 164.14601057 -164.00170898 163.95825195 C-163.21376953 163.91627686 -162.42583008 163.87430176 -161.61401367 163.83105469 C-160.77257812 163.79181885 -159.93114258 163.75258301 -159.06420898 163.7121582 C-158.19441406 163.66969971 -157.32461914 163.62724121 -156.4284668 163.58349609 C-146.97372273 163.16228708 -137.52587087 163.18406782 -128.06420898 163.2746582 C-127.95334961 162.27563477 -127.84249023 161.27661133 -127.72827148 160.24731445 C-127.14679962 156.21246704 -125.90053608 152.50549037 -124.43920898 148.7121582 C-124.18067139 148.02541016 -123.92213379 147.33866211 -123.65576172 146.63110352 C-121.30883315 140.56129241 -118.41026673 134.86830929 -115.28686523 129.1652832 C-113.92338388 126.47632473 -113.92338388 126.47632473 -114.08374023 124.1809082 C-115.49922697 121.42888618 -117.44812169 119.65064434 -119.68920898 117.5246582 C-123.46225135 113.86969113 -126.99447845 110.14836463 -130.40014648 106.15356445 C-132.66195098 103.59974294 -135.10257211 101.25450807 -137.58374023 98.9152832 C-139.92347069 96.32244206 -140.93048651 93.92841252 -141.62670898 90.5246582 C-139.67631394 79.25570907 -123.14121189 68.0100955 -115.12182617 59.92724609 C-113.07512718 57.86263092 -111.03732015 55.7897963 -109.0065918 53.70947266 C-106.53495631 51.17759973 -104.04886578 48.66081175 -101.55178833 46.15403557 C-100.15331087 44.74290698 -98.76960059 43.31719248 -97.38623047 41.89125061 C-90.29847628 34.82642161 -90.29847628 34.82642161 -86.11938477 34.09204102 C-79.05214783 34.51447135 -74.04908183 40.91705183 -69.18920898 45.5871582 C-65.08522219 49.50531901 -60.97112134 53.40706688 -56.74389648 57.19262695 C-56.1095166 57.76134521 -55.47513672 58.33006348 -54.8215332 58.91601562 C-52.99846239 60.47995294 -52.99846239 60.47995294 -50.06420898 61.2746582 C-47.44584398 60.16919289 -44.96621488 58.9991695 -42.43920898 57.7121582 C-36.29906784 54.69865732 -30.14568012 52.03715237 -23.68920898 49.7746582 C-22.97039551 49.51998779 -22.25158203 49.26531738 -21.51098633 49.00292969 C-18.57081772 47.99474072 -16.19447491 47.2746582 -13.06420898 47.2746582 C-13.08741211 46.56567383 -13.11061523 45.85668945 -13.13452148 45.1262207 C-13.27877531 36.61524471 -12.80906481 28.19841969 -12.18920898 19.7121582 C-12.1107373 18.57020996 -12.03226563 17.42826172 -11.95141602 16.25170898 C-11.82549072 14.62144775 -11.82549072 14.62144775 -11.69702148 12.95825195 C-11.62370605 11.98428467 -11.55039063 11.01031738 -11.47485352 10.00683594 C-10.27802747 2.0438869 -7.92319049 0.02767903 0 0 Z M2.93579102 15.2746582 C2.35808083 27.55485986 2.35808083 27.55485986 1.79956055 39.8359375 C1.72326682 41.38195162 1.64632452 42.92793393 1.56860352 44.47387695 C1.53565186 45.2687854 1.5027002 46.06369385 1.46875 46.88269043 C1.0485798 54.90743802 1.0485798 54.90743802 -1.06420898 58.2746582 C-3.53173828 59.54150391 -3.53173828 59.54150391 -6.63842773 60.45043945 C-7.77441406 60.79953369 -8.91040039 61.14862793 -10.08081055 61.50830078 C-11.29220703 61.86432373 -12.50360352 62.22034668 -13.75170898 62.5871582 C-24.92369389 66.07344616 -35.01647723 69.90268359 -44.79272461 76.4284668 C-47.65540475 78.25322985 -49.67534248 79.26413475 -53.09545898 79.35668945 C-56.94720456 77.95282955 -59.59270297 75.69107492 -62.56420898 72.9621582 C-63.16152832 72.43396484 -63.75884766 71.90577148 -64.37426758 71.36157227 C-66.2802469 69.67610713 -68.17275197 67.97639315 -70.06420898 66.2746582 C-72.59398117 64.01081039 -75.13772244 61.76397321 -77.68920898 59.5246582 C-78.26864258 58.99960693 -78.84807617 58.47455566 -79.44506836 57.93359375 C-82.66129737 55.10992273 -83.62079597 54.2746582 -88.06420898 54.2746582 C-89.96670512 55.59785957 -89.96670512 55.59785957 -91.73120117 57.48754883 C-92.43162537 58.18827515 -93.13204956 58.88900146 -93.85369873 59.61096191 C-94.59863586 60.37654419 -95.343573 61.14212646 -96.11108398 61.9309082 C-97.26788666 63.09620056 -97.26788666 63.09620056 -98.44805908 64.28503418 C-100.91296809 66.77236224 -103.36362151 69.27322668 -105.81420898 71.7746582 C-107.48125828 73.46176514 -109.14921603 75.14797494 -110.81811523 76.83325195 C-114.91075117 80.97002874 -118.99176258 85.11800959 -123.06420898 89.2746582 C-121.44336245 92.71867608 -119.63884654 94.88137338 -116.87670898 97.5246582 C-112.70517802 101.60274687 -108.85665078 105.84724335 -105.06420898 110.2746582 C-103.19370528 112.38832739 -101.32165186 114.50058573 -99.44702148 116.6105957 C-97.16179264 119.36061685 -96.65433997 121.58840523 -96.71166992 125.16967773 C-97.45247329 129.59295101 -99.99782682 133.36067008 -102.18920898 137.2121582 C-108.3586691 148.49749106 -113.3704146 159.83017224 -116.13061523 172.4543457 C-117.06420898 174.2746582 -117.06420898 174.2746582 -119.07250977 175.33520508 C-122.99964582 176.568404 -126.77247449 176.84540854 -130.86499023 177.1262207 C-131.60696655 177.18318115 -132.34894287 177.2401416 -133.11340332 177.29882812 C-135.8671867 177.50787651 -138.6220165 177.7029517 -141.37670898 177.8996582 C-147.54358398 178.3534082 -153.71045898 178.8071582 -160.06420898 179.2746582 C-160.06420898 197.0946582 -160.06420898 214.9146582 -160.06420898 233.2746582 C-147.78400733 233.85236839 -147.78400733 233.85236839 -135.50292969 234.41088867 C-133.95691557 234.4871824 -132.41093326 234.5641247 -130.86499023 234.6418457 C-130.07008179 234.67479736 -129.27517334 234.70774902 -128.45617676 234.74169922 C-120.53881291 235.15624688 -120.53881291 235.15624688 -117.06420898 237.2746582 C-115.88916016 239.43505859 -115.88916016 239.43505859 -115.10717773 242.12231445 C-114.80328125 243.11239502 -114.49938477 244.10247559 -114.1862793 245.12255859 C-113.87787109 246.18337646 -113.56946289 247.24419434 -113.25170898 248.3371582 C-110.85019351 256.06480129 -108.33269843 263.54143016 -104.81420898 270.8371582 C-104.49734131 271.49530518 -104.18047363 272.15345215 -103.85400391 272.83154297 C-102.30489729 275.96918506 -100.6493015 279.01329431 -98.88061523 282.0324707 C-96.61241196 286.0810916 -96.05818127 287.7088401 -97.06420898 292.2746582 C-99.74788302 295.91854589 -102.89316171 299.05549185 -106.06420898 302.2746582 C-107.61504966 303.97466764 -109.15699574 305.68284095 -110.68920898 307.3996582 C-112.83589556 309.79911807 -114.984887 312.18993122 -117.18530273 314.5402832 C-118.14629883 315.58442383 -118.14629883 315.58442383 -119.12670898 316.6496582 C-119.69518555 317.25551758 -120.26366211 317.86137695 -120.84936523 318.4855957 C-122.43871993 320.46576505 -122.43871993 320.46576505 -122.06420898 324.2746582 C-120.74100761 326.17715434 -120.74100761 326.17715434 -118.85131836 327.94165039 C-118.15059204 328.64207458 -117.44986572 329.34249878 -116.72790527 330.06414795 C-115.962323 330.80908508 -115.19674072 331.55402222 -114.40795898 332.3215332 C-113.24266663 333.47833588 -113.24266663 333.47833588 -112.05383301 334.6585083 C-109.56650495 337.12341731 -107.06564051 339.57407073 -104.56420898 342.0246582 C-102.87710205 343.69170749 -101.19089225 345.35966525 -99.50561523 347.02856445 C-95.36883845 351.12120039 -91.22085759 355.2022118 -87.06420898 359.2746582 C-84.27281513 357.92518249 -82.14297592 356.62275881 -79.89233398 354.48168945 C-79.31410889 353.93697998 -78.73588379 353.39227051 -78.14013672 352.83105469 C-77.23630249 351.96782593 -77.23630249 351.96782593 -76.31420898 351.0871582 C-75.06106069 349.90666558 -73.80715938 348.72697179 -72.55249023 347.5480957 C-71.95130371 346.981875 -71.35011719 346.4156543 -70.73071289 345.83227539 C-67.58381895 342.8909945 -64.34364829 340.06618093 -61.06420898 337.2746582 C-59.73389648 336.0990332 -59.73389648 336.0990332 -58.37670898 334.8996582 C-55.77533864 333.07166823 -54.21088847 332.59408103 -51.06420898 332.2746582 C-48.85449219 333.07568359 -48.85449219 333.07568359 -46.61499023 334.37231445 C-45.35561646 335.07626343 -45.35561646 335.07626343 -44.07080078 335.79443359 C-42.73722534 336.55808228 -42.73722534 336.55808228 -41.37670898 337.3371582 C-31.89597347 342.5453989 -22.48099932 346.39938935 -12.06420898 349.2746582 C-11.35603027 349.47043457 -10.64785156 349.66621094 -9.91821289 349.86791992 C-6.48761261 350.77445981 -3.63767402 351.2746582 -0.06420898 351.2746582 C-0.06420898 334.1146582 -0.06420898 316.9546582 -0.06420898 299.2746582 C-4.35420898 297.6246582 -8.64420898 295.9746582 -13.06420898 294.2746582 C-36.65409056 282.61224484 -54.78631986 263.14896164 -63.7800293 238.29663086 C-69.81802366 219.87193685 -71.17594854 196.86453267 -65.06420898 178.2746582 C-64.87084961 177.65800293 -64.67749023 177.04134766 -64.47827148 176.40600586 C-59.15867452 159.70427742 -50.49469334 146.53086307 -38.06420898 134.2746582 C-36.95625977 133.15124023 -36.95625977 133.15124023 -35.82592773 132.00512695 C-19.1772899 116.10896992 4.45503195 107.76235065 27.21498108 108.24206543 C30.39949534 108.32518302 33.58232592 108.42897594 36.76513672 108.5625 C48.71725628 109.02893015 57.13177258 107.31017611 67.93579102 102.2746582 C103.68433194 88.96009965 142.27669534 87.7852422 179.93579102 87.2746582 C175.97206577 82.52379953 171.8378432 78.03852708 167.44360352 73.68481445 C166.85279999 73.09542587 166.26199646 72.50603729 165.65328979 71.89878845 C163.79148698 70.04252093 161.92621357 68.18978736 160.06079102 66.3371582 C158.78712091 65.06851148 157.5136813 63.7996333 156.24047852 62.53051758 C153.14157058 59.44255266 150.039548 56.35774891 146.93579102 53.2746582 C143.49177314 54.89550473 141.32907583 56.70002065 138.68579102 59.4621582 C135.2188144 63.00857454 131.68415211 66.36186347 127.90454102 69.5715332 C126.53838145 70.75336965 125.20666352 71.97574234 123.90454102 73.2277832 C123.23422852 73.86200195 122.56391602 74.4962207 121.87329102 75.1496582 C121.28418945 75.72458008 120.69508789 76.29950195 120.08813477 76.8918457 C116.85953587 78.96611795 114.79797623 79.28634998 110.93579102 79.2746582 C107.44203103 77.93686368 104.29025401 76.08844117 101.06079102 74.2121582 C89.24992601 67.68439273 77.37323664 62.78316203 64.03735352 60.3059082 C60.79171687 58.71325379 60.27746331 56.58703472 58.93579102 53.2746582 C58.43798926 50.31457832 58.31094902 47.3732079 58.20532227 44.3762207 C58.1690271 43.63525146 58.13273193 42.89428223 58.09533691 42.13085938 C57.96490831 39.38778711 57.857954 36.64363909 57.74829102 33.8996582 C57.34610352 24.6802832 57.34610352 24.6802832 56.93579102 15.2746582 C39.11579102 15.2746582 21.29579102 15.2746582 2.93579102 15.2746582 Z M159.38891602 101.4074707 C114.57586102 102.67252639 60.3316796 110.14550102 26.37329102 142.3996582 C18.17416962 151.09037574 14.64151289 160.29333435 14.93579102 172.2746582 C17.64246923 185.46251587 28.12404812 195.56058486 38.81469727 202.89086914 C93.35660161 238.47368611 170.97420108 240.5089783 233.02319336 227.6340332 C258.0241083 222.18130552 285.77503077 214.10188568 304.93579102 196.2746582 C306.1152832 195.23051758 306.1152832 195.23051758 307.31860352 194.1652832 C314.44544472 187.53238148 320.19396197 179.50219265 321.20922852 169.6105957 C321.56521718 159.23215684 318.4416865 152.93488416 311.74829102 145.1496582 C287.99379546 120.14492603 251.01342843 110.37045967 217.93579102 105.2746582 C216.75533203 105.09273926 215.57487305 104.91082031 214.35864258 104.72338867 C195.88576994 101.95362843 178.05920789 100.97161372 159.38891602 101.4074707 Z M-32.01342773 148.95043945 C-49.20510359 168.43433875 -54.51570412 190.88824151 -53.28295898 216.34057617 C-51.87918887 235.16926953 -40.87685457 254.39657196 -27.38842773 267.30200195 C-14.91681132 278.13923861 -14.91681132 278.13923861 -0.06420898 283.2746582 C-0.06274242 282.64058139 -0.06127586 282.00650457 -0.05976486 281.35321331 C-0.02262448 265.88554788 0.03648539 250.41814317 0.11969376 234.95066357 C0.1594104 227.47052362 0.19184015 219.99048775 0.20678711 212.51025391 C0.21984209 205.9862999 0.24690399 199.46257562 0.29040408 192.93875104 C0.31293319 189.48815964 0.32870689 186.03785065 0.32767487 182.58717918 C0.326783 178.72390054 0.3571797 174.86119371 0.38989258 170.99804688 C0.38234703 169.30410545 0.38234703 169.30410545 0.37464905 167.57594299 C0.56966972 152.62096995 7.20761669 140.64038721 17.68579102 130.2746582 C19.42836536 128.60022922 21.17729023 126.93235321 22.93579102 125.2746582 C23.94007361 124.27895922 24.94243532 123.28125865 25.93579102 122.2746582 C3.94348534 121.69079168 -17.10313797 133.35157502 -32.01342773 148.95043945 Z M14.93579102 203.2746582 C14.88476141 209.78504052 14.84991999 216.29537057 14.82592773 222.8059082 C14.81591755 225.01719083 14.80230534 227.22846038 14.78491211 229.43969727 C14.76044364 232.63211307 14.74925777 235.82435269 14.74047852 239.0168457 C14.73015594 239.99330048 14.71983337 240.96975525 14.709198 241.97579956 C14.70668124 257.64027605 19.0021869 267.15852313 29.93579102 278.2746582 C30.55325195 278.90500977 31.17071289 279.53536133 31.80688477 280.18481445 C67.58810826 313.96536739 132.9048503 318.23744548 178.8918457 317.18945312 C216.83742326 315.8305474 256.48425658 308.977107 289.93579102 290.2746582 C290.92579102 289.72293945 291.91579102 289.1712207 292.93579102 288.6027832 C305.43259655 281.14730263 316.03426133 271.27102372 320.93579102 257.2746582 C321.22164253 254.59009678 321.22164253 254.59009678 321.1628418 251.75 C321.16269073 250.66925705 321.16253967 249.5885141 321.16238403 248.47502136 C321.15206146 247.31964371 321.14173889 246.16426605 321.13110352 244.97387695 C321.12827362 243.78236526 321.12544373 242.59085358 321.12252808 241.36323547 C321.11134535 237.56277365 321.08624381 233.76254864 321.06079102 229.9621582 C321.05075877 227.38338557 321.04163335 224.80460923 321.03344727 222.22583008 C321.01141222 215.90869217 320.97795333 209.59169211 320.93579102 203.2746582 C320.46061539 203.68394562 319.98543976 204.09323303 319.49586487 204.5149231 C318.86961716 205.05325775 318.24336945 205.59159241 317.59814453 206.14624023 C316.9785939 206.67927765 316.35904327 207.21231506 315.72071838 207.76150513 C292.72864658 227.25278796 263.29340684 237.26257778 234.12329102 243.0246582 C233.19057373 243.21116943 232.25785645 243.39768066 231.296875 243.58984375 C211.43531581 247.2622963 191.51017746 248.77900548 171.33129883 248.66577148 C167.93603386 248.64965936 164.54195854 248.66576208 161.14672852 248.68481445 C112.16441894 248.732624 56.42781113 239.06898206 18.23022461 206.11669922 C17.61021576 205.58262955 16.99020691 205.04855988 16.35140991 204.49830627 C15.88425568 204.09450241 15.41710144 203.69069855 14.93579102 203.2746582 Z M14.93579102 285.2746582 C14.88477315 291.92745664 14.84992481 298.58020398 14.82592773 305.2331543 C14.81591583 307.4929391 14.8023023 309.7527111 14.78491211 312.01245117 C14.76045135 315.27436498 14.74925948 318.5361064 14.74047852 321.7980957 C14.73015594 322.79642426 14.71983337 323.79475281 14.709198 324.82333374 C14.7069114 339.35832012 18.44640199 349.22099725 28.43188477 359.86450195 C32.59962937 363.87619996 37.08761845 367.13385784 41.93579102 370.2746582 C42.92708008 370.92047852 43.91836914 371.56629883 44.93969727 372.23168945 C100.60436228 406.19316378 180.15268558 406.41793135 241.62817383 391.76367188 C258.50209142 387.50325668 274.72754729 381.77744901 289.93579102 373.2746582 C290.92579102 372.72293945 291.91579102 372.1712207 292.93579102 371.6027832 C305.43259655 364.14730263 316.03426133 354.27102372 320.93579102 340.2746582 C321.22164253 337.59009678 321.22164253 337.59009678 321.1628418 334.75 C321.16269073 333.66925705 321.16253967 332.5885141 321.16238403 331.47502136 C321.15206146 330.31964371 321.14173889 329.16426605 321.13110352 327.97387695 C321.12827362 326.78236526 321.12544373 325.59085358 321.12252808 324.36323547 C321.11134535 320.56277365 321.08624381 316.76254864 321.06079102 312.9621582 C321.05075877 310.38338557 321.04163335 307.80460923 321.03344727 305.22583008 C321.01141222 298.90869217 320.97795333 292.59169211 320.93579102 286.2746582 C320.45776031 286.68516922 319.97972961 287.09568024 319.48721313 287.51863098 C318.85874481 288.05791733 318.23027649 288.59720367 317.58276367 289.15283203 C316.64915512 289.95422356 316.64915512 289.95422356 315.69668579 290.77180481 C290.92276071 311.91536086 258.66263517 320.8794714 227.24829102 326.5246582 C226.42039062 326.67572021 225.59249023 326.82678223 224.73950195 326.98242188 C207.15364969 329.94965789 189.51144782 330.62429033 171.70849609 330.59033203 C168.26896244 330.58717716 164.8302972 330.61072707 161.39086914 330.63598633 C112.33145613 330.7765289 56.49362761 321.1257606 18.23022461 288.11669922 C17.61021576 287.58262955 16.99020691 287.04855988 16.35140991 286.49830627 C15.88425568 286.09450241 15.41710144 285.69069855 14.93579102 285.2746582 Z M14.93579102 368.2746582 C14.8847844 375.06987273 14.84992944 381.86503726 14.82592773 388.66040039 C14.81591417 390.96868739 14.80229939 393.27696185 14.78491211 395.58520508 C14.76045874 398.91661692 14.74926113 402.24786 14.74047852 405.5793457 C14.73015594 406.59954803 14.71983337 407.61975037 14.709198 408.67086792 C14.70696631 423.15259398 18.32659613 433.17656941 28.30688477 443.7980957 C65.6254452 478.95406497 130.55153172 484.29037205 178.88964844 483.18945312 C216.83567869 481.83157571 256.48398895 474.97725663 289.93579102 456.2746582 C290.92579102 455.72293945 291.91579102 455.1712207 292.93579102 454.6027832 C304.84760504 447.49630324 317.32976493 437.17202916 320.93579102 423.2746582 C321.21074863 419.14070248 321.16827093 415.01768638 321.13110352 410.8762207 C321.12827362 409.68612396 321.12544373 408.49602722 321.12252808 407.26986694 C321.11135919 403.47969384 321.08626019 399.68975954 321.06079102 395.8996582 C321.05075698 393.32544287 321.04163187 390.75122383 321.03344727 388.17700195 C321.01143059 381.87613962 320.97798551 375.57541598 320.93579102 369.2746582 C320.46061539 369.68394562 319.98543976 370.09323303 319.49586487 370.5149231 C318.86961716 371.05325775 318.24336945 371.59159241 317.59814453 372.14624023 C316.9785939 372.67927765 316.35904327 373.21231506 315.72071838 373.76150513 C292.72864658 393.25278796 263.29340684 403.26257778 234.12329102 409.0246582 C233.19057373 409.21116943 232.25785645 409.39768066 231.296875 409.58984375 C211.43531581 413.2622963 191.51017746 414.77900548 171.33129883 414.66577148 C167.93603386 414.64965936 164.54195854 414.66576208 161.14672852 414.68481445 C130.09408129 414.71512375 99.40862815 410.14831627 69.93579102 400.2746582 C69.24227539 400.04697754 68.54875977 399.81929688 67.83422852 399.5847168 C51.50642681 394.15130981 36.2261459 386.24516321 22.93579102 375.2746582 C22.2796582 374.74614258 21.62352539 374.21762695 20.94750977 373.6730957 C18.84470882 371.95672834 16.85572294 370.19459013 14.93579102 368.2746582 Z " fill="#A75F99" transform="translate(175.064208984375,6.725341796875)"/>
<path d="M0 0 C3.25695019 2.29136025 3.6290409 4.90442168 4.375 8.6875 C7.2206437 20.81432009 14.82108736 28.54751744 25.1875 35.125 C53.18066226 51.56135215 85.55447129 57.70122885 117.69604492 58.57128906 C131.01930276 59.01930276 131.01930276 59.01930276 135 63 C135.5412844 68.68348624 135.5412844 68.68348624 135 71 C131.81279017 74.06772461 129.45555259 74.38431343 125.109375 74.3984375 C123.93737549 74.40472168 122.76537598 74.41100586 121.55786133 74.41748047 C120.30126709 74.40346191 119.04467285 74.38944336 117.75 74.375 C116.44893311 74.36484863 115.14786621 74.35469727 113.80737305 74.34423828 C74.85298974 73.73063361 29.85103982 64.8585297 0.6875 37.125 C-6.97190987 29.20987057 -12.24458789 20.54098292 -12.375 9.3125 C-12.40335938 8.19488281 -12.43171875 7.07726562 -12.4609375 5.92578125 C-12 3 -12 3 -10.23046875 1.12890625 C-6.56206649 -0.72778071 -4.09058262 -0.3895793 0 0 Z " fill="#96529E" transform="translate(216,154)"/>
<path d="M0 0 C5.04885564 3.02931338 8.65629405 7.96888215 10.5 13.5 C11.16215149 20.94447461 11.66174434 27.71431415 6.99609375 33.88671875 C2.81431683 38.39604999 -1.38497149 42.17008319 -7.671875 42.8359375 C-21.14765692 42.98305302 -21.14765692 42.98305302 -26.5 38.5 C-32.90028083 31.50892402 -34.0414718 25.63815324 -33.84765625 16.25 C-33.24769744 9.77853423 -30.57373925 6.47005229 -26 2.125 C-18.57588544 -2.70067446 -8.21058482 -3.58915313 0 0 Z M-17.4375 14.625 C-19.02990283 17.43512264 -18.95319325 19.32764724 -18.5 22.5 C-17 25 -17 25 -14.5 26.5 C-11.32764724 26.95319325 -9.43512264 27.02990283 -6.625 25.4375 C-4.85726726 22.3930714 -5.13176084 19.9368988 -5.5 16.5 C-6.41666667 14.41666667 -6.41666667 14.41666667 -8.5 13.5 C-13.1649851 12.99451405 -13.1649851 12.99451405 -17.4375 14.625 Z " fill="#C84A85" transform="translate(415.5,351.5)"/>
<path d="M0 0 C5.04885564 3.02931338 8.65629405 7.96888215 10.5 13.5 C11.16215149 20.94447461 11.66174434 27.71431415 6.99609375 33.88671875 C2.8080144 38.40284609 -1.39208093 42.13638878 -7.671875 42.87109375 C-15.30230909 43.01270661 -20.76007998 42.82297668 -26.5 37.5 C-31.69181067 32.28149621 -33.79448215 28.12543521 -33.875 20.75 C-33.76394134 14.80219168 -33.39718897 10.15287659 -29.5 5.5 C-21.46726934 -1.85390835 -10.41539382 -4.59086291 0 0 Z M-17.4375 14.625 C-19.02990283 17.43512264 -18.95319325 19.32764724 -18.5 22.5 C-17 25 -17 25 -14.5 26.5 C-11.32764724 26.95319325 -9.43512264 27.02990283 -6.625 25.4375 C-4.85726726 22.3930714 -5.13176084 19.9368988 -5.5 16.5 C-6.41666667 14.41666667 -6.41666667 14.41666667 -8.5 13.5 C-13.1649851 12.99451405 -13.1649851 12.99451405 -17.4375 14.625 Z " fill="#C84A85" transform="translate(294.5,351.5)"/>
<path d="M0 0 C5.48245819 3.26012332 10.10389033 8.11712692 12.48046875 14.08984375 C13.21403545 21.01607817 13.57332115 28.26842308 9.890625 34.40625 C6.52523757 38.42420563 2.44450491 41.43516503 -2.51953125 43.08984375 C-18.28498721 44.31181683 -18.28498721 44.31181683 -24.51953125 39.08984375 C-30.78556864 32.24540291 -31.93933054 26.83425792 -31.86328125 17.61328125 C-31.235367 11.1771602 -28.1808631 7.3857589 -23.45703125 3.21484375 C-16.53697048 -1.79115766 -8.23755364 -2.97573643 0 0 Z M-14.89453125 15.71484375 C-16.98332966 18.76770296 -17.06021687 20.45952599 -16.51953125 24.08984375 C-15.5835581 26.10935437 -15.5835581 26.10935437 -13.51953125 27.08984375 C-10.11016005 27.45513352 -7.63929301 27.70390665 -4.58203125 26.02734375 C-2.90546835 22.97008199 -3.15424148 20.49921495 -3.51953125 17.08984375 C-4.50002063 15.0258169 -4.50002063 15.0258169 -6.51953125 14.08984375 C-10.14984901 13.54915813 -11.84167204 13.62604534 -14.89453125 15.71484375 Z " fill="#AF3C8E" transform="translate(413.51953125,265.91015625)"/>
<path d="M0 0 C5.04885564 3.02931338 8.65629405 7.96888215 10.5 13.5 C11.16215149 20.94447461 11.66174434 27.71431415 6.99609375 33.88671875 C2.8080144 38.40284609 -1.39208093 42.13638878 -7.671875 42.87109375 C-19.55678757 43.09166527 -19.55678757 43.09166527 -24.81640625 39.1328125 C-30.66676869 33.45891111 -33.62910177 28.54611525 -33.8125 20.3125 C-33.74129802 14.48688345 -33.2584036 10.08087973 -29.5 5.5 C-21.47685652 -1.8612745 -10.40713647 -4.58722326 0 0 Z M-17.4375 14.625 C-19.02990283 17.43512264 -18.95319325 19.32764724 -18.5 22.5 C-17 25 -17 25 -14.5 26.5 C-11.32625484 26.95339217 -9.44344924 27.08558918 -6.6875 25.375 C-4.98085954 22.68030454 -4.56501759 20.68586196 -4.5 17.5 C-5.87283423 14.95997987 -5.87283423 14.95997987 -8.5 13.5 C-11.98856031 13.07158031 -14.34902396 12.83169133 -17.4375 14.625 Z " fill="#E2597B" transform="translate(354.5,437.5)"/>
<path d="M0 0 C5.48245819 3.26012332 10.10389033 8.11712692 12.48046875 14.08984375 C13.21403545 21.01607817 13.57332115 28.26842308 9.890625 34.40625 C5.78733968 39.30518621 0.84241381 42.79081433 -5.59375 43.36328125 C-13.2769627 43.57924182 -18.73725478 43.45210014 -24.51953125 38.08984375 C-29.69450817 32.88826027 -31.82059569 28.69131284 -31.95703125 21.33984375 C-31.84088279 13.88311284 -30.21413025 9.76554455 -24.9921875 4.5703125 C-17.95448689 -1.64363689 -8.99931987 -3.2509171 0 0 Z M-14.89453125 15.71484375 C-16.98332966 18.76770296 -17.06021687 20.45952599 -16.51953125 24.08984375 C-15.5835581 26.10935437 -15.5835581 26.10935437 -13.51953125 27.08984375 C-10.11016005 27.45513352 -7.63929301 27.70390665 -4.58203125 26.02734375 C-2.90546835 22.97008199 -3.15424148 20.49921495 -3.51953125 17.08984375 C-4.50002063 15.0258169 -4.50002063 15.0258169 -6.51953125 14.08984375 C-10.14984901 13.54915813 -11.84167204 13.62604534 -14.89453125 15.71484375 Z " fill="#AF3C8E" transform="translate(292.51953125,265.91015625)"/>
<path d="M0 0 C5.48754632 3.26314896 10.09324715 8.11657747 12.48046875 14.08984375 C13.34464973 21.47631696 13.59877696 28.36162156 8.9765625 34.4765625 C4.79478558 38.98589374 0.59549726 42.75992694 -5.69140625 43.42578125 C-19.16718817 43.57289677 -19.16718817 43.57289677 -24.51953125 39.08984375 C-30.78556864 32.24540291 -31.93933054 26.83425792 -31.86328125 17.61328125 C-31.235367 11.1771602 -28.1808631 7.3857589 -23.45703125 3.21484375 C-16.53697048 -1.79115766 -8.23755364 -2.97573643 0 0 Z M-15.45703125 15.15234375 C-17.13359415 18.20960551 -16.88482102 20.68047255 -16.51953125 24.08984375 C-15.60286458 26.17317708 -15.60286458 26.17317708 -13.51953125 27.08984375 C-10.11016005 27.45513352 -7.63929301 27.70390665 -4.58203125 26.02734375 C-2.90546835 22.97008199 -3.15424148 20.49921495 -3.51953125 17.08984375 C-4.43619792 15.00651042 -4.43619792 15.00651042 -6.51953125 14.08984375 C-9.92890245 13.72455398 -12.39976949 13.47578085 -15.45703125 15.15234375 Z " fill="#E0597C" transform="translate(413.51953125,431.91015625)"/>
<path d="M0 0 C5.48754632 3.26314896 10.09324715 8.11657747 12.48046875 14.08984375 C13.34464973 21.47631696 13.59877696 28.36162156 8.9765625 34.4765625 C4.78848315 38.99268984 0.58838782 42.72623253 -5.69140625 43.4609375 C-13.32184034 43.60255036 -18.77961123 43.41282043 -24.51953125 38.08984375 C-29.69450817 32.88826027 -31.82059569 28.69131284 -31.95703125 21.33984375 C-31.84088279 13.88311284 -30.21413025 9.76554455 -24.9921875 4.5703125 C-17.95448689 -1.64363689 -8.99931987 -3.2509171 0 0 Z M-14.95703125 15.65234375 C-16.8539466 18.11607491 -16.8539466 18.11607491 -16.45703125 21.71484375 C-15.84444675 25.34501299 -15.84444675 25.34501299 -12.51953125 27.08984375 C-8.38776861 27.53507915 -8.38776861 27.53507915 -4.70703125 25.90234375 C-3.13091808 23.49669733 -2.58845544 21.98465983 -2.51953125 19.08984375 C-3.94803735 16.15833245 -3.94803735 16.15833245 -6.51953125 14.08984375 C-10.19744116 13.40023564 -11.80461736 13.63156562 -14.95703125 15.65234375 Z " fill="#CA4B85" transform="translate(352.51953125,354.91015625)"/>
<path d="M0 0 C5.48754632 3.26314896 10.09324715 8.11657747 12.48046875 14.08984375 C13.34464973 21.47631696 13.59877696 28.36162156 8.9765625 34.4765625 C4.78848315 38.99268984 0.58838782 42.72623253 -5.69140625 43.4609375 C-13.32184034 43.60255036 -18.77961123 43.41282043 -24.51953125 38.08984375 C-29.69450817 32.88826027 -31.82059569 28.69131284 -31.95703125 21.33984375 C-31.84088279 13.88311284 -30.21413025 9.76554455 -24.9921875 4.5703125 C-17.95448689 -1.64363689 -8.99931987 -3.2509171 0 0 Z M-14.89453125 15.71484375 C-16.98332966 18.76770296 -17.06021687 20.45952599 -16.51953125 24.08984375 C-15.5835581 26.10935437 -15.5835581 26.10935437 -13.51953125 27.08984375 C-8.85700958 27.62519818 -8.85700958 27.62519818 -4.64453125 25.90234375 C-3.14592396 23.4879209 -2.58770299 21.95305669 -2.51953125 19.08984375 C-3.94803735 16.15833245 -3.94803735 16.15833245 -6.51953125 14.08984375 C-10.20940164 13.39799305 -11.7890652 13.59005119 -14.89453125 15.71484375 Z " fill="#B13D8D" transform="translate(352.51953125,270.91015625)"/>
<path d="M0 0 C5.48754632 3.26314896 10.09324715 8.11657747 12.48046875 14.08984375 C13.34464973 21.47631696 13.59877696 28.36162156 8.9765625 34.4765625 C4.78848315 38.99268984 0.58838782 42.72623253 -5.69140625 43.4609375 C-13.32184034 43.60255036 -18.77961123 43.41282043 -24.51953125 38.08984375 C-29.69450817 32.88826027 -31.82059569 28.69131284 -31.95703125 21.33984375 C-31.84088279 13.88311284 -30.21413025 9.76554455 -24.9921875 4.5703125 C-17.95448689 -1.64363689 -8.99931987 -3.2509171 0 0 Z M-15.45703125 15.15234375 C-17.13359415 18.20960551 -16.88482102 20.68047255 -16.51953125 24.08984375 C-15.60286458 26.17317708 -15.60286458 26.17317708 -13.51953125 27.08984375 C-10.11016005 27.45513352 -7.63929301 27.70390665 -4.58203125 26.02734375 C-2.90546835 22.97008199 -3.15424148 20.49921495 -3.51953125 17.08984375 C-4.43619792 15.00651042 -4.43619792 15.00651042 -6.51953125 14.08984375 C-9.92890245 13.72455398 -12.39976949 13.47578085 -15.45703125 15.15234375 Z " fill="#E0597C" transform="translate(292.51953125,431.91015625)"/>
</svg>
