<?xml version="1.0" encoding="UTF-8"?>
<svg version="1.1" xmlns="http://www.w3.org/2000/svg" width="1280" height="1280">
<path d="M0 0 C2.24379646 -0.00072023 4.48758713 -0.00287253 6.73138213 -0.00549722 C14.61800617 -0.01470053 22.50461352 -0.01883881 30.39124274 -0.01804566 C37.64661312 -0.01744756 44.90190853 -0.02795974 52.15726 -0.04378933 C58.46379575 -0.05703929 64.77030754 -0.06222233 71.07685703 -0.06159025 C74.80886447 -0.06134014 78.54080522 -0.06391128 82.2727983 -0.0747683 C134.09806956 -0.21484351 181.637007 7.94480187 230.79138923 24.16725707 C232.54660895 24.74080932 232.54660895 24.74080932 234.33728766 25.32594848 C262.93724766 34.72240785 290.67042381 46.10932468 317.79138923 59.16725707 C319.40303962 59.94021117 319.40303962 59.94021117 321.0472486 60.72878051 C336.11006106 67.9920061 350.66762775 75.89536164 365.00427985 84.50026488 C367.64747801 86.08118263 370.30256012 87.63946931 372.96326423 89.19069457 C385.63458779 96.61742922 397.77019942 104.73404729 409.79138923 113.16725707 C411.01052009 114.02069701 411.01052009 114.02069701 412.25427985 114.89137816 C422.5431599 122.12375565 432.4141769 129.75434948 442.09900641 137.77467895 C444.34693455 139.62438785 446.63022306 141.4276326 448.91638923 143.22975707 C465.68850768 156.64185179 481.20615808 171.40166856 496.35584235 186.6013391 C498.31497578 188.56590908 500.27950567 190.52497155 502.24451423 192.48366332 C508.30483921 198.54045481 514.28755503 204.59227136 519.79138923 211.16725707 C520.74036238 212.26235016 521.6908565 213.35612728 522.64295173 214.44850707 C535.37838858 229.19444368 547.43834794 244.32814854 558.79138923 260.16725707 C559.77292975 261.53575805 559.77292975 261.53575805 560.77429938 262.93190551 C569.58179406 275.26788822 577.85393037 287.78391321 585.46375251 300.89284301 C586.69907471 303.00911031 587.95612521 305.11003597 589.22498298 307.20631957 C628.47634488 372.30830126 655.00908652 445.43885946 669.22888923 520.04225707 C669.45157477 521.19596801 669.67426032 522.34967895 669.90369391 523.53835082 C674.11833116 546.78704316 675.25366638 569.8136563 675.19436574 593.37270856 C675.18659623 597.44742863 675.1938616 601.52213182 675.19852424 605.59685302 C675.20393407 612.43285878 675.19691886 619.26876633 675.18250251 626.10475707 C675.16619851 633.92442326 675.17146771 641.74385435 675.18798172 649.56351483 C675.20175061 656.3644404 675.20344198 663.16529665 675.19566572 669.9662317 C675.19107072 673.98983606 675.19013034 678.01333131 675.20027518 682.03692794 C675.25375566 706.57199687 674.16198173 730.78881476 669.22888923 754.91725707 C668.97840827 756.16925902 668.72792731 757.42126098 668.46985602 758.71120238 C662.4267004 788.36284352 654.42302809 817.49037312 644.79138923 846.16725707 C644.22170417 847.86809447 644.22170417 847.86809447 643.64051032 849.60329223 C615.54093019 932.51408748 568.96192482 1010.13653674 509.46717048 1074.27272582 C507.76281082 1076.11641999 506.07119734 1077.9720392 504.39685798 1079.84303832 C498.17641092 1086.76879591 491.67623589 1093.38861926 485.10388923 1099.97975707 C484.21266364 1100.87557494 483.32143806 1101.77139281 482.40320563 1102.69435668 C477.90850889 1107.17859675 473.35846174 1111.52740437 468.54065681 1115.66310668 C466.13388385 1117.7326291 463.81028441 1119.88852653 461.47888923 1122.04225707 C457.04507611 1126.0812786 452.51084339 1129.94232585 447.84217048 1133.70631957 C445.61850249 1135.50005943 443.40940444 1137.3059809 441.20935798 1139.12819457 C431.02015596 1147.54030042 420.52972685 1155.47030934 409.79138923 1163.16725707 C408.42288825 1164.1487976 408.42288825 1164.1487976 407.02674079 1165.15016723 C394.69075808 1173.9576619 382.17473309 1182.22979821 369.06580329 1189.83962035 C366.94953599 1191.07494255 364.84861033 1192.33199305 362.75232673 1193.60085082 C292.90573695 1235.72326494 200.9739246 1271.37525955 106.1409986 1274.45778441 C104.56791093 1274.46379352 102.99482616 1274.47060435 101.42174506 1274.47813964 C97.20370419 1274.49557918 92.9857448 1274.50048595 88.76767135 1274.50177121 C86.11093183 1274.50320766 83.45421204 1274.50750524 80.79747748 1274.51276565 C71.46682179 1274.53120328 62.13622269 1274.53944543 52.80554938 1274.53786254 C44.21134112 1274.53666748 35.61738654 1274.55766053 27.02324224 1274.58934987 C19.56507315 1274.61583538 12.10698514 1274.62621637 4.64876962 1274.62495172 C0.23020981 1274.6244508 -4.18812482 1274.6296327 -8.60663629 1274.65130782 C-37.69662334 1274.78410716 -66.39123706 1273.08546926 -94.83361077 1266.47975707 C-96.37709774 1266.13284843 -97.92063785 1265.78617611 -99.46422601 1265.43971801 C-181.07139854 1246.88220616 -258.588445 1212.42977291 -367.51378655 1132.15871215 C-370.9689835 1129.20384636 -374.47576908 1126.32677389 -378.02111077 1123.47975707 C-381.94978499 1120.28557412 -385.5795035 1116.95671439 -389.06407952 1113.28444457 C-390.8684876 1111.50304352 -392.70337447 1109.87692283 -394.63048577 1108.23366332 C-400.18739982 1103.40770262 -405.34400127 1098.18135565 -410.53600335 1092.97023559 C-412.26755777 1091.23332107 -414.00439436 1089.50181818 -415.7418139 1087.7707727 C-421.44628033 1082.06972878 -426.97679935 1076.31021137 -432.20861077 1070.16725707 C-433.82828894 1068.39155486 -435.45272795 1066.620174 -437.08361077 1064.85475707 C-441.121404 1060.42229233 -444.98168512 1055.8898353 -448.74376702 1051.22194457 C-450.54946252 1048.98414127 -452.3684039 1046.76243808 -454.20470452 1044.55006957 C-461.7422046 1035.43441975 -468.79635696 1026.05310127 -475.62657952 1016.39772582 C-477.16424512 1014.22980716 -478.71568728 1012.07245826 -480.27111077 1009.91725707 C-487.68616598 999.59919453 -494.58223755 989.00734566 -501.20861077 978.16725707 C-501.97576409 976.91332152 -501.97576409 976.91332152 -502.75841546 975.63405395 C-547.44473503 902.18700658 -578.20297581 820.16774386 -592.5242846 639.2509973 C-592.51966779 635.25283553 -592.52654399 631.2549791 -592.54479241 627.25685668 C-592.95907451 535.53119905 -575.81508767 448.59557984 -537.20861077 365.16725707 C-536.74132562 364.15437621 -536.27404046 363.14149535 -535.79259515 362.09792113 C-515.11694861 317.54316184 -489.47383006 275.13690767 -458.20861077 237.16725707 C-457.52927484 236.32678832 -456.8499389 235.48631957 -456.15001702 234.62038207 C-446.76468895 223.04347115 -437.04190569 211.80403119 -426.85509515 200.9270227 C-425.06746328 199.01639837 -423.2863843 197.09978317 -421.50548577 195.18288207 C-402.90631268 175.20188065 -402.90631268 175.20188065 -393.03673577 166.77663207 C-391.17923089 165.14139273 -389.44255068 163.43243914 -387.70861077 161.66725707 C-384.04564451 157.95512348 -380.16626476 154.56044825 -376.20861077 151.16725707 C-375.16529697 150.26010168 -374.12235698 149.35251626 -373.07970452 148.44460082 C-365.57946621 141.93598826 -357.921294 135.69166543 -350.0645678 129.61989379 C-348.1855862 128.149236 -346.3344472 126.64866233 -344.48595452 125.13991332 C-323.60477747 108.26509785 -300.52496316 93.43861149 -277.20861077 80.16725707 C-276.45128655 79.73558227 -275.69396234 79.30390746 -274.9136889 78.8591516 C-270.40370968 76.30064229 -265.86926408 73.79094588 -261.31310296 71.31569457 C-259.3565918 70.24801145 -257.41093108 69.16284407 -255.46642327 68.07350707 C-179.68604034 26.17674041 -90.82933246 0.06231298 0 0 Z " fill="#FDFDFD" transform="translate(605.2086107730865,5.832742929458618)"/>
<path d="M0 0 C3.06888461 0.01075429 6.13718727 0.00001829 9.20605469 -0.01269531 C37.64526791 -0.0357331 58.97896265 6.25411945 82.31542969 22.57324219 C82.90469238 22.98155273 83.49395508 23.38986328 84.10107422 23.81054688 C87.18376576 26.03902065 88.89879406 27.8149195 90.44042969 31.26074219 C82.1797797 31.83003826 75.10044587 30.13808578 67.19042969 27.88574219 C51.92344868 23.5837063 37.47810876 21.87296357 21.69042969 21.94824219 C20.49938126 21.95097641 20.49938126 21.95097641 19.28427124 21.95376587 C7.74037597 21.99839864 -3.32045678 22.41024238 -14.55957031 25.26074219 C-15.20635742 25.4110791 -15.85314453 25.56141602 -16.51953125 25.71630859 C-49.63203429 33.4975044 -80.12464763 53.05391787 -104.55957031 76.26074219 C-105.80409065 77.32965536 -107.05386555 78.39249041 -108.30957031 79.44824219 C-117.76904089 87.69846085 -126.7057518 96.75191216 -134.46972656 106.61230469 C-136.68026256 109.41369424 -138.98884884 112.11263951 -141.30957031 114.82324219 C-183.99060176 166.08006048 -221.95092218 236.50572811 -217.31347656 304.88964844 C-216.26380417 313.18963528 -213.57080963 321.77326342 -207.10644531 327.39355469 C-204.33027515 329.22582699 -201.53378348 330.7736356 -198.55957031 332.26074219 C-197.75003906 332.69644531 -196.94050781 333.13214844 -196.10644531 333.58105469 C-182.02535276 340.62160097 -164.36042256 345.85700076 -148.55957031 345.26074219 C-148.55957031 344.60074219 -148.55957031 343.94074219 -148.55957031 343.26074219 C-149.11306152 343.02476318 -149.66655273 342.78878418 -150.23681641 342.5456543 C-181.39844776 329.16333873 -181.39844776 329.16333873 -189.05957031 313.94824219 C-194.80690686 297.24989951 -189.34346021 280.00802435 -181.99316406 264.88964844 C-177.14913731 255.24860772 -171.89178534 246.00466387 -165.55957031 237.26074219 C-164.94927979 236.40802734 -164.94927979 236.40802734 -164.32666016 235.53808594 C-154.5208693 221.84848981 -144.11794175 208.73259475 -133.08007812 196.01953125 C-131.55100087 194.25082981 -130.0339625 192.47251042 -128.52050781 190.69042969 C-122.81130194 183.97295929 -116.98715569 177.39217829 -111.00488281 170.91699219 C-104.14986179 163.47064347 -97.49033275 155.78030232 -91.07128906 147.95385742 C-89.55957031 146.26074219 -89.55957031 146.26074219 -87.81347656 144.88208008 C-85.72851635 143.0802589 -84.68111409 141.80068619 -83.55957031 139.26074219 C-83.25355432 133.37434231 -83.9671492 127.66027981 -84.68457031 121.82324219 C-85.03354447 118.70089283 -85.36559882 115.57689252 -85.69238281 112.45214844 C-85.77329163 111.68625397 -85.85420044 110.9203595 -85.93756104 110.1312561 C-86.46520381 104.89134895 -86.79201392 99.67943623 -86.86425781 94.41308594 C-86.88214355 93.15359131 -86.9000293 91.89409668 -86.91845703 90.59643555 C-86.40676241 85.84046031 -84.72083369 83.32784907 -81.24707031 80.13574219 C-76.09768602 76.54314849 -71.84155137 74.75931211 -65.55957031 74.26074219 C-64.63273438 74.1846875 -63.70589844 74.10863281 -62.75097656 74.03027344 C-47.6824363 73.34785485 -34.21907222 79.73049353 -22.18457031 88.38574219 C3.09863119 105.51018008 44.28423133 97.66447441 72.44042969 92.26074219 C76.8810955 91.30771712 81.28739518 90.24871983 85.69042969 89.13574219 C104.88306978 84.30852095 123.2560028 82.98003759 143.00292969 82.88574219 C144.4494693 82.87368744 144.4494693 82.87368744 145.92523193 82.86138916 C148.70277715 82.84382286 151.47928426 82.84901277 154.25683594 82.86230469 C155.09345261 82.85638306 155.93006927 82.85046143 156.79203796 82.84436035 C161.74988869 82.90297871 165.12340488 83.56119437 169.44042969 86.26074219 C171.06542969 87.94824219 171.06542969 87.94824219 172.44042969 90.26074219 C173.13652344 91.32421875 173.83261719 92.38769531 174.54980469 93.48339844 C177.35318167 99.13154711 176.51427156 104.80024975 176.16952515 110.9387207 C175.34503324 127.350243 179.12995266 139.79638477 185.23974609 155.05419922 C192.76832872 175.16001544 193.41615647 198.05308933 195.44042969 219.26074219 C196.10042969 218.27074219 196.76042969 217.28074219 197.44042969 216.26074219 C197.5959884 235.3173487 196.72750085 254.25102559 195.44042969 273.26074219 C195.35986328 274.46085937 195.27929688 275.66097656 195.19628906 276.89746094 C193.26256958 302.71183001 183.24054249 325.34126849 172.42759705 348.48408508 C149.3162973 397.97146644 145.97505708 427.21999179 164.44042969 478.26074219 C165.71554238 481.7254258 167.01191848 485.18166459 168.31542969 488.63574219 C190.94351664 548.8382922 196.5820791 615.68831767 196.62792969 679.44824219 C196.62969711 681.34192535 196.62969711 681.34192535 196.63150024 683.27386475 C196.62930481 704.03695563 196.40677899 724.72435261 193.82080078 745.34814453 C193.56428427 747.39488147 193.31977002 749.44278463 193.07714844 751.49121094 C192.56552116 755.75238289 192.01209886 760.00723883 191.44042969 764.26074219 C191.28782684 765.40431183 191.28782684 765.40431183 191.13214111 766.57098389 C189.3975313 779.36081392 186.92884196 791.92522261 184.22454834 804.54165649 C171.03283148 859.22881696 171.03283148 859.22881696 179.44042969 913.26074219 C179.77042969 914.25074219 180.10042969 915.24074219 180.44042969 916.26074219 C181.02695312 916.50308594 181.61347656 916.74542969 182.21777344 916.99511719 C185.64045428 918.94406023 187.10802384 922.18107627 189.00292969 925.51074219 C189.38900391 926.166875 189.77507813 926.82300781 190.17285156 927.49902344 C197.65947606 940.32959284 197.65947606 940.32959284 196.44042969 947.26074219 C191.91185112 962.0138448 182.95755157 971.13467658 169.54296875 978.27001953 C159.92424437 983.08907313 149.97632462 986.15924882 139.44042969 988.26074219 C138.55323242 988.44266113 137.66603516 988.62458008 136.75195312 988.81201172 C105.3379722 995.10864666 80.90949687 990.08725342 50.89819336 980.73974609 C26.2365398 973.06669933 7.59285749 973.48040305 -15.62207031 985.26074219 C-16.6156958 985.78313477 -17.60932129 986.30552734 -18.63305664 986.84375 C-36.00236357 995.88707228 -52.82717387 997.58296947 -72.04003906 997.52636719 C-73.7035579 997.52772225 -75.36707635 997.52966966 -77.03059387 997.53216553 C-80.50912261 997.53509458 -83.98754789 997.53090296 -87.46606445 997.52148438 C-91.80513553 997.51027644 -96.14395613 997.51673578 -100.48301792 997.528368 C-118.130763 997.56838674 -135.72622805 997.32656628 -153.34863281 996.33105469 C-154.45883569 996.26880581 -154.45883569 996.26880581 -155.5914669 996.20529938 C-167.6760446 995.51064456 -179.64039437 994.40152771 -191.55957031 992.26074219 C-192.6155542 992.08019287 -192.6155542 992.08019287 -193.69287109 991.89599609 C-213.82094733 988.31926321 -233.44472975 979.54205376 -251.55957031 970.26074219 C-252.3565332 969.85726562 -253.15349609 969.45378906 -253.97460938 969.03808594 C-265.66948782 963.06357693 -276.77375467 956.3601395 -287.68457031 949.07324219 C-288.52021515 948.515914 -288.52021515 948.515914 -289.3727417 947.94732666 C-297.29991823 942.64053948 -304.98201206 937.05391665 -312.55957031 931.26074219 C-313.24970215 930.73456299 -313.93983398 930.20838379 -314.65087891 929.66625977 C-321.35212717 924.52571378 -327.87453572 919.26073778 -334.08300781 913.52636719 C-336.15568784 911.63022458 -338.2532427 909.77650597 -340.37207031 907.93261719 C-361.94903546 889.09614284 -381.19900854 868.02311167 -398.55957031 845.26074219 C-399.12401855 844.52227051 -399.6884668 843.78379883 -400.27001953 843.02294922 C-413.33989975 825.87861024 -425.74245074 808.29009904 -437.55957031 790.26074219 C-437.96675293 789.64295898 -438.37393555 789.02517578 -438.79345703 788.38867188 C-451.55388905 769.00861149 -463.6846793 749.2158066 -475.03369141 728.97705078 C-476.66500061 726.07305938 -478.30910216 723.17652978 -479.95410156 720.28027344 C-487.64580562 706.69458003 -494.96666273 692.94924184 -502.10595703 679.06640625 C-503.39608598 676.57628837 -504.70571808 674.09880245 -506.03222656 671.62792969 C-520.23983597 645.16086205 -532.66781719 617.82590215 -544.66760254 590.30316162 C-545.50825444 588.37824478 -546.35279515 586.45509956 -547.19921875 584.53271484 C-568.96570332 535.03018034 -587.62415849 483.82269766 -601.90185547 431.65039062 C-602.61170618 429.07131907 -603.34087306 426.49812356 -604.07128906 423.92480469 C-615.88096528 382.00955564 -619.58922235 340.55616126 -621.43389893 297.18591309 C-621.54341891 294.63668775 -621.65861708 292.08784893 -621.77783203 289.5390625 C-622.19892185 280.44805085 -622.44090256 271.36053293 -622.55957031 262.26074219 C-622.57288391 261.28282715 -622.58619751 260.30491211 -622.59991455 259.29736328 C-622.691039 252.2975286 -622.75231042 245.29797033 -622.78872681 238.29763794 C-622.80235263 235.94463936 -622.82053255 233.59166159 -622.84384155 231.23873901 C-623.03237752 210.58595426 -621.71976068 190.53784939 -615.87207031 170.63574219 C-615.52249268 169.41628906 -615.17291504 168.19683594 -614.81274414 166.94042969 C-608.07678871 143.94063746 -599.24687066 120.74128487 -583.55957031 102.26074219 C-582.84285156 101.40609375 -582.12613281 100.55144531 -581.38769531 99.67089844 C-564.41339303 80.1384123 -542.82622351 65.3841899 -517.55957031 59.26074219 C-516.48449219 58.97457031 -515.40941406 58.68839844 -514.30175781 58.39355469 C-486.98181808 51.20409686 -455.86537835 54.40238769 -429.55957031 64.26074219 C-428.79902344 64.53901855 -428.03847656 64.81729492 -427.25488281 65.10400391 C-390.83409441 78.55089643 -368.24029019 97.13909456 -351.55957031 132.26074219 C-348.61264688 138.8204429 -346.03023997 145.50932607 -343.55957031 152.26074219 C-343.2648584 153.06108887 -342.97014648 153.86143555 -342.66650391 154.68603516 C-331.57451417 185.24307651 -325.79962566 215.92488257 -323.80908203 248.30493164 C-323.63270958 250.39430662 -323.37463554 252.47753712 -323.05957031 254.55053711 C-322.47609011 258.88019954 -322.27762315 263.14792288 -322.12988281 267.51074219 C-322.0950177 268.46509659 -322.06015259 269.41945099 -322.02423096 270.40272522 C-321.90636732 273.68858497 -321.79514483 276.97462946 -321.68457031 280.26074219 C-321.64454895 281.41395966 -321.60452759 282.56717712 -321.56329346 283.75534058 C-319.92268792 331.24686651 -318.80509581 378.7576258 -317.55957031 426.26074219 C-317.26595108 425.56149628 -316.97233185 424.86225037 -316.66981506 424.14181519 C-310.93004537 410.48656827 -305.1624982 396.85485346 -298.99707031 383.38574219 C-298.68152191 382.69427094 -298.36597351 382.00279968 -298.04086304 381.29037476 C-289.78512626 363.21535964 -280.78091411 345.66435059 -271.20410156 328.25439453 C-246.47843396 288.35824509 -246.47843396 288.35824509 -243.87207031 243.82324219 C-247.23307976 232.32689347 -251.6265173 221.18824023 -255.97363281 210.03808594 C-261.39643209 195.9631128 -264.95130466 183.29906855 -264.87207031 168.13574219 C-264.86860596 167.04986816 -264.8651416 165.96399414 -264.86157227 164.84521484 C-264.70672641 153.27027311 -263.7077869 141.79177763 -258.55957031 131.26074219 C-253.80792616 127.50944417 -248.90127229 127.11550501 -243.01000977 127.26171875 C-241.92150223 127.28373352 -240.83299469 127.30574829 -239.71150208 127.32843018 C-238.54374741 127.35249939 -237.37599274 127.3765686 -236.17285156 127.40136719 C-232.38388379 127.43278282 -228.59495468 127.45269922 -224.8059082 127.47216797 C-222.19200092 127.49779928 -219.57821244 127.54486129 -216.96508789 127.61376953 C-201.9867533 128.81963128 -201.9867533 128.81963128 -188.73461914 123.51074219 C-186.0606664 120.40946118 -184.35039199 116.9343029 -182.55957031 113.26074219 C-181.00114348 111.01173584 -179.32620407 108.90601511 -177.62207031 106.76074219 C-176.79128933 105.68496347 -175.96170221 104.60826078 -175.13378906 103.53027344 C-168.44103132 94.96653297 -161.39764003 86.80116369 -153.55957031 79.26074219 C-151.03632432 76.75388091 -148.53183597 74.23223025 -146.05175781 71.68261719 C-139.88730407 65.38935397 -133.47625136 59.73268568 -126.55957031 54.26074219 C-125.41496536 53.32753125 -124.27180572 52.3925456 -123.12988281 51.45605469 C-85.97992392 21.11634038 -48.76687761 -0.20287021 0 0 Z " fill="#45352F" transform="translate(793.5595703125,144.7392578125)"/>
<path d="M0 0 C15.06854026 -0.68241859 28.53190434 5.7002201 40.56640625 14.35546875 C65.84960775 31.47990665 107.03520789 23.63420097 135.19140625 18.23046875 C139.63207206 17.27744368 144.03837174 16.21844639 148.44140625 15.10546875 C167.63404635 10.27824751 186.00697936 8.94976415 205.75390625 8.85546875 C206.71826599 8.84743225 207.68262573 8.83939575 208.6762085 8.83111572 C211.45375371 8.81354942 214.23026082 8.81873933 217.0078125 8.83203125 C217.84442917 8.82610962 218.68104584 8.82018799 219.54301453 8.81408691 C224.50086525 8.87270527 227.87438145 9.53092093 232.19140625 12.23046875 C233.81640625 13.91796875 233.81640625 13.91796875 235.19140625 16.23046875 C236.23554687 17.82568359 236.23554687 17.82568359 237.30078125 19.453125 C240.10415823 25.10127368 239.26524812 30.76997631 238.92050171 36.90844727 C238.16236821 51.99910453 240.97758977 63.53555796 246.64453125 77.625 C253.34410339 94.33248467 255.12353017 112.77850342 256.88183594 130.56738281 C257.14463849 132.82814802 257.50996256 134.99855131 257.98046875 137.22265625 C260.23956982 150.50617053 252.83151007 162.58484054 247.19140625 174.23046875 C246.80146484 175.04241699 246.41152344 175.85436523 246.00976562 176.69091797 C238.46512628 192.17562535 227.93181245 206.64474765 214.19140625 217.23046875 C213.86140625 217.23046875 213.53140625 217.23046875 213.19140625 217.23046875 C213.26359375 216.16054688 213.33578125 215.090625 213.41015625 213.98828125 C216.56542307 178.63878847 216.56542307 178.63878847 207.19140625 145.23046875 C205.22384173 145.26169818 205.22384173 145.26169818 203.19140625 146.23046875 C200.82499093 151.50150938 200.7415612 156.86937912 200.37890625 162.54296875 C199.58561459 172.65241659 197.63727119 181.71331795 194.19140625 191.23046875 C193.85085205 192.18228027 193.85085205 192.18228027 193.50341797 193.15332031 C185.32845793 215.60412929 173.1851712 241.57667765 150.44140625 252.35546875 C120.48536557 261.26644288 82.62334575 240.82306606 57.19140625 227.23046875 C40.52446604 218.17018039 24.80885732 207.43012328 9.56640625 196.16796875 C2.49096198 190.95175967 -4.43837955 187.02054015 -12.80859375 184.23046875 C-10.76717475 193.67678648 -8.36886211 202.93867332 -5.49609375 212.16796875 C-2.8096782 220.81328916 -0.29784795 229.49129302 2.06640625 238.23046875 C2.36458252 239.32222412 2.66275879 240.41397949 2.9699707 241.53881836 C5.49901895 250.97544466 6.37308372 259.66523037 6.37890625 269.41796875 C6.39115234 270.47822266 6.40339844 271.53847656 6.41601562 272.63085938 C6.43611162 283.62336815 4.96121359 293.57861192 0.69140625 303.73046875 C0.16691895 305.00494873 0.16691895 305.00494873 -0.36816406 306.30517578 C-5.55510399 318.67140525 -11.72817339 330.52457084 -18.22875977 342.24316406 C-42.18095694 385.45346731 -52.99758526 427.17893047 -52.99389648 476.4609375 C-52.99607109 479.69675094 -53.01425901 482.93221576 -53.03320312 486.16796875 C-53.14846236 528.98453557 -44.75237728 568.51240018 -30.80859375 608.79296875 C-29.78666379 611.75222663 -28.76622899 614.71199804 -27.74609375 617.671875 C-27.49754639 618.39146393 -27.24899902 619.11105286 -26.99291992 619.85244751 C-25.56916114 623.98400321 -24.17835433 628.1247439 -22.81420898 632.27633667 C-21.23197814 637.09109945 -19.6114435 641.85088244 -17.68359375 646.5390625 C-15.69923149 651.36747811 -14.20708402 656.2671592 -12.80859375 661.29296875 C-12.55440674 662.19547363 -12.30021973 663.09797852 -12.03833008 664.02783203 C-10.41508769 669.86124716 -8.89366096 675.71393189 -7.49609375 681.60546875 C-7.33689453 682.27586182 -7.17769531 682.94625488 -7.01367188 683.63696289 C-5.24194242 691.34730315 -4.58013696 698.78471522 -4.49609375 706.66796875 C-4.46708984 707.57095703 -4.43808594 708.47394531 -4.40820312 709.40429688 C-4.3510958 715.47085185 -5.20765924 720.22610902 -8.80859375 725.23046875 C-13.25428158 728.46369626 -17.46843244 728.69499218 -22.80859375 728.23046875 C-63.45263475 716.7782804 -104.4354465 675.58843064 -130.80859375 644.23046875 C-131.98228516 642.89048828 -131.98228516 642.89048828 -133.1796875 641.5234375 C-147.12516397 625.52509991 -158.22161651 608.5898759 -168.30908203 589.92822266 C-170.34249934 586.26992547 -172.54497788 582.7502439 -174.80859375 579.23046875 C-176.19252468 582.54553708 -177.51476345 585.87903092 -178.80859375 589.23046875 C-179.22882813 590.29652344 -179.6490625 591.36257813 -180.08203125 592.4609375 C-186.43487624 609.80612942 -187.98336939 629.28285128 -187.94140625 647.6640625 C-187.94284134 649.10109276 -187.94284134 649.10109276 -187.94430542 650.56715393 C-187.94498101 652.58310004 -187.94317045 654.5990484 -187.93896484 656.61499023 C-187.93366152 659.62944704 -187.93890349 662.64375119 -187.9453125 665.65820312 C-187.95336768 683.93053697 -187.20594491 702.06673549 -185.18359375 720.23046875 C-185.10100311 720.98117645 -185.01841248 721.73188416 -184.93331909 722.50534058 C-182.37178972 745.37330065 -178.03811089 768.06957553 -171.875 790.2421875 C-169.18538434 800.0368111 -167.14677239 810.03351742 -167.80859375 820.23046875 C-199.74290706 807.00590606 -224.00777523 744.26133535 -236.10644531 715.10253906 C-238.85422735 708.20822206 -241.38517087 701.24472451 -243.80859375 694.23046875 C-244.09959961 693.39322266 -244.39060547 692.55597656 -244.69042969 691.69335938 C-254.36927458 663.48904574 -257.95564973 635.4398677 -258.01171875 605.76171875 C-258.01454613 604.7396785 -258.0173735 603.71763824 -258.02028656 602.66462708 C-258.03520752 597.24304963 -258.04447862 591.82149825 -258.04882812 586.39990234 C-258.05319115 581.9821741 -258.06700832 577.56464353 -258.08984375 573.14697266 C-258.21229907 548.98328264 -258.18944138 525.19705141 -254.80859375 501.23046875 C-254.52552823 499.10372503 -254.24281121 496.9769349 -253.96044922 494.85009766 C-250.83811356 471.93587063 -245.32702217 448.54274607 -237.92959595 426.61605835 C-236.37374494 422.00434843 -234.96143184 417.3739761 -233.62890625 412.69140625 C-230.39719394 401.55323157 -226.67060737 390.58234489 -222.93359375 379.60546875 C-222.5634314 378.51664398 -222.19326904 377.42781921 -221.81188965 376.30599976 C-214.68639439 355.3962503 -207.0578461 334.72221646 -198.80859375 314.23046875 C-198.52348938 313.52166565 -198.23838501 312.81286255 -197.94464111 312.08258057 C-188.45942458 288.55352412 -178.09150913 265.4480951 -165.80859375 243.23046875 C-161.94962026 246.38065119 -158.47475096 249.49497244 -155.24609375 253.29296875 C-151.9220669 257.20094626 -148.45775847 260.90588639 -143.80859375 263.23046875 C-144.25912109 262.18246094 -144.25912109 262.18246094 -144.71875 261.11328125 C-145.09902344 260.20320313 -145.47929688 259.293125 -145.87109375 258.35546875 C-146.25394531 257.45054687 -146.63679687 256.545625 -147.03125 255.61328125 C-147.80859375 253.23046875 -147.80859375 253.23046875 -146.80859375 251.23046875 C-146.14214844 251.67777344 -145.47570312 252.12507812 -144.7890625 252.5859375 C-127.95058096 263.63103938 -106.25039273 272.00185739 -85.80859375 271.23046875 C-85.80859375 270.57046875 -85.80859375 269.91046875 -85.80859375 269.23046875 C-86.36208496 268.99448975 -86.91557617 268.75851074 -87.48583984 268.51538086 C-118.64747119 255.13306529 -118.64747119 255.13306529 -126.30859375 239.91796875 C-132.0559303 223.21962608 -126.59248365 205.97775091 -119.2421875 190.859375 C-114.39816075 181.21833428 -109.14080878 171.97439044 -102.80859375 163.23046875 C-102.19830322 162.37775391 -102.19830322 162.37775391 -101.57568359 161.5078125 C-91.76989274 147.81821637 -81.36696518 134.70232132 -70.32910156 121.98925781 C-68.8000243 120.22055637 -67.28298594 118.44223698 -65.76953125 116.66015625 C-60.06032537 109.94268585 -54.23617912 103.36190485 -48.25390625 96.88671875 C-41.39888522 89.44037003 -34.73935618 81.75002888 -28.3203125 73.92358398 C-26.80859375 72.23046875 -26.80859375 72.23046875 -25.0625 70.85180664 C-22.97753978 69.04998546 -21.93013753 67.77041275 -20.80859375 65.23046875 C-20.50257775 59.34406887 -21.21617264 53.63000637 -21.93359375 47.79296875 C-22.28256791 44.67061939 -22.61462225 41.54661909 -22.94140625 38.421875 C-23.02231506 37.65598053 -23.10322388 36.89008606 -23.18658447 36.10098267 C-23.71422725 30.86107551 -24.04103736 25.64916279 -24.11328125 20.3828125 C-24.13116699 19.12331787 -24.14905273 17.86382324 -24.16748047 16.56616211 C-23.65578585 11.81018688 -21.96985713 9.29757564 -18.49609375 6.10546875 C-12.35495781 1.8209553 -7.38913038 0.60634032 0 0 Z " fill="#9F8370" transform="translate(730.80859375,218.76953125)"/>
<path d="M0 0 C7.19872326 5.12216847 13.56439479 10.97198312 20 17 C16.61619103 25.38710249 12.89940885 33.58573926 9.01309204 41.7492981 C-13.18472762 88.46883514 -33.26469098 136.75798818 -46 187 C-46.44400146 188.74482666 -46.44400146 188.74482666 -46.89697266 190.52490234 C-50.78278382 205.92407776 -54.34450854 221.34006978 -57 237 C-57.19835449 238.15242187 -57.39670898 239.30484375 -57.60107422 240.4921875 C-58.15912765 243.77038176 -58.70509493 247.04993575 -59.23895264 250.3321228 C-59.54113788 252.18174615 -59.85155595 254.0300192 -60.16259766 255.87817383 C-64.1751323 281.22407291 -65.5080196 306.5336096 -65.39111328 332.15551758 C-65.37397605 335.93978568 -65.38424375 339.72342245 -65.4014349 343.50766945 C-65.47591847 362.87484756 -64.51146706 381.77155551 -62 401 C-61.8930481 401.83107269 -61.78609619 402.66214539 -61.67590332 403.5184021 C-61.09498001 407.94375243 -60.42305574 412.34726702 -59.6875 416.75 C-59.47875244 418.02166016 -59.27000488 419.29332031 -59.05493164 420.60351562 C-56.96869105 432.88941023 -54.13996749 444.94606409 -51 457 C-50.6348252 458.43865208 -50.27018176 459.87743922 -49.90625 461.31640625 C-46.39799112 474.88261701 -41.97361715 488.14318475 -37.52075195 501.42114258 C-35.59075356 507.18789114 -33.72870839 512.96804804 -31.98046875 518.79296875 C-31.21828929 521.28599401 -30.42760367 523.76223387 -29.61328125 526.23828125 C-29.37689941 526.96619873 -29.14051758 527.69411621 -28.89697266 528.4440918 C-28.43361906 529.86843373 -27.96352718 531.29060609 -27.48583984 532.71020508 C-25.88779769 537.66339306 -25.88779769 537.66339306 -27 541 C-47.38644116 512.36304618 -63.64737847 479.21425151 -75 446 C-75.28810547 445.16855469 -75.57621094 444.33710937 -75.87304688 443.48046875 C-85.55757328 415.27001301 -89.14704111 387.2172723 -89.203125 357.53125 C-89.20595238 356.50920975 -89.20877975 355.48716949 -89.21169281 354.43415833 C-89.22661377 349.01258088 -89.23588487 343.5910295 -89.24023438 338.16943359 C-89.2445974 333.75170535 -89.25841457 329.33417478 -89.28125 324.91650391 C-89.40370532 300.75281389 -89.38084763 276.96658266 -86 253 C-85.71693448 250.87325628 -85.43421746 248.74646615 -85.15185547 246.61962891 C-82.02951981 223.70540188 -76.51842842 200.31227732 -69.1210022 178.3855896 C-67.56515119 173.77387968 -66.15283809 169.14350735 -64.8203125 164.4609375 C-61.58860019 153.32276282 -57.86201362 142.35187614 -54.125 131.375 C-53.75483765 130.28617523 -53.38467529 129.19735046 -53.0032959 128.07553101 C-45.87780064 107.16578155 -38.24925235 86.49174771 -30 66 C-29.57234344 64.93679535 -29.57234344 64.93679535 -29.13604736 63.85211182 C-20.36742704 42.10064606 -10.51881051 20.96061238 0 0 Z " fill="#FCFBFB" transform="translate(562,467)"/>
<path d="M0 0 C1.38106934 -0.02102783 1.38106934 -0.02102783 2.79003906 -0.04248047 C10.38411658 0.01166378 17.73424755 0.95620713 23.6875 5.9375 C29.41701843 13.14560384 27.21930134 25.63047449 26.625 34.375 C24.33772663 51.92671284 15.93582221 69.88482862 4.625 83.375 C3.90441406 84.24511719 3.18382812 85.11523438 2.44140625 86.01171875 C-5.04218442 94.68853358 -14.04702718 103.64731305 -25.99609375 104.69140625 C-31.30793852 104.57352983 -35.95734075 102.74987105 -40.875 100.875 C-41.84042725 100.5140625 -42.80585449 100.153125 -43.80053711 99.78125 C-66.96293101 90.93480897 -93.93975191 77.58347992 -105.33984375 54.4140625 C-107.86191496 48.53310381 -108.61029037 42.95459697 -106.49609375 36.828125 C-100.33288719 23.40331863 -88.92775134 18.05700266 -75.7265625 12.96875 C-51.50315271 4.91149643 -25.52316838 0.26094768 0 0 Z " fill="#45352F" transform="translate(943.375,232.625)"/>
<path d="M0 0 C0.76054687 0.27827637 1.52109375 0.55655273 2.3046875 0.84326172 C28.54190268 10.53028466 51.87929753 22.65031292 67 47 C66.67 47.66 66.34 48.32 66 49 C64.87464844 47.7315625 64.87464844 47.7315625 63.7265625 46.4375 C41.7995555 21.99836182 12.94601382 9.17215978 -19 3 C-19.76119141 2.82791016 -20.52238281 2.65582031 -21.30664062 2.47851562 C-28.90960871 0.87819051 -36.37357631 0.69339505 -44.10498047 0.73925781 C-46.2330419 0.74991507 -48.36024635 0.73933759 -50.48828125 0.7265625 C-79.85200043 0.69388357 -106.35959052 10.12651971 -129 29 C-129.80308594 29.66773438 -130.60617188 30.33546875 -131.43359375 31.0234375 C-164.96948983 60.0076597 -176.69823447 104.67645603 -182.25 146.9375 C-182.41338867 148.18023682 -182.57677734 149.42297363 -182.74511719 150.70336914 C-185.07261935 169.50080262 -185.27626971 188.27009064 -185.3125 207.1875 C-185.31511841 208.49915131 -185.31773682 209.81080261 -185.32043457 211.16220093 C-185.34613666 242.66008186 -183.87697485 274.39344339 -177.52539062 305.32470703 C-176.94294813 308.29050856 -176.44290117 311.26360987 -175.953125 314.24609375 C-171.31697743 342.21765311 -164.83690402 369.90681949 -156.02246094 396.86181641 C-154.94584533 400.16621396 -153.89648341 403.47841955 -152.8515625 406.79296875 C-150.61157517 413.87652003 -148.31978376 420.9422041 -146 428 C-145.62681641 429.13711426 -145.25363281 430.27422852 -144.86914062 431.44580078 C-128.57605863 480.73868354 -107.43096117 528.32410667 -84.875 575.02734375 C-83.02271239 578.8650212 -81.18812787 582.71007558 -79.375 586.56640625 C-74.36579509 597.21594288 -69.119347 607.68899132 -63.56396484 618.06347656 C-62.07259257 620.86369911 -60.59476122 623.67057459 -59.12109375 626.48013306 C-50.61201749 642.70130942 -41.88579862 658.72004316 -32.5078125 674.46044922 C-31.13701558 676.76922991 -29.78269579 679.08639438 -28.4375 681.41015625 C0.36299041 731.10627164 33.92902892 778.893452 73.16015625 820.9375 C76.5941471 824.62218967 79.92902624 828.39193456 83.2578125 832.171875 C84.88065268 834.08156151 84.88065268 834.08156151 87 835 C87 835.66 87 836.32 87 837 C87.80244141 837.30744141 87.80244141 837.30744141 88.62109375 837.62109375 C91.96939766 839.56190045 94.40946391 842.29080027 97.0625 845.0625 C101.87518912 849.98198756 106.81118497 854.49716076 112.21484375 858.7734375 C114.69113158 860.75307854 117.09133308 862.79940593 119.48266602 864.88012695 C126.00396735 870.53474321 132.84543447 875.62490158 139.90844727 880.58496094 C143.57023175 883.16974998 146.96804749 885.66243954 150 889 C145.25552633 887.40022564 141.49850041 884.78514681 137.4375 881.9375 C136.72932129 881.44507813 136.02114258 880.95265625 135.29150391 880.4453125 C129.08440315 876.10636828 122.99828562 871.6236785 117 867 C116.43539063 866.566875 115.87078125 866.13375 115.2890625 865.6875 C108.4644678 860.44239665 101.80456534 855.11039853 95.4765625 849.265625 C93.40388248 847.36948239 91.30632761 845.51576379 89.1875 843.671875 C67.61053485 824.83540065 48.36056177 803.76236949 31 781 C30.43555176 780.26152832 29.87110352 779.52305664 29.28955078 778.76220703 C16.21967056 761.61786805 3.81711957 744.02935685 -8 726 C-8.40718262 725.3822168 -8.81436523 724.76443359 -9.23388672 724.12792969 C-21.99431874 704.7478693 -34.12510899 684.95506441 -45.47412109 664.71630859 C-47.1054303 661.81231719 -48.74953185 658.91578759 -50.39453125 656.01953125 C-58.08623531 642.43383784 -65.40709242 628.68849965 -72.54638672 614.80566406 C-73.83651566 612.31554619 -75.14614777 609.83806027 -76.47265625 607.3671875 C-90.68026566 580.90011987 -103.10824688 553.56515997 -115.10803223 526.04241943 C-115.94868413 524.11750259 -116.79322484 522.19435737 -117.63964844 520.27197266 C-139.40613301 470.76943815 -158.06458818 419.56195547 -172.34228516 367.38964844 C-173.05213587 364.81057688 -173.78130275 362.23738137 -174.51171875 359.6640625 C-186.32139496 317.74881345 -190.02965204 276.29541907 -191.87432861 232.9251709 C-191.9838486 230.37594557 -192.09904676 227.82710674 -192.21826172 225.27832031 C-192.63935154 216.18730866 -192.88133225 207.09979074 -193 198 C-193.0199704 196.53312744 -193.0199704 196.53312744 -193.04034424 195.03662109 C-193.13146869 188.03678641 -193.19274011 181.03722814 -193.22915649 174.03689575 C-193.24278232 171.68389718 -193.26096224 169.3309194 -193.28427124 166.97799683 C-193.47280721 146.32521207 -192.16019036 126.2771072 -186.3125 106.375 C-185.96292236 105.15554688 -185.61334473 103.93609375 -185.25317383 102.6796875 C-178.5172184 79.67989527 -169.68730035 56.48054268 -154 38 C-153.28328125 37.14535156 -152.5665625 36.29070312 -151.828125 35.41015625 C-134.85382272 15.87767011 -113.2666532 1.12344772 -88 -5 C-86.92492187 -5.28617188 -85.84984375 -5.57234375 -84.7421875 -5.8671875 C-57.42224777 -13.05664532 -26.30580803 -9.8583545 0 0 Z " fill="#9F8471" transform="translate(364,209)"/>
<path d="M0 0 C3.06888461 0.01075429 6.13718727 0.00001829 9.20605469 -0.01269531 C37.64526791 -0.0357331 58.97896265 6.25411945 82.31542969 22.57324219 C82.90469238 22.98155273 83.49395508 23.38986328 84.10107422 23.81054688 C87.36917608 26.17305354 88.57600702 27.53189685 90.44042969 31.26074219 C87.14042969 31.26074219 83.84042969 31.26074219 80.44042969 31.26074219 C80.44042969 30.60074219 80.44042969 29.94074219 80.44042969 29.26074219 C58.87939976 13.44447234 35.48590372 8.88577103 9.25683594 8.89013672 C6.34086915 8.88578019 3.42644136 8.84938327 0.51074219 8.81152344 C-17.2862181 8.7034472 -34.02009834 10.94085811 -50.06738281 19.00292969 C-51.17194824 19.5554541 -51.17194824 19.5554541 -52.29882812 20.11914062 C-53.41789551 20.6842334 -53.41789551 20.6842334 -54.55957031 21.26074219 C-55.7095752 21.82970215 -55.7095752 21.82970215 -56.8828125 22.41015625 C-87.68315601 37.71459548 -115.79380259 58.45035246 -140.55957031 82.26074219 C-141.13449219 82.80843262 -141.70941406 83.35612305 -142.30175781 83.92041016 C-150.23043028 91.50501633 -157.37026697 99.35138363 -163.95214844 108.12646484 C-165.8731153 110.67705602 -167.81748946 113.20905961 -169.76269531 115.74121094 C-172.62882425 119.47893898 -175.4949063 123.21665829 -178.34863281 126.96386719 C-179.24122803 128.1341748 -179.24122803 128.1341748 -180.15185547 129.328125 C-181.60077931 131.20555632 -181.60077931 131.20555632 -182.55957031 133.26074219 C-183.18882416 133.26882904 -183.818078 133.27691589 -184.46640015 133.2852478 C-191.05347898 133.37173138 -197.64027192 133.47125081 -204.22705078 133.578125 C-206.68077773 133.61625746 -209.13455759 133.65113692 -211.58837891 133.68261719 C-215.12844673 133.72861076 -218.66815524 133.78654757 -222.20800781 133.84667969 C-223.83674332 133.8640065 -223.83674332 133.8640065 -225.49838257 133.88168335 C-238.39968469 133.89589284 -238.39968469 133.89589284 -249.55957031 139.26074219 C-254.45507393 147.26871539 -254.14320203 155.89748841 -254.02612305 164.94433594 C-253.99737173 167.36041332 -254.00550361 169.77425703 -254.01855469 172.19042969 C-253.99329285 190.9344771 -249.7768294 208.28582999 -242.55444336 225.54052734 C-236.3683303 240.35806068 -232.3204285 255.05196787 -233.55957031 271.26074219 C-233.64851562 272.65873047 -233.64851562 272.65873047 -233.73925781 274.08496094 C-235.57231589 290.11304193 -244.03983861 304.62089202 -252.37988281 318.06542969 C-279.42747979 361.80091485 -302.20909091 411.15616994 -317.55957031 460.26074219 C-317.88957031 460.26074219 -318.21957031 460.26074219 -318.55957031 460.26074219 C-319.65775702 438.92203991 -319.66977561 417.62022335 -319.55957031 396.26074219 C-319.22957031 396.26074219 -318.89957031 396.26074219 -318.55957031 396.26074219 C-318.22957031 406.16074219 -317.89957031 416.06074219 -317.55957031 426.26074219 C-316.05394531 422.65136719 -314.54832031 419.04199219 -312.99707031 415.32324219 C-300.4652056 385.57162426 -286.76589475 356.54461472 -271.20410156 328.25439453 C-246.47843396 288.35824509 -246.47843396 288.35824509 -243.87207031 243.82324219 C-247.23307976 232.32689347 -251.6265173 221.18824023 -255.97363281 210.03808594 C-261.39643209 195.9631128 -264.95130466 183.29906855 -264.87207031 168.13574219 C-264.86687378 166.50693115 -264.86687378 166.50693115 -264.86157227 164.84521484 C-264.70672641 153.27027311 -263.7077869 141.79177763 -258.55957031 131.26074219 C-253.80792616 127.50944417 -248.90127229 127.11550501 -243.01000977 127.26171875 C-241.92150223 127.28373352 -240.83299469 127.30574829 -239.71150208 127.32843018 C-238.54374741 127.35249939 -237.37599274 127.3765686 -236.17285156 127.40136719 C-232.38388379 127.43278282 -228.59495468 127.45269922 -224.8059082 127.47216797 C-222.19200092 127.49779928 -219.57821244 127.54486129 -216.96508789 127.61376953 C-201.9867533 128.81963128 -201.9867533 128.81963128 -188.73461914 123.51074219 C-186.0606664 120.40946118 -184.35039199 116.9343029 -182.55957031 113.26074219 C-181.00114348 111.01173584 -179.32620407 108.90601511 -177.62207031 106.76074219 C-176.79128933 105.68496347 -175.96170221 104.60826078 -175.13378906 103.53027344 C-168.44103132 94.96653297 -161.39764003 86.80116369 -153.55957031 79.26074219 C-151.03632432 76.75388091 -148.53183597 74.23223025 -146.05175781 71.68261719 C-139.88730407 65.38935397 -133.47625136 59.73268568 -126.55957031 54.26074219 C-125.41496536 53.32753125 -124.27180572 52.3925456 -123.12988281 51.45605469 C-85.97992392 21.11634038 -48.76687761 -0.20287021 0 0 Z " fill="#A08471" transform="translate(793.5595703125,144.7392578125)"/>
<path d="M0 0 C2.577836 1.29951363 5.14304253 2.6222993 7.70483398 3.953125 C11.71787903 6.02121446 15.76465756 8.02242077 19.80541992 10.03564453 C21.34721128 10.80622842 22.88888949 11.57703879 24.43041992 12.34814453 C25.54416992 12.90501953 26.65791992 13.46189453 27.80541992 14.03564453 C27.80541992 14.69564453 27.80541992 15.35564453 27.80541992 16.03564453 C24.51462367 17.14241661 21.22262364 18.24556687 17.93041992 19.34814453 C17.01260742 19.656875 16.09479492 19.96560547 15.14916992 20.28369141 C10.67668974 21.77976752 6.20641142 23.22069765 1.67260742 24.52001953 C-17.86198876 30.33026023 -35.09591822 42.27115867 -50.28442383 55.54736328 C-61.26046825 64.93224959 -61.26046825 64.93224959 -67.19458008 66.03564453 C-66.65807684 61.49548584 -65.48330311 58.29289072 -63.19458008 54.34814453 C-56.81981496 43.26892535 -59.69303914 32.89528164 -62.19458008 21.03564453 C-62.37021484 20.38611816 -62.54584961 19.7365918 -62.72680664 19.06738281 C-63.55111637 15.4870563 -63.46248465 11.88294301 -63.50708008 8.22314453 C-63.55058594 7.05041992 -63.55058594 7.05041992 -63.5949707 5.85400391 C-63.6578095 0.06800109 -62.54447119 -3.22269305 -59.19458008 -7.96435547 C-42.17447079 -21.16362389 -16.68684617 -8.22715637 0 0 Z " fill="#45352F" transform="translate(777.194580078125,239.96435546875)"/>
<path d="M0 0 C1.22526599 3.4996786 0.7742049 5.46594649 -0.484375 8.91015625 C-0.83701416 9.88662109 -1.18965332 10.86308594 -1.55297852 11.86914062 C-1.94799561 12.92294922 -2.3430127 13.97675781 -2.75 15.0625 C-3.15468506 16.16142578 -3.55937012 17.26035156 -3.97631836 18.39257812 C-10.87069839 36.92425261 -18.26478377 55.25424554 -27 73 C-27.66 73 -28.32 73 -29 73 C-29 70.69 -29 68.38 -29 66 C-29.33 66 -29.66 66 -30 66 C-30.02782872 63.93758253 -30.04675538 61.87504512 -30.0625 59.8125 C-30.07410156 58.66394531 -30.08570313 57.51539063 -30.09765625 56.33203125 C-30.05261745 50.53946095 -29.48626203 44.76881096 -29 39 C-29.33209473 39.8156543 -29.66418945 40.63130859 -30.00634766 41.47167969 C-31.2662757 44.55966151 -32.53045999 47.64583373 -33.79736328 50.73095703 C-34.34003632 52.05482311 -34.88110927 53.37934648 -35.42041016 54.70458984 C-45.88867643 80.41714703 -45.88867643 80.41714703 -53 85 C-56.47386432 86.15795477 -59.27769304 86.16829849 -62.9375 86.1875 C-64.16339844 86.20167969 -65.38929688 86.21585938 -66.65234375 86.23046875 C-71.7135671 85.8820298 -71.7135671 85.8820298 -74 84 C-75.08160751 81.66348874 -75.88798418 79.56725036 -76.625 77.125 C-76.83809814 76.44518066 -77.05119629 75.76536133 -77.27075195 75.06494141 C-81.56992358 60.90276876 -83.34194361 44.80127324 -83 30 C-82.43829102 29.98541748 -81.87658203 29.97083496 -81.29785156 29.95581055 C-51.53818897 29.1016539 -27.64199932 25.33026971 -5.3125 4.13671875 C-3 2 -3 2 0 0 Z " fill="#FBFBFB" transform="translate(938,462)"/>
<path d="M0 0 C0.58614814 21.26119145 -11.327259 45.39457261 -19.625 64.625 C-20.04338135 65.61226074 -20.4617627 66.59952148 -20.89282227 67.61669922 C-24.36712398 75.43271041 -28.73667015 84.1577801 -36 89 C-38.6875 88.625 -38.6875 88.625 -41 88 C-41.28571429 79.42857143 -41.28571429 79.42857143 -39 76 C-39 76.66 -39 77.32 -39 78 C-38.34 78 -37.68 78 -37 78 C-36.76925781 77.23042969 -36.53851562 76.46085938 -36.30078125 75.66796875 C-34.92339971 71.78400099 -33.27965783 68.10680204 -31.57226562 64.359375 C-26.21659907 52.57539781 -21.47736308 40.63878798 -17 28.5 C-16.72118988 27.74506256 -16.44237976 26.99012512 -16.15512085 26.21231079 C-12.55722699 16.46076675 -12.55722699 16.46076675 -9.28125 6.59765625 C-8 3 -8 3 -5.5 0.9375 C-3 0 -3 0 0 0 Z " fill="#A08471" transform="translate(948,457)"/>
<path d="M0 0 C0.33 0 0.66 0 1 0 C1.02749766 1.37488287 1.0466164 2.74993391 1.0625 4.125 C1.07410156 4.89070313 1.08570313 5.65640625 1.09765625 6.4453125 C1 9 1 9 0.50390625 11.890625 C-0.03018007 15.18622743 -0.13281432 18.288287 -0.125 21.625 C-0.12757813 22.73101563 -0.13015625 23.83703125 -0.1328125 24.9765625 C-0.0214448 27.5118155 0.25911228 29.58917487 1 32 C0.01 32.33 -0.98 32.66 -2 33 C-3.45942448 34.99571902 -4.80019933 36.98133125 -6.125 39.0625 C-11.41511006 47.01183309 -17.5429784 54.24886644 -27 57 C-31.31132666 57.66522423 -34.4059126 57.2970437 -38.375 55.3125 C-41.13127933 52.88434917 -41.80141803 51.37731274 -43 48 C-41.37191406 48.05220703 -41.37191406 48.05220703 -39.7109375 48.10546875 C-38.26564058 48.13362388 -36.82032679 48.16092219 -35.375 48.1875 C-34.66214844 48.21263672 -33.94929687 48.23777344 -33.21484375 48.26367188 C-28.39608907 48.32998501 -25.08459857 47.82031806 -21 45 C-15.25227124 38.65012823 -12.56037518 30.33660276 -9.375 22.5 C-8.79770904 21.0973127 -8.21959003 19.6949659 -7.640625 18.29296875 C-6.57340879 15.70712299 -5.51200569 13.11919448 -4.45458984 10.52929688 C-3.0018791 7.00455929 -1.50977489 3.50056978 0 0 Z " fill="#A18673" transform="translate(909,499)"/>
</svg>
