<?xml version="1.0" encoding="UTF-8"?>
<svg version="1.1" xmlns="http://www.w3.org/2000/svg" width="512" height="512">
<path d="M0 0 C3.45569724 2.8797477 6.75553762 5.88531612 10 9 C10.9075 9.86625 11.815 10.7325 12.75 11.625 C13.86375 12.800625 13.86375 12.800625 15 14 C15.44472656 14.46148437 15.88945312 14.92296875 16.34765625 15.3984375 C29.56831567 29.85302514 38.09906225 50.44965081 39 70 C39.55945313 70.07476562 40.11890625 70.14953125 40.6953125 70.2265625 C61.4465261 73.62949463 81.69157801 87.60162604 94.203125 104.390625 C104.28859055 119.03647497 114.06098536 136.60958704 113 155 C113.72703125 155.15855469 114.4540625 155.31710938 115.203125 155.48046875 C139.15468624 161.03845924 159.826206 175.40040992 173.1875 196.1875 C186.97907874 219.8142854 192.41110838 245.97372159 185.76660156 272.96777344 C178.7370799 298.94955383 162.08609966 320.5254562 138.81152344 334.00683594 C120.76038489 343.90333616 101.32698278 346.52797358 81 346 C81 342.37 81 338.74 81 335 C70.27227891 333.32519014 56.56604836 331.41118412 46.79931641 337.3347168 C37.9124262 343.9452067 30.43993393 352.58436046 23.43640137 361.11212158 C20.31265042 364.85706009 17.67476767 367.21810923 13 369 C8.47294226 369.30180385 6.33144768 368.96147803 2.65234375 366.3046875 C-1.05096062 363.02981612 -4.49790317 359.59326858 -7.765625 355.88671875 C-8.23250732 355.37544434 -8.69938965 354.86416992 -9.18041992 354.33740234 C-10.50171571 352.87956566 -11.78514241 351.38767335 -13.06640625 349.89453125 C-15.74790647 347.75053617 -15.74790647 347.75053617 -18.34326172 348.14990234 C-20.61845107 348.6505063 -22.7962223 349.24785228 -25 350 C-24.97381592 350.90766113 -24.94763184 351.81532227 -24.9206543 352.75048828 C-24.83511186 356.1388351 -24.77260048 359.52602446 -24.7253418 362.91503906 C-24.70029471 364.37778907 -24.66624608 365.84041512 -24.62280273 367.30273438 C-24.56170644 369.41307219 -24.53369565 371.52174752 -24.51171875 373.6328125 C-24.48553467 374.90012207 -24.45935059 376.16743164 -24.43237305 377.47314453 C-25.18144385 382.12737114 -26.70326603 383.69364914 -30 387 C-33.00313748 388.50156874 -35.79067522 388.09281204 -39.125 388.0625 C-40.40632813 388.05347656 -41.68765625 388.04445313 -43.0078125 388.03515625 C-44.48894531 388.01775391 -44.48894531 388.01775391 -46 388 C-45.99333817 388.55852661 -45.98667633 389.11705322 -45.97981262 389.69250488 C-45.9131748 395.53290012 -45.86808192 401.37318643 -45.83520508 407.21386719 C-45.82016701 409.39034415 -45.79973127 411.56679105 -45.77368164 413.74316406 C-45.7370791 416.88093508 -45.72022339 420.0183036 -45.70703125 423.15625 C-45.68380547 424.60360535 -45.68380547 424.60360535 -45.66011047 426.0802002 C-45.65830247 433.42376223 -46.76280498 440.05481137 -51.75 445.8125 C-52.19859375 446.35519531 -52.6471875 446.89789063 -53.109375 447.45703125 C-58.67734114 452.00113585 -64.3033139 452.43282149 -71.1938324 452.36076355 C-72.09819489 452.36332682 -73.00255738 452.3658901 -73.9343248 452.36853105 C-76.95306353 452.37345736 -79.97129787 452.35699491 -82.98999023 452.34057617 C-85.15848275 452.33972965 -87.32697612 452.34020553 -89.49546814 452.34190369 C-95.37510688 452.34276408 -101.25456185 452.32513088 -107.1341579 452.30418181 C-113.28141011 452.2854226 -119.42866657 452.28366516 -125.57594299 452.28010559 C-137.21343734 452.27078293 -148.85084709 452.24616607 -160.4883042 452.21605712 C-173.73850483 452.18252007 -186.98870951 452.16602883 -200.23894203 452.15097082 C-227.4926765 452.11961678 -254.74632994 452.06624728 -282 452 C-282 444.74 -282 437.48 -282 430 C-211.38 430 -140.76 430 -68 430 C-68 416.14 -68 402.28 -68 388 C-72.95 388 -77.9 388 -83 388 C-88.87636355 383.29890916 -88.87636355 383.29890916 -90 379 C-90.22705078 375.77026367 -90.22705078 375.77026367 -90.1953125 372.16796875 C-90.18564453 370.22954102 -90.18564453 370.22954102 -90.17578125 368.25195312 C-90.15907327 366.8971327 -90.14214342 365.54231499 -90.125 364.1875 C-90.11496003 362.81315749 -90.10583596 361.43880797 -90.09765625 360.06445312 C-90.07411242 356.70945683 -90.04122567 353.35481801 -90 350 C-93.05140729 348.56867922 -95.61302398 347.83052472 -99 348 C-102.85844219 350.50135621 -105.71777163 353.82121226 -108.75 357.25 C-110.38391319 359.0322183 -112.02431063 360.80851882 -113.671875 362.578125 C-114.3844043 363.37637695 -115.09693359 364.17462891 -115.83105469 364.99707031 C-119.48653034 368.37274819 -121.91968429 368.98159898 -126.89868164 369.06640625 C-132.12443282 368.21655391 -134.4478598 364.90008372 -137.62109375 360.9375 C-138.87811242 359.47982847 -140.14138168 358.02752875 -141.41015625 356.58007812 C-142.0664502 355.82799072 -142.72274414 355.07590332 -143.39892578 354.30102539 C-156.48056493 339.36033125 -156.48056493 339.36033125 -174.75450134 333.47290039 C-181.88110484 333.22803826 -188.97160673 333.84039677 -196 335 C-196 338.63 -196 342.26 -196 346 C-234.31040123 346.44317069 -267.02636886 344.71999122 -296.65234375 317.34765625 C-314.47806018 299.52193982 -324.17823931 275.16743165 -324.25 250.125 C-324.24076139 226.6995864 -317.4425365 205.03247973 -302 187 C-301.33355469 186.18917969 -300.66710937 185.37835938 -299.98046875 184.54296875 C-294.36454043 177.95563661 -288.14884485 172.85650297 -281 168 C-279.61361328 167.05640625 -279.61361328 167.05640625 -278.19921875 166.09375 C-270.44172039 161.20105394 -258.44129599 155 -249 155 C-248.98582031 154.319375 -248.97164063 153.63875 -248.95703125 152.9375 C-247.81072064 129.63951143 -235.46035383 108.04429433 -219 92 C-199.52437281 75.54971295 -178.20463388 67.93829831 -153 67 C-152.95875 65.72125 -152.9175 64.4425 -152.875 63.125 C-150.95801279 44.5591102 -141.42565291 26.59316392 -129 13 C-127.87851562 11.73929688 -127.87851562 11.73929688 -126.734375 10.453125 C-94.53564662 -23.8779695 -37.45839252 -27.97818206 0 0 Z " fill="#68EFF6" transform="translate(324,39)"/>
<path d="M0 0 C0.98482361 -0.00960754 1.96964722 -0.01921509 2.98431396 -0.02911377 C4.05715637 -0.03336365 5.12999878 -0.03761353 6.23535156 -0.04199219 C7.88014496 -0.0505423 7.88014496 -0.0505423 9.5581665 -0.05926514 C11.88512197 -0.06873355 14.21209095 -0.07525639 16.5390625 -0.07910156 C20.09691913 -0.08878808 23.65419366 -0.11978687 27.21191406 -0.15136719 C29.46972312 -0.15789879 31.72753633 -0.16314864 33.98535156 -0.16699219 C35.05009705 -0.17933899 36.11484253 -0.19168579 37.21185303 -0.20440674 C46.69709304 -0.17586732 46.69709304 -0.17586732 50.37597656 3.16113281 C53.53864836 7.12168099 53.73260744 10.22504713 53.66894531 15.21191406 C53.66470047 15.87072067 53.66045563 16.52952728 53.65608215 17.20829773 C53.63938852 19.29717166 53.60175714 21.3850542 53.56347656 23.47363281 C53.54841753 24.89614485 53.53473126 26.31867212 53.52246094 27.74121094 C53.4895166 31.21483632 53.43780064 34.68788768 53.37597656 38.16113281 C56.77585318 39.62415705 59.6600525 40.3754647 63.37597656 40.16113281 C67.53812503 37.51865605 70.61116051 34.01177598 73.87597656 30.34863281 C75.63525215 28.4660554 77.39561259 26.58449102 79.15722656 24.70410156 C79.92099609 23.85871826 80.68476563 23.01333496 81.47167969 22.14233398 C83.92402062 19.5909562 84.9744238 19.22538125 88.50097656 18.66113281 C97.94155004 19.87927133 106.33788949 31.97083998 112.88745117 38.54223633 C114.82974921 40.48995084 116.77740796 42.43219212 118.72558594 44.37402344 C119.96223532 45.61133265 121.19857498 46.8489515 122.43457031 48.08691406 C123.01677841 48.66709793 123.59898651 49.2472818 124.19883728 49.845047 C127.55560209 53.22160118 129.15759335 54.93818681 130.00097656 59.66113281 C129.91370386 65.04294952 126.68954025 67.80626216 123.11425781 71.51269531 C121.19396692 73.36998094 119.26187033 75.19236912 117.29394531 76.99707031 C116.78774658 77.47297607 116.28154785 77.94888184 115.76000977 78.43920898 C114.31557891 79.78829478 112.84241268 81.10641547 111.36816406 82.42285156 C109.00360028 85.08022962 109.00360028 85.08022962 109.50878906 88.74316406 C109.79496094 89.87109375 110.08113281 90.99902344 110.37597656 92.16113281 C110.70975965 93.49435363 111.04320071 94.82766023 111.37597656 96.16113281 C112.25858154 96.14542236 113.14118652 96.12971191 114.05053711 96.11352539 C117.33998542 96.06225283 120.62900617 96.02471364 123.91870117 95.99633789 C125.33966798 95.98129521 126.76058869 95.96085577 128.18139648 95.93481445 C130.22944542 95.89822934 132.27687806 95.88136184 134.32519531 95.86816406 C135.55584717 95.85245361 136.78649902 95.83674316 138.05444336 95.82055664 C142.71368293 96.29829565 145.10006148 97.70751902 148.16577148 101.20019531 C149.97449927 105.62550308 149.78446879 109.8003757 149.73925781 114.53613281 C149.73975632 115.53821777 149.74025482 116.54030273 149.74076843 117.57275391 C149.7384321 119.68752021 149.7287296 121.80228952 149.7121582 123.91699219 C149.68856026 127.14966764 149.69160159 130.38151805 149.69824219 133.61425781 C149.6926652 135.67155438 149.6855552 137.72884749 149.67675781 139.78613281 C149.67766922 140.75083496 149.67858063 141.71553711 149.67951965 142.70947266 C149.61817399 148.53021338 149.35422224 152.787238 145.50097656 157.41113281 C141.68214993 160.55604886 137.68501797 160.32402695 132.86035156 160.47753906 C130.98476563 160.54038086 130.98476563 160.54038086 129.07128906 160.60449219 C127.76933594 160.64380859 126.46738281 160.683125 125.12597656 160.72363281 C123.14984375 160.7884082 123.14984375 160.7884082 121.13378906 160.85449219 C117.88128868 160.96055198 114.62871264 161.06261305 111.37597656 161.16113281 C110.06709064 163.85589794 109.35055455 165.69983569 109.5168457 168.71728516 C110.55703801 171.67617262 111.86543547 173.09483837 114.12207031 175.26269531 C114.87681641 176.00003906 115.6315625 176.73738281 116.40917969 177.49707031 C117.20259766 178.25246094 117.99601562 179.00785156 118.81347656 179.78613281 C120.37671235 181.29704805 121.93799795 182.80998432 123.49707031 184.32519531 C124.54012329 185.32220459 124.54012329 185.32220459 125.60424805 186.33935547 C128.49876493 189.31563837 129.6802506 191.37859938 129.75097656 195.47363281 C129.77933594 196.21226562 129.80769531 196.95089844 129.83691406 197.71191406 C128.67741629 203.87297425 123.34538733 208.49930165 119.07128906 212.76660156 C118.46968964 213.37248611 117.86809021 213.97837067 117.2482605 214.60261536 C115.9816885 215.87490114 114.71252728 217.14461407 113.44091797 218.41186523 C111.50498788 220.34462805 109.58278664 222.29035948 107.66113281 224.23730469 C106.42366285 225.47704731 105.18540753 226.71600661 103.94628906 227.95410156 C103.37733917 228.5322612 102.80838928 229.11042084 102.22219849 229.70610046 C97.8462488 234.03224017 93.97900868 236.98759734 87.62597656 237.41113281 C80.41578353 236.12506423 75.23253495 229.29075593 70.61035156 224.04785156 C70.14346924 223.53657715 69.67658691 223.02530273 69.19555664 222.49853516 C67.87426085 221.04069847 66.59083415 219.54880617 65.30957031 218.05566406 C62.62807009 215.91166898 62.62807009 215.91166898 60.03271484 216.31103516 C57.75752549 216.81163911 55.57975426 217.40898509 53.37597656 218.16113281 C53.40216064 219.06879395 53.42834473 219.97645508 53.45532227 220.91162109 C53.5408647 224.29996791 53.60337608 227.68715727 53.65063477 231.07617188 C53.67568185 232.53892188 53.70973049 234.00154793 53.75317383 235.46386719 C53.81427012 237.574205 53.84228091 239.68288033 53.86425781 241.79394531 C53.89044189 243.06125488 53.91662598 244.32856445 53.94360352 245.63427734 C53.19453271 250.28850396 51.67271053 251.85478195 48.37597656 255.16113281 C45.37283909 256.66270155 42.58530134 256.25394486 39.25097656 256.22363281 C37.96964844 256.21460938 36.68832031 256.20558594 35.36816406 256.19628906 C33.88703125 256.17888672 33.88703125 256.17888672 32.37597656 256.16113281 C32.3826384 256.71965942 32.38930023 257.27818604 32.39616394 257.8536377 C32.46280176 263.69403293 32.50789464 269.53431924 32.54077148 275.375 C32.55580955 277.55147696 32.57624529 279.72792386 32.60229492 281.90429688 C32.63889747 285.04206789 32.65575317 288.17943641 32.66894531 291.31738281 C32.6921711 292.76473816 32.6921711 292.76473816 32.71586609 294.24133301 C32.7176741 301.58489504 31.61317158 308.21594418 26.62597656 313.97363281 C26.17738281 314.51632812 25.72878906 315.05902344 25.26660156 315.61816406 C19.69863542 320.16226866 14.07266266 320.5939543 7.18214417 320.52189636 C6.27778167 320.52445964 5.37341918 320.52702291 4.44165176 320.52966386 C1.42291303 320.53459018 -1.59532131 320.51812773 -4.61401367 320.50170898 C-6.78250619 320.50086246 -8.95099956 320.50133834 -11.11949158 320.5030365 C-16.99913032 320.5038969 -22.87858528 320.48626369 -28.75818133 320.46531463 C-34.90543355 320.44655541 -41.05269001 320.44479797 -47.19996643 320.4412384 C-58.83746078 320.43191574 -70.47487053 320.40729888 -82.11232764 320.37718993 C-95.36252827 320.34365288 -108.61273295 320.32716165 -121.86296546 320.31210363 C-149.11669994 320.28074959 -176.37035338 320.22738009 -203.62402344 320.16113281 C-203.62402344 312.90113281 -203.62402344 305.64113281 -203.62402344 298.16113281 C-133.00402344 298.16113281 -62.38402344 298.16113281 10.37597656 298.16113281 C10.37597656 284.30113281 10.37597656 270.44113281 10.37597656 256.16113281 C5.42597656 256.16113281 0.47597656 256.16113281 -4.62402344 256.16113281 C-10.50038699 251.46004197 -10.50038699 251.46004197 -11.62402344 247.16113281 C-11.85107422 243.93139648 -11.85107422 243.93139648 -11.81933594 240.32910156 C-11.80966797 238.39067383 -11.80966797 238.39067383 -11.79980469 236.41308594 C-11.78309671 235.05826551 -11.76616685 233.7034478 -11.74902344 232.34863281 C-11.73898347 230.9742903 -11.7298594 229.59994078 -11.72167969 228.22558594 C-11.69813585 224.87058964 -11.66524911 221.51595082 -11.62402344 218.16113281 C-14.67543073 216.72981203 -17.23704742 215.99165754 -20.62402344 216.16113281 C-24.48246563 218.66248902 -27.34179507 221.98234507 -30.37402344 225.41113281 C-32.00793663 227.19335111 -33.64833406 228.96965163 -35.29589844 230.73925781 C-36.36469238 231.93663574 -36.36469238 231.93663574 -37.45507812 233.15820312 C-41.0788565 236.5046099 -43.5069292 237.1396255 -48.44091797 237.23461914 C-53.85875116 236.35236059 -56.88618866 232.81526193 -60.55371094 228.98535156 C-61.27011749 228.26378372 -61.98652405 227.54221588 -62.72463989 226.79878235 C-64.2302689 225.27606144 -65.72752958 223.74502578 -67.21679688 222.20629883 C-69.4965708 219.85116652 -71.79963774 217.52102638 -74.10839844 215.19433594 C-75.57074707 213.70939616 -77.03173272 212.22311264 -78.49121094 210.73535156 C-79.17762665 210.03729904 -79.86404236 209.33924652 -80.57125854 208.62004089 C-81.20597076 207.96288589 -81.84068298 207.3057309 -82.49462891 206.62866211 C-83.0522995 206.05431931 -83.60997009 205.4799765 -84.18453979 204.88822937 C-86.59134928 202.00053252 -87.54522413 199.61641771 -88.18652344 195.91113281 C-87.16088416 189.07353765 -81.84195847 185.31678441 -77.00683594 180.71582031 C-76.36955566 180.10037354 -75.73227539 179.48492676 -75.07568359 178.85083008 C-73.78514465 177.60952986 -72.4801845 176.38303348 -71.16064453 175.17260742 C-69.48564862 173.56757173 -67.96851344 172.05196827 -66.62402344 170.16113281 C-66.49658923 167.522176 -66.49658923 167.522176 -67.62402344 165.16113281 C-67.97587285 163.49827657 -68.31170463 161.83186494 -68.62402344 160.16113281 C-69.5013916 160.18208008 -70.37875977 160.20302734 -71.28271484 160.22460938 C-74.55919027 160.29305882 -77.83489856 160.34306332 -81.11181641 160.38085938 C-82.52600139 160.40089124 -83.9401044 160.42812529 -85.35400391 160.46289062 C-87.39473762 160.5117877 -89.43437033 160.53418404 -91.47558594 160.55175781 C-92.70100098 160.57270508 -93.92641602 160.59365234 -95.18896484 160.61523438 C-99.31015289 160.07042913 -101.41269015 158.75478942 -104.62402344 156.16113281 C-106.7853557 152.91913442 -106.88528374 151.9694994 -106.93041992 148.21826172 C-106.94640732 147.21356842 -106.96239471 146.20887512 -106.97886658 145.17373657 C-106.98422928 144.08934296 -106.98959198 143.00494934 -106.99511719 141.88769531 C-107.00414566 140.77180023 -107.01317413 139.65590515 -107.0224762 138.50619507 C-107.03699213 136.14413135 -107.04586875 133.78202731 -107.04956055 131.41992188 C-107.06145498 127.80692749 -107.11062886 124.19564153 -107.16113281 120.58300781 C-107.17059701 118.28874532 -107.17783206 115.99447233 -107.18261719 113.70019531 C-107.20214951 112.61985016 -107.22168182 111.539505 -107.24180603 110.42642212 C-107.19157432 102.07064527 -107.19157432 102.07064527 -104.15161133 99.00244141 C-102.90045532 98.09099365 -102.90045532 98.09099365 -101.62402344 97.16113281 C-101.29402344 96.83113281 -100.96402344 96.50113281 -100.62402344 96.16113281 C-98.33413562 96.00225189 -96.03958903 95.90975208 -93.74511719 95.84472656 C-93.05845474 95.82394547 -92.3717923 95.80316437 -91.6643219 95.78175354 C-89.46349409 95.71619138 -87.26254369 95.65734266 -85.06152344 95.59863281 C-83.5725783 95.55545389 -82.0836457 95.51183981 -80.59472656 95.46777344 C-76.93795791 95.36050351 -73.28105026 95.25925509 -69.62402344 95.16113281 C-68.63402344 92.19113281 -67.64402344 89.22113281 -66.62402344 86.16113281 C-67.15358643 85.63680664 -67.68314941 85.11248047 -68.22875977 84.57226562 C-70.63398675 82.18786654 -73.03528586 79.79954914 -75.43652344 77.41113281 C-76.26990234 76.58613281 -77.10328125 75.76113281 -77.96191406 74.91113281 C-78.76435547 74.11191406 -79.56679687 73.31269531 -80.39355469 72.48925781 C-81.1319458 71.75610352 -81.87033691 71.02294922 -82.63110352 70.26757812 C-85.72917807 66.99302376 -87.44690076 65.01722574 -88.37402344 60.53613281 C-88.19455225 56.46966916 -86.61681719 54.62623445 -83.88183594 51.70019531 C-83.06585938 50.82572754 -82.24988281 49.95125977 -81.40917969 49.05029297 C-76.80809081 44.25328543 -72.13765755 39.5264333 -67.42871094 34.83544922 C-65.72699369 33.13917351 -64.03079358 31.43750831 -62.33496094 29.73535156 C-61.2467404 28.64779056 -60.15821038 27.56053912 -59.06933594 26.47363281 C-58.5662088 25.96848145 -58.06308167 25.46333008 -57.54470825 24.94287109 C-51.86449633 19.3006543 -51.86449633 19.3006543 -46.80371094 18.73144531 C-42.14005658 18.86140553 -40.04526029 20.73989596 -36.74902344 24.03613281 C-35.99637207 24.77246948 -35.99637207 24.77246948 -35.22851562 25.52368164 C-33.67475522 27.05174185 -32.14946926 28.60486496 -30.62402344 30.16113281 C-29.62846603 31.14866671 -28.63111981 32.13440113 -27.63183594 33.11816406 C-25.27781517 35.44884468 -22.94315732 37.79582148 -20.62402344 40.16113281 C-17.65402344 39.17113281 -14.68402344 38.18113281 -11.62402344 37.16113281 C-11.61991455 36.24823486 -11.61580566 35.33533691 -11.61157227 34.39477539 C-11.58452942 30.99278503 -11.53538482 27.59258221 -11.47143555 24.19116211 C-11.44830351 22.72187334 -11.43387103 21.25241989 -11.4284668 19.78295898 C-11.41914065 17.66448936 -11.37808217 15.54859216 -11.33105469 13.43066406 C-11.31534424 12.15811768 -11.29963379 10.88557129 -11.28344727 9.57446289 C-10.46602161 5.34327887 -8.87684545 3.88416898 -5.62402344 1.16113281 C-4.00721328 -0.45567735 -2.23505084 0.01752231 0 0 Z " fill="#4C5B67" transform="translate(245.6240234375,170.8388671875)"/>
<path d="M0 0 C3.45569724 2.8797477 6.75553762 5.88531612 10 9 C10.9075 9.86625 11.815 10.7325 12.75 11.625 C13.86375 12.800625 13.86375 12.800625 15 14 C15.44472656 14.46148437 15.88945312 14.92296875 16.34765625 15.3984375 C29.56831567 29.85302514 38.09906225 50.44965081 39 70 C39.55945313 70.07476562 40.11890625 70.14953125 40.6953125 70.2265625 C61.4465261 73.62949463 81.69157801 87.60162604 94.203125 104.390625 C104.28859055 119.03647497 114.06098536 136.60958704 113 155 C113.72703125 155.15855469 114.4540625 155.31710938 115.203125 155.48046875 C139.15468624 161.03845924 159.826206 175.40040992 173.1875 196.1875 C186.97907874 219.8142854 192.41110838 245.97372159 185.76660156 272.96777344 C178.7370799 298.94955383 162.08609966 320.5254562 138.81152344 334.00683594 C120.88757852 343.8336025 101.2299603 346.72682492 81 346 C80.88540974 338.58982977 81.08839714 331.35793733 82 324 C83.11375 323.97421875 84.2275 323.9484375 85.375 323.921875 C106.38366366 323.23302833 127.04538265 317.95461735 142.375 302.625 C142.91125 302.08875 143.4475 301.5525 144 301 C144.66 301 145.32 301 146 301 C146.27328125 300.4121875 146.5465625 299.824375 146.828125 299.21875 C147.9655716 297.06518444 149.21442675 295.3823156 150.75 293.5 C163.86247555 276.11241076 167.07092196 255.89170382 164.375 234.75 C160.47534702 215.36005879 149.03639732 198.11551075 132.5625 187.125 C126.96625635 183.77688866 121.07902311 181.32535698 115 179 C114.19433594 178.65324219 113.38867188 178.30648437 112.55859375 177.94921875 C108.5089334 176.44682567 104.29210076 175.78900431 100.05859375 174.9765625 C96.64847489 173.88776337 95.2107421 172.77773243 93 170 C91.96026572 166.88079715 91.71361956 164.00524313 91.45678711 160.74316406 C90.06920225 144.01351051 85.11855006 126.72376591 72.71484375 114.69140625 C71.81894531 113.80324219 70.92304688 112.91507813 70 112 C70 111.34 70 110.68 70 110 C69.41863281 109.73574219 68.83726562 109.47148437 68.23828125 109.19921875 C65.91279291 107.95327648 64.18283896 106.53234837 62.1875 104.8125 C52.46818606 97.21089023 41.38275394 93.37773353 29.43408203 90.86083984 C24.30845294 89.6996067 21.23215734 88.4199908 18 84 C17.14453125 80.87109375 17.14453125 80.87109375 16.8125 77.4375 C16.66941406 76.19742188 16.52632813 74.95734375 16.37890625 73.6796875 C16.25386719 72.46539062 16.12882812 71.25109375 16 70 C13.9844869 52.29066019 6.26090434 35.91110192 -6.90625 23.64453125 C-24.76647856 9.61625471 -44.22132965 3.0161284 -67 5 C-85.39008759 7.36712365 -102.15738406 16.8077277 -114.3359375 30.65625 C-124.98647874 44.53051828 -131.25003114 60.67791038 -131.62890625 78.1953125 C-132.18678305 82.41168663 -134.03436338 85.03436338 -137 88 C-139.843261 88.94323697 -142.51033769 89.14289864 -145.4921875 89.2109375 C-169.36081315 89.93281136 -190.8427871 95.11605432 -208 113 C-217.421678 124.09468624 -225.21919007 138.17940015 -226.44140625 152.8515625 C-226.51576904 153.73634277 -226.59013184 154.62112305 -226.66674805 155.53271484 C-226.80295908 157.31000532 -226.91606333 159.08925629 -227.00317383 160.86962891 C-227.28387593 164.87866052 -227.64194348 168.1356612 -230.01953125 171.4609375 C-233.83413326 174.71059845 -236.98543633 175.42705202 -241.8125 176.375 C-254.96281607 179.40188155 -266.9339709 184.85440546 -277 194 C-277.74507813 194.65355469 -278.49015625 195.30710938 -279.2578125 195.98046875 C-292.00577501 207.8425559 -300.64471824 225.52117942 -301.30078125 243.05078125 C-301.32006651 244.80458582 -301.32359031 246.55862446 -301.3125 248.3125 C-301.30758545 249.23675781 -301.3026709 250.16101563 -301.29760742 251.11328125 C-301.17776117 258.11476082 -300.34201028 264.36900703 -298 271 C-297.64808594 272.06347656 -297.29617188 273.12695312 -296.93359375 274.22265625 C-293.42619152 284.11978135 -288.68277414 292.78284853 -281 300 C-281 300.66 -281 301.32 -281 302 C-280.42894531 302.25394531 -279.85789062 302.50789063 -279.26953125 302.76953125 C-276.73607996 304.14308918 -274.85110637 305.78546953 -272.6875 307.6875 C-255.83948749 321.27938125 -235.85544412 323.58800865 -215 323.75 C-213.14580656 323.77824139 -211.29163816 323.80817977 -209.4375 323.83984375 C-204.95809927 323.91583358 -200.48032495 323.95724881 -196 324 C-196 331.26 -196 338.52 -196 346 C-234.32431641 346.4091564 -267.00758699 344.73734435 -296.65234375 317.34765625 C-314.47806018 299.52193982 -324.17823931 275.16743165 -324.25 250.125 C-324.24076139 226.6995864 -317.4425365 205.03247973 -302 187 C-301.33355469 186.18917969 -300.66710937 185.37835938 -299.98046875 184.54296875 C-294.36454043 177.95563661 -288.14884485 172.85650297 -281 168 C-279.61361328 167.05640625 -279.61361328 167.05640625 -278.19921875 166.09375 C-270.44172039 161.20105394 -258.44129599 155 -249 155 C-248.98582031 154.319375 -248.97164063 153.63875 -248.95703125 152.9375 C-247.81072064 129.63951143 -235.46035383 108.04429433 -219 92 C-199.52437281 75.54971295 -178.20463388 67.93829831 -153 67 C-152.95875 65.72125 -152.9175 64.4425 -152.875 63.125 C-150.95801279 44.5591102 -141.42565291 26.59316392 -129 13 C-127.87851562 11.73929688 -127.87851562 11.73929688 -126.734375 10.453125 C-94.53564662 -23.8779695 -37.45839252 -27.97818206 0 0 Z " fill="#4C5B66" transform="translate(324,39)"/>
<path d="M0 0 C6.93 0 13.86 0 21 0 C21.04898438 1.89105469 21.09796875 3.78210938 21.1484375 5.73046875 C21.22347725 8.2161604 21.29902456 10.70183677 21.375 13.1875 C21.4059375 14.43337891 21.436875 15.67925781 21.46875 16.96289062 C21.50742187 18.16494141 21.54609375 19.36699219 21.5859375 20.60546875 C21.6173584 21.71043701 21.6487793 22.81540527 21.68115234 23.95385742 C22.00243164 27.02323091 22.6010935 29.25709446 24 32 C26.18637315 33.24657121 26.18637315 33.24657121 29 34 C30.26173419 34.46033024 31.52065994 34.92839977 32.77734375 35.40234375 C34.86019647 36.17179267 36.94351459 36.9396958 39.02929688 37.70117188 C43.16792562 39.23501438 47.05108809 41.01689679 51 43 C54.03678969 43.59415451 55.93106182 43.56027105 58.69921875 42.109375 C65.90539702 37.09375407 71.89990485 30.26747581 78 24 C83.29012124 28.40843437 88.18808428 33.07559794 93 38 C91.61403133 41.13405668 90.00928844 43.21834182 87.55859375 45.6015625 C86.89279297 46.25640625 86.22699219 46.91125 85.54101562 47.5859375 C84.49977539 48.59527344 84.49977539 48.59527344 83.4375 49.625 C82.05901463 50.96911869 80.68260599 52.31537153 79.30859375 53.6640625 C78.69814209 54.25654785 78.08769043 54.8490332 77.45874023 55.45947266 C74.72781746 58.34350993 74.71090691 60.89852047 74.76367188 64.79785156 C75.16069892 68.49742174 76.64131964 71.5557725 78.25 74.875 C78.89731657 76.2701461 79.54315278 77.66598002 80.1875 79.0625 C80.50074219 79.7328125 80.81398438 80.403125 81.13671875 81.09375 C82.6282765 84.38732547 83.85611853 87.77882045 85.078125 91.1796875 C85.98854142 93.34745761 85.98854142 93.34745761 89 95 C92.0042707 95.36927046 92.0042707 95.36927046 95.41796875 95.4140625 C97.29838867 95.47207031 97.29838867 95.47207031 99.21679688 95.53125 C100.52712891 95.5621875 101.83746094 95.593125 103.1875 95.625 C104.5228116 95.66319338 105.85809892 95.70224591 107.19335938 95.7421875 C110.46200611 95.83658885 113.73098412 95.91938832 117 96 C117 102.93 117 109.86 117 117 C115.19273437 117.02578125 113.38546875 117.0515625 111.5234375 117.078125 C109.14060107 117.13441247 106.7577895 117.19175966 104.375 117.25 C103.18519531 117.26417969 101.99539063 117.27835937 100.76953125 117.29296875 C92.04225227 117.36818291 92.04225227 117.36818291 85 122 C83.26183673 125.03684983 81.9886972 128.16981678 80.75 131.4375 C80.41226563 132.28376953 80.07453125 133.13003906 79.7265625 134.00195312 C79.08045335 135.62612907 78.44317809 137.25385609 77.81616211 138.88549805 C77.17199927 140.55438657 76.49265534 142.20969476 75.80078125 143.859375 C74.50295452 147.32868742 74.15900719 150.4224433 75 154 C77.24588151 157.62910655 80.35305829 160.43194021 83.42724609 163.35888672 C84.44689434 164.33012048 85.46290472 165.30518699 86.4753418 166.28393555 C87.4808509 167.25080219 88.49915153 168.2045631 89.53051758 169.14379883 C90.9375 170.484375 90.9375 170.484375 93 173 C92.51016861 177.59323846 89.31204254 180.20271326 86.1875 183.3125 C85.65318359 183.87517578 85.11886719 184.43785156 84.56835938 185.01757812 C82.98046875 186.61328125 82.98046875 186.61328125 80 189 C76.36684477 188.76088674 74.63661111 186.97961686 72.1796875 184.4375 C71.47972656 183.72335937 70.77976562 183.00921875 70.05859375 182.2734375 C69.33800781 181.52320313 68.61742187 180.77296875 67.875 180 C66.43702744 178.51876101 64.99702138 177.03949255 63.5546875 175.5625 C62.92030762 174.90378906 62.28592773 174.24507812 61.63232422 173.56640625 C58.7119382 170.76395386 56.22755788 170.7097183 52.2421875 170.76367188 C48.36236398 171.17260798 45.03621004 172.67190991 41.5 174.25 C40.79230469 174.55035156 40.08460938 174.85070312 39.35546875 175.16015625 C37.22224179 176.07662487 35.11271857 177.03736575 33 178 C32.27167969 178.30228516 31.54335938 178.60457031 30.79296875 178.91601562 C27.43764078 180.39738986 25.36077117 181.54921606 23.04296875 184.4453125 C21.44897714 189.87801798 21.42380643 195.23971449 21.3125 200.875 C21.27833984 202.0403125 21.24417969 203.205625 21.20898438 204.40625 C21.12681322 207.27050179 21.06172229 210.13523461 21 213 C14.07 213 7.14 213 0 213 C-0.02578125 211.10894531 -0.0515625 209.21789062 -0.078125 207.26953125 C-0.134405 204.78383106 -0.19175236 202.29815487 -0.25 199.8125 C-0.26417969 198.56662109 -0.27835937 197.32074219 -0.29296875 196.03710938 C-0.32519531 194.83505859 -0.35742188 193.63300781 -0.390625 192.39453125 C-0.4220459 190.73707886 -0.4220459 190.73707886 -0.45410156 189.04614258 C-1.12032701 185.32856883 -2.36939997 183.66993335 -5 181 C-7.43008696 179.79768689 -9.65476383 178.83192671 -12.1875 177.9375 C-13.5371151 177.43535543 -14.8860778 176.93145383 -16.234375 176.42578125 C-16.88341797 176.18553223 -17.53246094 175.9452832 -18.20117188 175.69775391 C-20.51245047 174.80122374 -22.71646367 173.72386937 -24.9375 172.625 C-29.3451002 170.68532575 -32.18695816 170.15962761 -37 171 C-40.07822623 172.93343135 -42.47159701 175.40517662 -45 178 C-45.98143058 178.97301351 -46.96461145 179.94426369 -47.94921875 180.9140625 C-50.65458392 183.58834641 -53.33230058 186.28816585 -56 189 C-60.32504836 187.34136495 -63.09418825 184.128959 -66.25 180.875 C-67.08144531 180.03001953 -67.08144531 180.03001953 -67.9296875 179.16796875 C-69.29104485 177.78313972 -70.64614859 176.39216796 -72 175 C-67.71146486 169.80861535 -63.12359257 165.09734094 -58.26953125 160.4296875 C-55.16951823 157.1109128 -53.20263085 154.64967938 -52.640625 150.07421875 C-53.05907711 146.49463385 -54.13537393 144.02976235 -55.75 140.8125 C-58.22442665 135.7358594 -60.24553967 130.72245771 -61.9453125 125.33984375 C-63.21480146 122.52345899 -64.61894538 120.95804675 -67 119 C-70.25961648 117.91196001 -73.44107838 117.80567577 -76.859375 117.68359375 C-77.97441406 117.64169922 -79.08945313 117.59980469 -80.23828125 117.55664062 C-81.39714844 117.51732422 -82.55601562 117.47800781 -83.75 117.4375 C-85.51150391 117.37272461 -85.51150391 117.37272461 -87.30859375 117.30664062 C-90.20559355 117.20065283 -93.1027815 117.09983084 -96 117 C-96 110.07 -96 103.14 -96 96 C-94.03675781 95.98582031 -92.07351562 95.97164063 -90.05078125 95.95703125 C-87.47133061 95.91013215 -84.89190424 95.86188476 -82.3125 95.8125 C-81.01892578 95.80669922 -79.72535156 95.80089844 -78.39257812 95.79492188 C-77.14541016 95.76591797 -75.89824219 95.73691406 -74.61328125 95.70703125 C-72.89298706 95.68346558 -72.89298706 95.68346558 -71.13793945 95.65942383 C-67.08653703 94.80803987 -65.59533237 93.15478764 -63 90 C-61.7811124 87.32322174 -61.7811124 87.32322174 -61.0625 84.4375 C-59.39037927 78.8200035 -57.02262788 74.03879065 -54.07421875 68.984375 C-52.62901767 64.96934363 -52.40437099 61.92892247 -54 58 C-56.69592867 54.4793604 -59.82244531 51.51651794 -63.0625 48.5 C-63.91650391 47.67757812 -64.77050781 46.85515625 -65.65039062 46.0078125 C-67.75195902 43.98842834 -69.86806606 41.98721815 -72 40 C-70.71825282 37.18121988 -69.38992385 35.14758504 -67.1796875 32.984375 C-66.64472656 32.45585937 -66.10976562 31.92734375 -65.55859375 31.3828125 C-65.00300781 30.84398437 -64.44742188 30.30515625 -63.875 29.75 C-63.31167969 29.19570312 -62.74835938 28.64140625 -62.16796875 28.0703125 C-60.78313972 26.70895515 -59.39216796 25.35385141 -58 24 C-54.75904935 25.41920753 -52.64164495 27.13308248 -50.1796875 29.66015625 C-49.47972656 30.37107422 -48.77976563 31.08199219 -48.05859375 31.81445312 C-47.33800781 32.55630859 -46.61742187 33.29816406 -45.875 34.0625 C-44.43712439 35.53473193 -42.99712292 37.00489156 -41.5546875 38.47265625 C-40.92030762 39.12500244 -40.28592773 39.77734863 -39.63232422 40.44946289 C-37.51029816 42.46516548 -36.35299687 42.95869186 -33.4296875 43.30078125 C-28.80835321 42.89549339 -25.27869394 41.16726564 -21.125 39.1875 C-19.58700049 38.47037207 -18.04794326 37.75550802 -16.5078125 37.04296875 C-15.75918945 36.69282715 -15.01056641 36.34268555 -14.23925781 35.98193359 C-12.05925851 35.02598536 -9.87131416 34.24944839 -7.6171875 33.48828125 C-3.85259295 31.9393498 -2.93175233 31.4232717 -1 28 C-0.49682807 24.90848769 -0.49682807 24.90848769 -0.48828125 21.484375 C-0.43510742 19.60878906 -0.43510742 19.60878906 -0.38085938 17.6953125 C-0.35830078 16.39335937 -0.33574219 15.09140625 -0.3125 13.75 C-0.27833984 12.43257812 -0.24417969 11.11515625 -0.20898438 9.7578125 C-0.1264984 6.50550829 -0.06157327 3.25276733 0 0 Z " fill="#A9C3D9" transform="translate(256,192)"/>
<path d="M0 0 C0.804375 0.53625 1.60875 1.0725 2.4375 1.625 C10.91664123 9.48371627 15.98227792 19.27362276 16.57275391 30.76806641 C16.83463711 43.20874241 13.88681178 52.77340262 5.75 62.5 C-2.17051716 70.60688227 -12.39507842 76.27033208 -23.84985352 76.51953125 C-24.64190186 76.51308594 -25.4339502 76.50664062 -26.25 76.5 C-27.08265381 76.49355469 -27.91530762 76.48710937 -28.77319336 76.48046875 C-40.52469076 76.13433415 -49.69966036 71.24115718 -58 63 C-66.57331499 52.46914163 -70.09657585 40.43740563 -69 27 C-67.040363 15.86794445 -60.77370215 6.03708297 -52 -1 C-35.52561483 -11.8225888 -16.07767391 -12.46019728 0 0 Z " fill="#4D5C67" transform="translate(293,265)"/>
<path d="M0 0 C56.76 0 113.52 0 172 0 C172 7.26 172 14.52 172 22 C115.24 22 58.48 22 0 22 C0 14.74 0 7.48 0 0 Z " fill="#4B5A65" transform="translate(298,469)"/>
<path d="M0 0 C0.80091064 0.00563965 1.60182129 0.0112793 2.42700195 0.01708984 C3.0324585 0.02434082 3.63791504 0.0315918 4.26171875 0.0390625 C4.29059689 3.51821191 4.30847562 6.99733081 4.32421875 10.4765625 C4.33259766 11.46978516 4.34097656 12.46300781 4.34960938 13.48632812 C4.35283203 14.43056641 4.35605469 15.37480469 4.359375 16.34765625 C4.36461182 17.22220459 4.36984863 18.09675293 4.37524414 18.99780273 C4.26171875 21.0390625 4.26171875 21.0390625 3.26171875 22.0390625 C1.57767153 22.31135133 -0.11077614 22.55659962 -1.80078125 22.7890625 C-11.15653023 24.42722866 -17.29939738 29.42113273 -22.92578125 36.9765625 C-26.12071936 42.3749062 -26.83901153 46.74417446 -27.73828125 53.0390625 C-34.66828125 53.0390625 -41.59828125 53.0390625 -48.73828125 53.0390625 C-49.32019653 37.90926535 -44.52150242 26.83995591 -34.3125 15.5859375 C-25.3199002 6.74953671 -12.78434207 -0.11718004 0 0 Z " fill="#4C5D68" transform="translate(262.73828125,63.9609375)"/>
<path d="M0 0 C4.99879308 4.1656609 8.29877793 8.97446587 9.421875 15.421875 C9.79063098 22.01850976 7.9480471 26.75666186 4 32 C-0.72289704 37.19138817 -5.93615657 39.03363439 -12.8125 39.4375 C-18.46449366 39.30130738 -22.58677909 37.49053567 -27 34 C-32.44133546 28.06517827 -33.31569201 22.79917142 -33.203125 15.00390625 C-32.78142943 8.76767755 -30.54294812 5.25502201 -26.0625 1.125 C-19.20157157 -4.77090381 -7.41333076 -5.24357542 0 0 Z " fill="#F0F0F0" transform="translate(279,281)"/>
<path d="M0 0 C7.26 0 14.52 0 22 0 C22 7.26 22 14.52 22 22 C14.74 22 7.48 22 0 22 C0 14.74 0 7.48 0 0 Z " fill="#4B5A65" transform="translate(490,469)"/>
<path d="M0 0 C7.26 0 14.52 0 22 0 C22 7.26 22 14.52 22 22 C14.74 22 7.48 22 0 22 C0 14.74 0 7.48 0 0 Z " fill="#4B5A65" transform="translate(0,469)"/>
</svg>
