<svg xmlns="http://www.w3.org/2000/svg" id="Layer_1" height="512" viewBox="0 0 52 52" width="512"><g id="Web_Maintenance"><g><g><g><g><g><path d="m34.3340149 41.371685v1.6900024c0 .2399902-.1599731.4799805-.4799805.6699829l-8.7000122 5.0599976c-.6499634.3699951-1.6900024.3699951-2.3200073 0-.0199585-.0199585-.039978-.0199585-.0599976-.039978l-9.9699697-6.460022v-1.6900024l9.7899771-5.6999512 11.1900024 5.7599487c.0200195.0100098.039978.0200195.0599976.0400391.3200073.1799927.4899902.4299927.4899902.6699829z" fill="#1d2943"></path></g></g><g><g><path d="m34.3320847 41.3690376v1.6974144c0 .2369194-.1552048.473793-.4737892.6616516l-8.7076607 5.064518c-.645298.3675919-1.6827202.3675919-2.319891 0-.016304-.0163536-.0408325-.0245323-.0571365-.0408363l-9.9738264-6.4613533v-1.6892395l9.9656496 6.4613533c.0244808.0163536.0408325.0244827.0653133.0408363.628994.359417 1.6664162.3675919 2.3117142 0l8.7158375-5.064518c.3185844-.1878585.4737892-.4247322.4737892-.6698265z" fill="#1d2943"></path></g></g><g><g><path d="m33.8490295 40.6971397c.6339149.3659515.6502113.9668732.0087242 1.3396683l-8.7151909 5.0647125c-.6414528.3727722-1.6789722.3652802-2.3127995-.0006599-.0215054-.0124168-.0425434-.0252266-.0630836-.0384674l-9.9705353-6.4648018 9.7929344-5.6910324 11.1933575 5.7541771c.0228844.011837.0451203.0240135.0665932.0364036z" fill="#4c5c75"></path></g></g><g><path d="m38.20401 3.9017131c-.0700073-.0400391-.1399536-.0600586-.2099609-.0800171.0599976.0100098.1199951.0299683.1699829.0599976.0100097 0 .0300293.0100098.039978.0200195z" fill="#1d2943"></path></g><g fill="#1d2943"><path d="m38.8840027 27.2717075-.1599731.0999756v.7800293h-.6799927v1.3599854h-1.8499756v3.2500019c-4.4200439 2.0700073-8.460022 5.1599731-12.8300171 7.3800049-4.2399902 2.1499634-7.9700308 4.9400024-12.3200064 6.5899658v-.2299805h-4.4199834v-.2700195h-2.6700437v-1.6699829h-.3899536l-.0500488-22.4299946c0-1.3099976.9200437-2.9000244 2.0500486-3.5499878l28.1599726-16.3000481c.5700073-.3299561 1.0800171-.3599854 1.460022-.1399536l2.9799805 1.7399902c-.0499878-.0300293-.1099854-.0499878-.1699829-.0599976.0700073.0199585.1399536.039978.2099609.0800171.3900146.1999514.6400146.6699831.6400146 1.3399661z"></path><path d="m38.20401 3.9017131c-.0700073-.0400391-.1399536-.0600586-.2099609-.0800171.0599976.0100098.1199951.0299683.1699829.0599976.0100097 0 .0300293.0100098.039978.0200195z"></path></g><g><path d="m35.1828384 2.1391766c-.3767891-.2173064-.8911438-.1883322-1.4635658.1449325l-28.1581311 16.2933197c-1.1303005.6592236-2.0504153 2.2459297-2.0431716 3.5500755l.0459781 22.4340611h.3871615v1.667366h2.6708435l-.0392256-22.3190841c-.0072436-1.3040848.9129329-2.8981571 2.0431719-3.5501366l28.1581926-16.3004413c.572361-.3260822 1.0867767-.354995 1.463501-.1376886z" fill="#4c5c75"></path></g><g><path d="m38.8450661 5.242362c-.003685-1.3075831-.9272385-1.8339069-2.0606079-1.1795936l-28.1568404 16.2973714c-1.1333079.6543751-2.0509062 2.243597-2.0471616 3.5511799l.0445662 22.5900459h4.4166007v.2296448c4.3497515-1.6540489 8.0788889-4.439743 12.3188829-6.5892372 4.3754711-2.2181816 8.4089012-5.3076172 12.837656-7.3766327v-3.2572651h1.8448334v-1.3513508h.6783752v-.7808914l.1672173-.1025772z" fill="#1d2943"></path></g><g><path d="m37.8811188 26.7633495-30.2663956 17.5163174-.0300059-20.3693619c-.0100021-.9492722.7194715-2.2082996 1.5387788-2.6879082l28.1581125-16.2972974c.2298012-.1299038.3697052-.1399059.4196548-.1399059.0599518.0200043.1399078.1499081.1399078.4596639z" fill="#fff"></path></g><g><path d="m37.8452568 8.5830345-30.2663951 17.5163193.0058556-2.1890488c-.0100021-.9492722.7194715-2.2082996 1.5387788-2.6879082l28.1581125-16.2972974c.2298012-.1299038.3697052-.1399059.4196548-.1399059.0599518.0200043.1399078.1499081.1399078.4596639z" fill="#b28afd"></path></g><g><path d="m38.8940125 29.8716831c0 1.3099976-.9099731 2.9000263-2.0499878 3.5499897l-28.1499625 16.2999878c-.6400146.3600464-1.2000127.3600464-1.5800176.0599976l-2.9400024-1.6900024c-.3599851-.2099609-.6199949-.6899414-.6099851-1.3399658v-2.6099854l3.0599973 1.7799683 32.2599487-18.6599751z" fill="#9ea9c9"></path></g><g><path d="m6.6219158 48.5171623.0030103-2.5923576-3.0618834-1.7815704.005578 2.6071167c-.0167892.6500664.2426116 1.1287003.6095643 1.3374023l3.0409446 1.7684441c-.3669525-.2159043-.5900069-.691433-.5972138-1.3390351z" fill="#9ea9c9"></path></g><g><path d="m38.8885117 27.266037.0053101 2.6094894c.0036926 1.3022652-.9138489 2.8915291-2.0471954 3.5458641l-28.1568538 16.2973366c-1.1333466.654335-2.0568852.1280212-2.0605774-1.1742439l-.0053992-2.6218567z" fill="#e3e7f0"></path></g><g><path d="m22.7553692 37.4251366c.5815544-.3357582 1.0513878-.0680733 1.0532837.600235.001894.6682549-.4648876 1.4766922-1.0464439 1.8124542s-1.0513382.0680466-1.0532322-.6002045c-.001896-.6683121.4648361-1.4767227 1.0463924-1.8124847z" fill="#1d2943"></path></g><g><g><path d="m31.1977043 9.6340561c.4334393-.250246.7862606-.0491934.7876854.4535713.0014114.4980679-.3491173 1.1051998-.7825565 1.3554468-.4334545.2502546-.7862606.0491924-.787672-.4488754-.0014268-.5027637.3490886-1.1098881.7825431-1.3601427z" fill="#fff"></path></g><g><path d="m33.7370605 8.1679592c.4334526-.2502546.7862587-.0491934.7876854.4535704.0014114.4980679-.3491058 1.1051922-.7825584 1.3554468s-.7903519.0515547-.7917633-.4465122c-.0014267-.5027647.3531799-1.1122504.7866363-1.362505z" fill="#fff"></path></g><g><path d="m36.276413 6.7018623c.4334526-.2502551.7821846-.0468397.7836075.455924.0014153.4980679-.3450241 1.1028385-.7784805 1.3530931-.4334373.250247-.7903481.0515547-.7917595-.4465132-.0014268-.5027636.3531913-1.1122573.7866325-1.3625039z" fill="#fff"></path></g></g><g><g><g><path d="m14.3457508 34.4271355.0015154.5346107-5.5218134 3.1880188-.0015154-.5346107z" fill="#e3e7f0"></path></g></g><g><g><path d="m13.1186657 36.3333893.0015154.5346107-3.060873 1.7671967-.0015154-.5346108z" fill="#e3e7f0"></path></g></g><g><g><path d="m14.320384 24.7603188.0234118 8.2583313-5.5218125 3.1880226-.0234127-8.2583332z" fill="#57b3fe"></path></g></g><g><g><path d="m20.5565872 32.0391045.0015145.5346107-3.0608731 1.7671929-.0015163-.5346108z" fill="#e3e7f0"></path></g></g><g><g><path d="m21.7836704 30.1328487.0015164.5346108-5.5218125 3.1880207-.0015163-.5346108z" fill="#e3e7f0"></path></g></g><g><g><path d="m21.7583046 20.4660339.0234127 8.2583313-5.5218143 3.1880207-.0234108-8.2583313z" fill="#dba660"></path></g></g><g><g><path d="m27.9945164 27.744812.0015163.5346108-3.060873 1.7671947-.0015164-.5346107z" fill="#e3e7f0"></path></g></g><g><g><path d="m29.2216015 25.8385563.0015163.5346107-5.5218239 3.1880265-.0015144-.5346108z" fill="#e3e7f0"></path></g></g><g><g><path d="m29.1962357 16.1717415.0234127 8.2583332-5.5218239 3.1880264-.0234127-8.2583332z" fill="#78e75a"></path></g></g><g><g><path d="m35.4324265 23.450531.0015182.5346108-3.0547523 1.7636623-.0015145-.5346127z" fill="#e3e7f0"></path></g></g><g><g><path d="m36.6656456 21.5407352.0015144.5346108-5.5279445 3.1915626-.0015164-.5346107z" fill="#e3e7f0"></path></g></g><g><g><path d="m36.6341553 11.8774567.0234146 8.2583313-5.5157013 3.1844921-.0234127-8.2583323z" fill="#febc1f"></path></g></g></g></g><path d="m46.914032 29.2816563-.2199707.1000366c-.1000366-.1600342-.210022-.3099976-.3300171-.4400024l.7999878-1.6199951-1.9799805-1.1500244-.7700195-.4299927-1 1.4899902c-.1799927-.039978-.3699951-.0499878-.5700073-.0499878l-.0299683-.210022-1.5599976-.9099731-1.6700439.960022-.1399536 1.5499878c-.7400513.5800171-1.4100342 1.3099976-2 2.1099854l-1.0100098-.3400269-1.1799927 2.0300312.8099976.7000122c-.4100342.9099731-.7000122 1.8699951-.8300171 2.789978l-1.2700195.9000244v1.9099731l1.5700073.9199829.1799927-.0899658c.1300049.1699829.2600098.3200073.3699951.4299927l-.7999878 1.6199951 1.5700073.9100342 1.1799927.6699829 1-1.4899902c.1699829.0299683.3400269.0499878.5200195.0499878l.0799561.210022 1.5600586.9099731 1.6699829-.960022.1400146-1.5499878c.7399902-.5800171 1.4099731-1.2999878 2.0099487-2.1199951l1 .3400269 1.1800537-2.0300293-.8100586-.6900024c.4100342-.9199829.7000122-1.8599854.8300171-2.789978l1.2700195-.9000244v-1.9099751zm-6.7399903 7.7200336c-.2999878.1699829-.5800171.2600098-.8500366.3200073-.0799561-.2600098-.1399536-.5400391-.1399536-.8800049 0-1.7600098 1.2299805-3.8900146 2.7600098-4.7800312.2999878-.1699829.5799561-.2699585.8599854-.3200073.0799561.25.1400146.5300293.1400146.8600483 0 1.7600098-1.2400513 3.9099732-2.7700196 4.7999878z" fill="#e93565"></path><g><g><g><g><path d="m41.1963539 42.813797-1.5667877-.9105186-.5621491-1.6116219 1.9756546 1.1481247z" fill="#df3260"></path></g></g><g><g><path d="m47.2093735 30.7593155-1.5667877-.9105167 1.2711944-.5622674 1.5667877.9105168z" fill="#df3260"></path></g></g><g><g><path d="m44.7283249 33.2452126c.0084648 1.7588043-1.2345543 3.9065399-2.7650375 4.7859154-.7694473.4481812-1.4712868.490448-1.9701462.194519l-1.7841988-1.0400887c.4989128.2959785 1.1922874.2537117 1.9617348-.1860008 1.5304871-.8878441 2.7735023-3.0356293 2.7735023-4.794384-.008461-.8709641-.3128548-1.4882164-.8117676-1.7757339l1.7926102 1.0400906c.490448.287466.8033028.9047183.8033028 1.7756824z" fill="#e93565"></path></g></g><g><g><path d="m45.9787331 26.6496887-1.5667878-.9105186.7761803.4308605 1.9756508 1.1481228z" fill="#c9cee2"></path></g></g><g><g><path d="m36.8511658 42.4592628-1.5667877-.9105148.7961463-1.6132011 1.5667878.9105186z" fill="#df3260"></path></g></g><g><g><path d="m44.9850502 28.1434593-1.5667877-.9105167.9936828-1.4937725 1.5667878.9105186z" fill="#df3260"></path></g></g><g><g><path d="m37.6473122 40.8460655-1.5667915-.9105072c-.4076118-.4513054-1.1110001-1.2947655-1.2506218-2.0655899l1.9756508 1.1481285c.1396217.7708168.4341468 1.3766747.8417625 1.8279686z" fill="#e93565"></path></g></g><g><g><path d="m42.9718742 28.3444939-1.5667992-.910511c.7342453-.2659931 1.4153061-.3227654 2.0131874-.2010403l1.5667763.9105225c-.5978698-.1217309-1.2789306-.0649586-2.0131645.2010288z" fill="#e93565"></path></g></g><g><g><path d="m35.5343933 39.5872154-1.5667877-.9105186-.0054207-1.9125557 1.5667877.9105148z" fill="#e93565"></path></g></g><g><g><path d="m35.5289726 37.6746559-1.5667877-.9105148 1.2702065-.9050141 1.5667877.9105187z" fill="#df3260"></path></g></g><g><g><path d="m41.0091591 29.4776688-1.5667877-.9105168.1450042-1.5462513 1.5667878.9105187z" fill="#df3260"></path></g></g><g><g><path d="m41.1541634 27.9314194-1.5667878-.9105187 1.6644478-.960968 1.5667877.9105167z" fill="#e93565"></path></g></g><g><g><path d="m36.7991791 36.7696457-1.5667992-.9105148c.1348305-.9223938.424942-1.8726501.8286934-2.7855301l1.5667839.9105263c-.4037476.9128723-.6938591 1.8631248-.8286781 2.7855186z" fill="#e93565"></path></g></g><g><g><path d="m39.0074043 31.594656-1.5667953-.9105148c.589283-.8071346 1.268425-1.535675 2.0017624-2.1169891l1.5667839.9105225c-.7333336.5813102-1.4124756 1.3098506-2.001751 2.1169814z" fill="#e93565"></path></g></g><g><g><path d="m37.627861 33.9841194-1.5667877-.9105186-.8026962-.6969643 1.5667877.9105187z" fill="#df3260"></path></g></g><g><g><path d="m36.8251648 33.2871552-1.5667877-.9105187 1.1773872-2.0324154 1.5667877.9105168z" fill="#e93565"></path></g></g><g><g><path d="m38.002552 31.2547379-1.5667877-.9105168 1.0048523.3399182 1.5667877.9105167z" fill="#df3260"></path></g></g><g><g><path d="m47.2093735 30.7593155 1.2711945-.5622673.0054245 1.9125595-1.2702446.8981552c-.1348.9292603-.4249153 1.8726578-.8286438 2.7923813l.8026772.6901169-1.1773872 2.0324173-.9988747-.3365288c-.5952339.8105698-1.2744141 1.5322762-2.0077324 2.1204567l-.1449852 1.5462189-1.6644478.9609718-.1532822-1.3740158c-.7342529.2591209-1.4152756.322731-2.0071983.1975632l-.9996605 1.490387-1.1850471-.6684685.7961464-1.6131973c-.4076157-.4512939-.7021408-1.0571518-.8417587-1.8279724l-1.2711601.5691223-.0054207-1.9125595 1.2702065-.9050102c.134819-.9223938.4249306-1.8726463.8286819-2.7855263l-.8026962-.6969643 1.1773872-2.0324173 1.0048523.3399181c.5892754-.8071308 1.2684174-1.5356712 2.0017548-2.1169872l.1450043-1.5462494 1.6644478-.9609699.1532631 1.3740444c.7342339-.2659874 1.4152946-.3227596 2.013176-.2010345l.9936829-1.4937706 1.1850433.6684647-.7961273 1.6200447c.4075963.4444484.7021252 1.0571612.8417241 1.8211173zm-5.2467728 7.2751999c1.5278282-.8820915 2.7708893-3.0289154 2.765892-4.7907181-.0049934-1.7617855-1.2561264-2.4623623-2.7839546-1.5802727-1.5332336.8852119-2.7654991 3.0195808-2.7605019 4.7813683.0049935 1.7618027 1.2453309 2.4748344 2.7785645 1.5896225" fill="#f45170"></path></g></g></g></g></g></g></g></svg>