<?xml version="1.0" encoding="UTF-8"?>
<svg version="1.1" xmlns="http://www.w3.org/2000/svg" width="3840" height="3840">
<path d="M0 0 C1.80405905 1.7329798 3.5640279 3.49097466 5.29550234 5.29598926 C6.96665446 6.96666399 8.69995251 8.48703597 10.50243127 10.01417184 C15.96374113 14.76622238 21.03894379 19.90124621 26.14859968 25.02325052 C27.2696226 26.14328081 28.39086451 27.26309193 29.51230387 28.38270526 C32.59568561 31.46233485 35.6759504 34.5450656 38.75571779 37.62830913 C42.11842619 40.99370325 45.48404441 44.35618527 48.84928873 47.71904323 C54.77040833 53.63676815 60.68966135 59.55635506 66.6077115 65.47714954 C75.46727592 74.3408038 84.3297191 83.20157556 93.19272902 92.06178441 C108.2969896 107.16144131 123.39886976 122.26347695 138.49946404 137.36680031 C153.80617713 152.67626291 169.11396855 167.98464603 184.4230957 183.29169464 C184.90582124 183.77435567 185.38854678 184.25701669 185.88590037 184.75430381 C190.3097405 189.1775524 194.73359181 193.60078981 199.15745656 198.02401379 C210.2510783 209.11603127 221.34452589 220.20822291 232.4378556 231.30053246 C232.94621086 231.80884082 233.45456612 232.31714918 233.97832609 232.84086082 C259.0426925 257.90294797 284.10515075 282.96694308 309.16742134 308.03112602 C310.26540262 309.12919094 311.36338391 310.22725586 312.46136519 311.32532077 C313.00552754 311.86952457 313.54968988 312.41372837 314.11034199 312.97442319 C321.28630096 320.15092867 328.46226487 327.32742919 335.63824201 334.5039165 C336.46101304 335.32674628 336.46101304 335.32674628 337.30040571 336.16619887 C362.71077892 361.57837275 388.12226627 386.9894324 413.53400087 412.40024491 C416.30561857 415.17176281 419.07723411 417.94328286 421.8488499 420.71480266 C430.20268705 429.06834923 438.55652739 437.42189262 446.91037429 445.77542945 C472.38528597 471.24939658 497.86002549 496.72353587 523.33461666 522.19782352 C523.90184587 522.76504586 524.46907508 523.3322682 525.05349305 523.9166791 C561.79281972 560.65556698 598.53137641 597.39522474 635.26937962 634.13543606 C635.8559385 634.72203006 636.44249738 635.30862406 637.04683078 635.91299364 C656.69411795 655.56145718 676.34136527 675.20996057 695.98860853 694.85846802 C755.40390358 754.27758355 814.82006188 813.69583545 920.93404049 919.80378465 C940.57756529 939.44604625 960.22108274 959.0883152 979.86456394 978.73062038 C980.45099247 979.31701367 981.037421 979.90340695 981.64162009 980.50756973 C1018.36245096 1017.22619554 1055.08267044 1053.94543267 1091.80217648 1090.66538334 C1092.36921138 1091.232425 1092.93624628 1091.79946665 1093.52046406 1092.38369139 C1118.98056786 1117.84410191 1144.44050588 1143.30467821 1169.90029052 1168.76540789 C1178.25016059 1177.11558751 1186.60003828 1185.46575953 1194.94991854 1193.81592896 C1197.7198403 1196.58594671 1200.48976137 1199.35596513 1203.25968087 1202.12598514 C1228.67125049 1227.53847406 1254.08314712 1252.95063584 1279.4960835 1278.36175799 C1280.04428934 1278.90992487 1280.59249519 1279.45809174 1281.15731334 1280.02286973 C1288.32975773 1287.19480233 1295.50221755 1294.3667195 1302.67467923 1301.53863481 C1303.21845451 1302.08236867 1303.76222979 1302.62610254 1304.3224831 1303.18631318 C1305.4195526 1304.28329912 1306.51662214 1305.38028503 1307.61369171 1306.4772709 C1332.64308566 1331.50476013 1357.67218057 1356.53254817 1382.69946754 1381.5621444 C1383.20710781 1382.06983135 1383.71474808 1382.57751831 1384.23777138 1383.10058972 C1395.31182426 1394.17567266 1406.3857324 1405.25090032 1417.45949818 1416.32627033 C1421.87575375 1420.7431618 1426.29202698 1425.16003563 1430.70830536 1429.5769043 C1431.19004975 1430.0587141 1431.67179414 1430.54052391 1432.16813685 1431.03693402 C1447.92250213 1446.79342168 1463.67854918 1462.54822628 1479.4353992 1478.30222913 C1494.43634131 1493.30053165 1509.43550646 1508.30060925 1524.43275804 1523.30260206 C1533.23473934 1532.10725958 1542.03809443 1540.91053819 1550.84345439 1549.71181681 C1556.68373889 1555.54966595 1562.52222364 1561.38931084 1568.35921918 1567.23044846 C1571.67289775 1570.54637646 1574.98735923 1573.86151131 1578.30403196 1577.17444472 C1581.31335174 1580.18040084 1584.3203616 1583.18864776 1587.32554829 1586.19873576 C1588.40357214 1587.277715 1589.48243005 1588.35586176 1590.56223254 1589.43306101 C1596.2552958 1595.113347 1601.80304503 1600.85744235 1607 1607 C1608.24716797 1608.44246094 1608.24716797 1608.44246094 1609.51953125 1609.9140625 C1619.607829 1621.84128336 1628.24695521 1634.44465352 1636 1648 C1636.33741211 1648.57766113 1636.67482422 1649.15532227 1637.02246094 1649.75048828 C1656.58937949 1683.41513303 1665.50127478 1723.3646805 1665.3125 1762.0625 C1665.31034485 1762.86570679 1665.3081897 1763.66891357 1665.30596924 1764.49645996 C1665.00570959 1834.66002383 1634.08360557 1892.15598821 1585.33356088 1940.79293895 C1584.20464755 1941.9229729 1583.07595284 1943.0532253 1581.94745328 1944.18367246 C1578.86643791 1947.26875529 1575.78236009 1950.35076009 1572.69774086 1953.43223901 C1569.32214148 1956.80552077 1565.94946681 1960.18172475 1562.57640406 1963.55754262 C1556.64845824 1969.48953111 1550.71866424 1975.41966705 1544.78765159 1981.34858915 C1535.9087403 1990.22438803 1527.03271438 1999.10306826 1518.15723785 2007.9823016 C1503.02952567 2023.11624551 1487.89943568 2038.24781018 1472.76804543 2053.37807655 C1457.43488615 2068.7101113 1442.10280326 2084.04322122 1426.77204132 2099.37765312 C1425.79382414 2100.35610229 1424.81560695 2101.33455145 1423.83738976 2102.3130006 C1419.89308969 2106.25824023 1415.94879799 2110.20348823 1412.00451582 2114.14874574 C1400.88701789 2125.26898872 1389.76933717 2136.38904894 1378.65153039 2147.50898314 C1378.14210882 2148.01850225 1377.63268726 2148.52802136 1377.10782868 2149.05298045 C1348.14803089 2178.01828122 1319.18563484 2206.98098381 1290.22329112 2235.94373886 C1285.79681708 2240.37027615 1281.37034467 2244.79681508 1276.9438744 2249.22335614 C1275.83440129 2250.33284694 1274.72492803 2251.44233757 1273.61545461 2252.55182805 C1248.70984144 2277.45782909 1223.80512385 2302.36472557 1198.90059853 2327.27181438 C1193.34152272 2332.83146175 1187.78243813 2338.39110032 1182.22335409 2343.95073946 C1181.67153992 2344.50260875 1181.11972576 2345.05447803 1180.55118995 2345.62307063 C1177.2015658 2348.97302929 1173.85194127 2352.32298758 1170.50231651 2355.67294563 C1168.82432441 2357.35110482 1167.14633251 2359.02926422 1165.46834064 2360.70742364 C1139.37961685 2386.7987492 1113.29070734 2412.88988904 1087.2016077 2438.98083878 C1086.63318642 2439.54930043 1086.06476513 2440.11776209 1085.47911895 2440.70344986 C1049.26182664 2476.92330497 1013.04370284 2513.1423285 976.82499768 2549.3607708 C975.0442229 2551.14153282 973.26344852 2552.92229524 971.48267427 2554.7030578 C958.97212541 2567.21352431 946.46156637 2579.72398065 933.95100477 2592.23443442 C930.36398484 2595.82142359 926.77696525 2599.4084131 923.18994572 2602.99540266 C920.19790587 2605.98741741 917.20586567 2608.97943182 914.21382476 2611.97144551 C857.6925306 2668.49222815 801.17220273 2725.01397636 744.65588379 2781.53973389 C743.76315345 2782.43261327 743.76315345 2782.43261327 742.85238815 2783.34353061 C724.25639827 2801.94263194 705.66053591 2820.54186076 687.06469727 2839.14111328 C667.98361103 2858.22570093 648.90250932 2877.31027311 629.82131863 2896.39475632 C629.23379763 2896.98237884 628.64627663 2897.57000137 628.04095196 2898.17543064 C591.24908363 2934.9736476 554.45600222 2971.77065128 517.66159916 3008.56633377 C517.0933734 3009.13457956 516.52514764 3009.70282535 515.93970291 3010.28829071 C490.98546643 3035.24340249 466.0309522 3060.19823653 441.07613506 3085.15276767 C431.037132 3095.19165645 420.99815805 3105.23057433 410.95919565 3115.26950377 C409.2947 3116.93399301 407.63020302 3118.59848091 405.96570574 3120.26296852 C380.50438868 3145.72414909 355.04381338 3171.18607078 329.58548236 3196.65023708 C329.03642824 3197.19941687 328.48737412 3197.74859666 327.921682 3198.31441826 C319.08951467 3207.14861461 310.25740485 3215.98286845 301.42529991 3224.81712717 C276.35546478 3249.89307076 251.28509817 3274.96848199 226.21114647 3300.04030943 C225.70244255 3300.54897064 225.19373862 3301.05763185 224.66961943 3301.58170704 C213.57174121 3312.67863193 202.4735818 3323.77527556 191.37514648 3334.87164328 C186.9489222 3339.29705123 182.52273427 3343.72249554 178.09655762 3348.14795113 C177.6137365 3348.63069159 177.13091538 3349.11343206 176.63346332 3349.61080102 C160.85099113 3365.39067226 145.0718939 3381.17391317 129.29440906 3396.95877088 C114.26990879 3411.99015211 99.24186019 3427.01797794 84.20999435 3442.04199344 C75.39070724 3450.85688872 66.57417989 3459.67452294 57.76166543 3468.49618915 C51.91310708 3474.3502767 46.06094771 3480.20074765 40.20581359 3486.04825821 C36.884034 3489.36591638 33.56383402 3492.68511308 30.24805407 3496.00876842 C27.23659479 3499.02732179 24.2205304 3502.04119434 21.20080804 3505.05148076 C20.12156011 3506.12894624 19.04395802 3507.20806368 17.96828088 3508.28909404 C11.30109344 3514.98720242 4.41730021 3521.1415358 -3 3527 C-4.09568321 3527.89245488 -5.19085076 3528.78554383 -6.28515625 3529.6796875 C-46.91978876 3561.79876411 -97.6765768 3578.21300944 -149.1875 3578.25 C-150.03248047 3578.25067474 -150.87746094 3578.25134949 -151.74804688 3578.25204468 C-165.36795437 3578.23480714 -178.59325026 3577.57636802 -192 3575 C-192.88929199 3574.83371094 -193.77858398 3574.66742187 -194.69482422 3574.49609375 C-229.74773653 3567.74673641 -262.54664122 3553.55811676 -291 3532 C-291.55429688 3531.5884668 -292.10859375 3531.17693359 -292.6796875 3530.75292969 C-299.55621765 3525.63910456 -306.03899996 3520.1878441 -312.26967847 3514.30448771 C-312.99213969 3513.62275147 -313.7146009 3512.94101523 -314.45895488 3512.23862032 C-325.4799694 3501.76604194 -336.17901638 3490.96063176 -346.92236214 3480.20504652 C-350.29654257 3476.82815413 -353.67366372 3473.45420456 -357.05038863 3470.07985687 C-362.97773755 3464.15588578 -368.90324268 3458.23007551 -374.82752462 3452.30303735 C-383.69627851 3443.43017602 -392.56793257 3434.56021857 -401.44013696 3425.69080765 C-416.56358125 3410.57195608 -431.68465875 3395.4507394 -446.80443954 3380.32822418 C-462.1218834 3365.00802704 -477.4404109 3349.68891469 -492.76026917 3334.3711319 C-493.24403744 3333.88742813 -493.72780572 3333.40372437 -494.22623365 3332.90536291 C-498.6598697 3328.47231843 -503.09351692 3324.03928511 -507.52717755 3319.60626522 C-518.64333484 3308.4917118 -529.75931826 3297.3769845 -540.87518382 3286.26213932 C-541.38446827 3285.75290177 -541.89375272 3285.24366422 -542.41847003 3284.71899523 C-567.5051735 3259.63456892 -592.5899714 3234.54823724 -617.67457962 3209.4617157 C-618.77298768 3208.36322401 -619.87139573 3207.26473232 -620.9698038 3206.16624063 C-621.51417924 3205.62182372 -622.05855469 3205.07740682 -622.61942637 3204.51649243 C-629.79846811 3197.33690416 -636.9775148 3190.15732086 -644.15657473 3182.97775078 C-644.70534799 3182.42893836 -645.25412124 3181.88012594 -645.819524 3181.31468284 C-671.2594411 3155.87296384 -696.70047378 3130.43236052 -722.14175267 3104.99200329 C-724.91784298 3102.21601278 -727.69393114 3099.44002012 -730.47001954 3096.66402769 C-738.83754596 3088.29679187 -747.20507555 3079.92955922 -755.5726117 3071.56233314 C-781.08732104 3046.04856826 -806.60185829 3020.5346313 -832.11624718 2995.02054596 C-832.68431115 2994.45248885 -833.25237512 2993.88443175 -833.83765316 2993.29916079 C-870.61980531 2956.51744729 -907.40118793 2919.73496437 -944.18201637 2882.95192719 C-944.76909028 2882.36481816 -945.35616419 2881.77770913 -945.96102821 2881.17280892 C-965.62479253 2861.50786828 -985.28851698 2841.84288776 -1004.95223735 2822.17790316 C-1064.42828893 2762.69803033 -1123.90520503 2703.21902241 -1230.14418243 2596.98607341 C-1249.81527834 2577.3162407 -1269.4863669 2557.64640066 -1289.1574192 2537.97652435 C-1289.74467971 2537.38929909 -1290.33194022 2536.80207383 -1290.9369965 2536.19705386 C-1327.70920444 2499.42705093 -1364.48080105 2462.65643673 -1401.25168419 2425.88510895 C-1401.81949135 2425.31729503 -1402.38729851 2424.74948112 -1402.97231194 2424.16446072 C-1428.4666306 2398.66983536 -1453.96078346 2373.17504422 -1479.45478294 2347.68009969 C-1487.81562987 2339.31894321 -1496.17648441 2330.95779434 -1504.53734153 2322.59664805 C-1507.31085522 2319.82303837 -1510.08436823 2317.04942801 -1512.85787966 2314.27581607 C-1538.30024866 2288.83252784 -1563.74294451 2263.3895666 -1589.18668032 2237.94764519 C-1590.00990399 2237.12447997 -1590.00990399 2237.12447997 -1590.84975845 2236.28468515 C-1598.03004154 2229.10491386 -1605.21034005 2221.92515799 -1612.39064044 2214.74540399 C-1613.20718024 2213.9289263 -1613.20718024 2213.9289263 -1614.04021579 2213.09595412 C-1615.13846186 2211.99779161 -1616.23670797 2210.89962914 -1617.33495411 2209.8014667 C-1642.39012058 2184.74820488 -1667.44498811 2159.69464436 -1692.49804759 2134.63927555 C-1693.00619355 2134.1310829 -1693.51433951 2133.62289025 -1694.03788383 2133.09929783 C-1705.12279856 2122.01335305 -1716.20756854 2110.92726356 -1727.29219615 2099.8410317 C-1731.71269777 2095.41989419 -1736.13321704 2090.99877432 -1740.55374146 2086.57765961 C-1741.0359466 2086.09538904 -1741.51815175 2085.61311848 -1742.01496917 2085.11623366 C-1757.78426855 2069.3448119 -1773.55524971 2053.57507317 -1789.32703383 2037.80613624 C-1804.34188976 2022.79391987 -1819.3549688 2007.77992847 -1834.36613419 1992.76402179 C-1843.17610165 1983.95137813 -1851.98744286 1975.14011335 -1860.80078898 1966.33084859 C-1866.64627746 1960.48779546 -1872.48996622 1954.64294661 -1878.33216573 1948.796605 C-1881.64877984 1945.47774145 -1884.96617688 1942.15967105 -1888.28578515 1938.84380209 C-1891.2977469 1935.83520396 -1894.3073988 1932.82431509 -1897.31522746 1929.81158507 C-1898.39420291 1928.73165422 -1899.47401244 1927.65255588 -1900.55476652 1926.57440501 C-1934.76875427 1892.43713735 -1958.7418177 1851.19939119 -1968.8125 1803.6875 C-1969.00739014 1802.77073486 -1969.20228027 1801.85396973 -1969.40307617 1800.90942383 C-1972.41036916 1785.85705429 -1973.411426 1770.94158157 -1973.375 1755.625 C-1973.37445618 1754.75593018 -1973.37391235 1753.88686035 -1973.37335205 1752.99145508 C-1973.32961704 1737.6904986 -1972.15799238 1723.01127883 -1969 1708 C-1968.78569336 1706.97036133 -1968.57138672 1705.94072266 -1968.35058594 1704.87988281 C-1957.14045764 1652.71280833 -1928.56229189 1612.19939644 -1891.43802261 1575.19192696 C-1889.55787201 1573.31029493 -1887.67812316 1571.42826908 -1885.79885006 1569.54576141 C-1881.71677503 1565.45824957 -1877.63103785 1561.37442791 -1873.54282334 1557.29305698 C-1867.42282624 1551.18326429 -1861.30867664 1545.06764388 -1855.19561376 1538.95091424 C-1844.77469149 1528.52407504 -1834.34905987 1518.10195642 -1823.92083359 1507.68242264 C-1813.35804764 1497.12840251 -1802.79745839 1486.5721915 -1792.23952866 1476.01331329 C-1791.57190907 1475.34563632 -1790.90428949 1474.67795935 -1790.216439 1473.99004975 C-1786.81206836 1470.58536634 -1783.40773329 1467.18064738 -1780.00341078 1463.77591585 C-1755.38198482 1439.15167713 -1730.75572922 1414.53227321 -1706.12689972 1389.91543961 C-1681.74041176 1365.5408011 -1657.35599882 1341.16408979 -1632.9743576 1316.78460312 C-1632.21683981 1316.02715415 -1631.45932201 1315.26970517 -1630.67884913 1314.4893032 C-1623.75997686 1307.57105734 -1616.8411301 1300.65278596 -1609.92231395 1293.73448397 C-1592.72378262 1276.53723135 -1575.52493138 1259.34029869 -1558.32586288 1242.1435833 C-1557.54270104 1241.36052809 -1556.7595392 1240.57747288 -1555.95264517 1239.77068872 C-1517.86682182 1201.69010698 -1479.77731273 1163.61321242 -1441.6875 1125.53662109 C-1428.47136148 1112.32506594 -1415.25523927 1099.11349448 -1402.03918457 1085.90185547 C-1401.21951087 1085.08245567 -1400.39983718 1084.26305587 -1399.55532488 1083.41882578 C-1361.44262091 1045.31881265 -1323.33253755 1007.21617865 -1285.22312892 969.11286941 C-1282.74868942 966.63882603 -1280.27424879 964.16478379 -1277.79980792 961.69074177 C-1261.40140367 945.29497711 -1245.00304457 928.8991673 -1228.60471569 912.50332725 C-1195.97679722 879.88036165 -1163.34861353 847.25766131 -1130.7202476 814.63514326 C-1129.16643982 813.08161396 -1127.61263223 811.52808448 -1126.05882482 809.97455481 C-1056.12016983 740.04840415 -986.17842988 670.12533952 -916.23535156 600.20361328 C-915.58050512 599.54896671 -914.92565868 598.89432014 -914.25096841 598.2198358 C-881.500834 565.47970208 -848.75052594 532.73974207 -816 500 C-812.91468887 501.47671599 -810.7833071 502.96694126 -808.35703564 505.39407539 C-807.64625903 506.1002532 -806.93548243 506.80643101 -806.20316714 507.53400815 C-805.42973084 508.31258801 -804.65629454 509.09116787 -803.85942078 509.89334106 C-803.03198091 510.71836652 -802.20454104 511.54339197 -801.35202724 512.39341819 C-799.05641353 514.68436719 -796.76534747 516.97975461 -794.47612393 519.27708578 C-792.00588148 521.75390413 -789.52988238 524.22495595 -787.05459595 526.69673157 C-782.20518361 531.54109959 -777.36113433 536.39079658 -772.51886972 541.2423081 C-766.87695355 546.89460996 -761.22981223 552.54167931 -755.58245812 558.18854712 C-745.50145625 568.26904816 -735.42529539 578.35437437 -725.35180664 588.44238281 C-715.58458932 598.22367104 -705.81389382 608.00146712 -696.03930664 617.77539062 C-695.43795525 618.37670205 -694.83660387 618.97801348 -694.21702971 619.59754647 C-693.31654176 620.49797389 -693.31654176 620.49797389 -692.39786214 621.41659176 C-681.26505169 632.54871123 -670.13553965 643.68412319 -659.00754779 654.82105932 C-655.07665543 658.75496199 -651.14479274 662.68789324 -647.21262169 666.62051773 C-642.4143618 671.41946181 -637.6180112 676.22030522 -632.82398923 681.02348299 C-630.37982741 683.47224342 -627.93490868 685.92023425 -625.48781395 688.36606407 C-622.83006381 691.02332163 -620.17541838 693.68364329 -617.52153015 696.34475708 C-616.75478602 697.10995261 -615.98804188 697.87514815 -615.19806308 698.66353142 C-611.22762966 702.65178066 -607.45269643 706.73664495 -603.77724284 710.99678981 C-600.52421453 714.66342406 -597.03700988 718.09658868 -593.56544495 721.55480957 C-592.7427535 722.37835544 -591.92006205 723.20190131 -591.07244056 724.05040312 C-588.80974221 726.31445488 -586.54483619 728.57626974 -584.2789427 730.83712292 C-581.82800405 733.28371686 -579.37998309 735.7332273 -576.93159485 738.18237305 C-572.69626428 742.41822631 -568.45911614 746.65225426 -564.22070503 750.88502502 C-558.09278207 757.00479848 -551.9676436 763.12735271 -545.84316706 769.25057501 C-535.90496989 779.18658707 -525.96454464 789.12036694 -516.02270508 799.05273438 C-506.36885981 808.6973915 -496.71607219 818.34310515 -487.06469727 827.99023438 C-486.46913721 828.5855317 -485.87357716 829.18082903 -485.25996984 829.79416567 C-482.2720328 832.78079761 -479.28411646 835.76745026 -476.29621041 838.7541132 C-451.53401486 863.50595299 -426.76819781 888.25416649 -402 913 C-402.3148938 913.92798904 -402.6297876 914.85597809 -402.95422363 915.81208801 C-404.14374942 919.32209036 -405.32651005 922.83434365 -406.50744629 926.34724426 C-407.01526404 927.85486577 -407.52481014 929.36190644 -408.03625488 930.86830139 C-431.75719349 1000.76908643 -426.97287736 1076.69573448 -395.03125 1143.2890625 C-384.54471956 1164.45625746 -371.55072975 1184.20864957 -356 1202 C-355.53819336 1202.52948242 -355.07638672 1203.05896484 -354.60058594 1203.60449219 C-351.48268624 1207.14827322 -348.2724477 1210.59841921 -345 1214 C-344.4519873 1214.56992676 -343.90397461 1215.13985352 -343.33935547 1215.72705078 C-335.95333221 1223.36044295 -328.41353607 1230.49051735 -320 1237 C-318.99582031 1237.79792969 -317.99164062 1238.59585937 -316.95703125 1239.41796875 C-296.52003667 1255.55872839 -274.64067205 1266.69359163 -251 1278 C-251 1608 -251 1938 -251 2278 C-263.23125 2284.115625 -263.23125 2284.115625 -269.03051758 2286.96362305 C-288.39673163 2296.53266038 -306.60683368 2307.87294785 -323 2322 C-324.09258063 2322.9102596 -325.18640544 2323.81902718 -326.28125 2324.7265625 C-338.69935934 2335.09117443 -350.047234 2346.22375428 -360 2359 C-360.87857473 2360.08986059 -361.75886862 2361.17833692 -362.640625 2362.265625 C-394.35071436 2401.59082203 -414.06214141 2449.04199089 -421 2499 C-421.11714355 2499.83708496 -421.23428711 2500.67416992 -421.35498047 2501.53662109 C-430.44111114 2569.97287124 -411.64419005 2644.13874695 -370.0612793 2699.38085938 C-368.07866091 2701.95148012 -366.04399913 2704.47805083 -364 2707 C-363.27425781 2707.9178125 -362.54851562 2708.835625 -361.80078125 2709.78125 C-349.98376095 2724.54722151 -336.84784403 2738.27801787 -322 2750 C-320.90556985 2750.88457582 -319.81184547 2751.7700254 -318.71875 2752.65625 C-261.97315555 2798.36955042 -188.01837791 2819.23934131 -115.6796875 2811.6875 C-51.72246562 2804.29003819 16.24649626 2774.2528338 58.3125 2723.99609375 C60.20175969 2721.76134444 62.1926439 2719.64090806 64.1875 2717.5 C102.72298432 2674.70464071 126.8029474 2616.25638228 131 2559 C131.06703125 2558.09475586 131.1340625 2557.18951172 131.203125 2556.25683594 C136.30720643 2481.29063988 111.63804194 2408.52537577 62.5390625 2351.84375 C59.1699657 2348.07036159 55.65073146 2344.49896895 52 2341 C47 2336 47 2336 45.08203125 2334.01171875 C32.49276055 2321.11050152 17.74547967 2310.51309352 2.5625 2300.875 C1.84900391 2300.42084717 1.13550781 2299.96669434 0.40039062 2299.4987793 C-7.25625715 2294.70998953 -15.10380732 2290.44160838 -23 2286 C-23 1959.3 -23 1632.6 -23 1296 C-18.75225941 1298.1238703 -15.97435875 1300.74177114 -12.67973614 1304.05461502 C-12.04505778 1304.68488851 -11.41037942 1305.31516201 -10.75646839 1305.9645347 C-8.61678508 1308.09184117 -6.48431983 1310.22624056 -4.35173035 1312.36065674 C-2.80943091 1313.89707494 -1.26670363 1315.43306378 0.276416 1316.96865821 C4.52665716 1321.20078662 8.77056935 1325.43921294 13.0134567 1329.67871213 C17.58590362 1334.24541084 22.16402857 1338.80641144 26.74133301 1343.36824036 C37.27499982 1353.86822058 47.7995451 1364.37732218 58.32289045 1374.88764517 C63.5209115 1380.07912536 68.72007323 1385.26946259 73.91933017 1390.45970499 C91.71029835 1408.21995217 109.49876529 1425.98270021 127.27982044 1443.75287247 C128.3960118 1444.86836743 129.5122038 1445.98386176 130.62839643 1447.09935544 C131.18193331 1447.65254679 131.73547019 1448.20573815 132.30578092 1448.77569287 C135.11033943 1451.57849792 137.91490687 1454.38129403 140.71948242 1457.18408203 C141.27605796 1457.74030803 141.8326335 1458.29653403 142.40607496 1458.86961536 C160.46551683 1476.9175252 178.53882863 1494.951461 196.62037248 1512.97722578 C215.7293616 1532.02737356 234.8256397 1551.090172 253.90747756 1570.16751742 C256.00051755 1572.2599684 258.09361052 1574.35236637 260.18674278 1576.44472504 C260.70213933 1576.95994263 261.21753588 1577.47516022 261.74855051 1578.00599046 C270.05586092 1586.30981298 278.37472843 1594.60196402 286.69776605 1602.89001941 C295.05580578 1611.21350537 303.40060716 1619.55007566 311.73288629 1627.89935026 C316.25045227 1632.42540284 320.77359786 1636.94549732 325.31200981 1641.45065498 C329.46135244 1645.56986075 333.59441429 1649.70468537 337.7147586 1653.85289177 C339.21319461 1655.35569862 340.71765041 1656.85253039 342.22844861 1658.34290877 C344.27175047 1660.36029546 346.29257259 1662.39776797 348.30894184 1664.44202042 C348.90884631 1665.02410749 349.50875079 1665.60619456 350.12683418 1666.20592064 C351.73711425 1667.86542344 351.73711425 1667.86542344 354 1671 C353.90946311 1674.23322272 353.90946311 1674.23322272 353 1677 C352.71608398 1677.93271729 352.43216797 1678.86543457 352.13964844 1679.82641602 C351.7996582 1680.79248779 351.45966797 1681.75855957 351.109375 1682.75390625 C350.73184082 1683.84509766 350.35430664 1684.93628906 349.96533203 1686.06054688 C349.56427246 1687.21619141 349.16321289 1688.37183594 348.75 1689.5625 C325.22309065 1758.88734321 330.32398591 1835.38136171 362.56347656 1901.13671875 C368.61923689 1913.20707176 375.09602483 1925.02945522 383 1936 C383.43393066 1936.60231445 383.86786133 1937.20462891 384.31494141 1937.82519531 C394.45093912 1951.81043812 405.39189762 1964.55183238 417.5625 1976.8125 C418.42480225 1977.68414795 419.28710449 1978.5557959 420.17553711 1979.45385742 C452.36390968 2011.48374165 494.46856937 2033.90793594 538 2046 C538.78665039 2046.21994629 539.57330078 2046.43989258 540.38378906 2046.66650391 C610.75344905 2065.88771564 686.88472345 2054.54525414 750.23046875 2019.12109375 C767.44827908 2009.20071137 783.23570216 1997.26824048 798 1984 C798.57508301 1983.48663086 799.15016602 1982.97326172 799.74267578 1982.44433594 C805.58113637 1977.21610536 811.32673322 1971.98125431 816.35546875 1965.94921875 C817.50668741 1964.58471018 818.70121352 1963.25611628 819.92578125 1961.95703125 C868.23511311 1910.64492556 891.02039617 1837.12515031 889.15234375 1767.66162109 C886.65337013 1707.59814934 865.03059145 1649.60256603 827 1603 C826.57106445 1602.46955078 826.14212891 1601.93910156 825.70019531 1601.39257812 C813.96272045 1586.96083858 800.80980381 1573.28998497 786 1562 C785.02417969 1561.21882813 784.04835938 1560.43765625 783.04296875 1559.6328125 C726.00623347 1514.20840005 651.67136488 1494.70441289 579.59350586 1502.58740234 C562.92678522 1504.60098302 546.72442601 1508.19102311 530.68359375 1513.12036133 C529.87664063 1513.3655249 529.0696875 1513.61068848 528.23828125 1513.86328125 C527.53743408 1514.08282471 526.83658691 1514.30236816 526.11450195 1514.52856445 C523.40765591 1515.13206517 521.79162344 1515.41916756 519 1515 C516.42591121 1513.20054624 514.29941714 1510.98011467 512.10099125 1508.74695683 C511.41589661 1508.07092697 510.73080198 1507.39489712 510.0249469 1506.69838151 C507.7125359 1504.41039964 505.41845897 1502.10485782 503.12379456 1499.79908752 C501.46093335 1498.14627576 499.79699312 1496.49454898 498.13206333 1494.84382099 C494.02644703 1490.76742801 489.93267913 1486.6794011 485.84369093 1482.58633423 C480.94688364 1477.6859021 476.03572586 1472.79994876 471.12418438 1467.91429197 C460.94079282 1457.78341382 450.77471859 1447.63527526 440.61431695 1437.48134697 C432.76981996 1429.64189464 424.92153759 1421.80625204 417.07056999 1413.97327995 C414.8126829 1411.72046842 412.55482053 1409.4676321 410.29696888 1407.21478504 C409.73569977 1406.65476032 409.17443065 1406.0947356 408.59615339 1405.51774044 C392.80422322 1389.76046987 377.01798686 1373.99751361 361.24284458 1358.2234354 C360.6478144 1357.62845254 360.05278422 1357.03346969 359.43972282 1356.42045705 C356.42370292 1353.40466119 353.40771881 1350.38882956 350.39173902 1347.3729936 C349.79272658 1346.77401263 349.19371414 1346.17503166 348.5765498 1345.55789975 C347.36520046 1344.346614 346.15385495 1343.13532443 344.94251325 1341.92403104 C326.0907111 1323.07329655 307.21725786 1304.24447404 288.32739258 1285.43188477 C267.11708624 1264.30832657 245.92545413 1243.16626841 224.75971931 1221.99804443 C222.50411915 1219.7423172 220.24844516 1217.48666382 217.99271965 1215.23106194 C217.43729081 1214.67564225 216.88186198 1214.12022256 216.30960196 1213.54797198 C207.35882493 1204.59822381 198.39037669 1195.6663879 189.41567774 1186.74063614 C180.4015469 1177.77470403 171.40802531 1168.78850391 162.43517519 1159.78125633 C157.57057819 1154.89907779 152.69752214 1150.02614163 147.79921341 1145.17776489 C143.32047807 1140.7429408 138.86763949 1136.28375669 134.43452143 1131.80334567 C132.82186255 1130.18252931 131.19974903 1128.57105742 129.56767935 1126.96978826 C127.35827339 1124.79939211 125.18514831 1122.59820294 123.01812077 1120.38561344 C122.04496328 1119.45365782 122.04496328 1119.45365782 121.05214605 1118.50287482 C116.97243999 1114.23721664 116.97243999 1114.23721664 117.05236631 1110.64918571 C117.54882623 1108.345776 118.19873918 1106.21356997 119 1104 C119.39904541 1102.47161499 119.39904541 1102.47161499 119.80615234 1100.91235352 C120.06348145 1099.99381592 120.32081055 1099.07527832 120.5859375 1098.12890625 C124.85596372 1082.53201102 127.99497427 1067.04732594 130 1051 C130.1546875 1049.87307739 130.1546875 1049.87307739 130.3125 1048.72338867 C131.41281168 1039.68216688 131.24396837 1030.53105861 131.25 1021.4375 C131.25067474 1020.52404816 131.25134949 1019.61059631 131.25204468 1018.66946411 C131.23477804 1003.92521171 130.56365368 989.54923927 128 975 C127.83371094 974.0296582 127.66742187 973.05931641 127.49609375 972.05957031 C122.26169408 942.38827884 112.06521948 914.57215356 98 888 C97.66033203 887.35256836 97.32066406 886.70513672 96.97070312 886.03808594 C89.19209151 871.32825336 79.68875334 857.7465881 69 845 C68.59410645 844.50532227 68.18821289 844.01064453 67.77001953 843.50097656 C56.20005655 829.40951852 43.50562856 816.09253949 29 805 C27.9996875 804.2059375 26.999375 803.411875 25.96875 802.59375 C13.09652508 792.41993505 -0.53969504 783.73383405 -15 776 C-15.61359375 775.66790527 -16.2271875 775.33581055 -16.859375 774.99365234 C-42.67370789 761.12810121 -71.07794635 751.62068313 -100 747 C-100.9178125 746.85046875 -101.835625 746.7009375 -102.78125 746.546875 C-143.29083738 740.23086406 -186.68493433 742.84095215 -225.73852539 755.47607422 C-232.41977564 757.60891835 -232.41977564 757.60891835 -236 757 C-238.65490943 755.10519641 -240.86455442 752.79620918 -243.14330006 750.47193909 C-243.85480948 749.76619889 -244.5663189 749.06045869 -245.29938921 748.33333242 C-247.70169926 745.94435047 -250.0856317 743.53781613 -252.47016907 741.13110352 C-254.19758355 739.40586761 -255.92609563 737.6817301 -257.65561455 735.95860386 C-261.42424443 732.19884984 -265.18493723 728.43140995 -268.93894958 724.65707779 C-274.52107558 719.04482072 -280.11742866 713.44691557 -285.71683331 707.851904 C-295.13472526 698.44058742 -304.54091818 689.01765942 -313.94054604 679.58810425 C-323.25011628 670.24896938 -332.56482013 660.91500458 -341.88646507 651.58792114 C-342.46561433 651.00842819 -343.04476358 650.42893523 -343.64146282 649.83188189 C-346.58258337 646.88906972 -349.52379628 643.94634987 -352.46504476 641.00366557 C-373.30872873 620.14947387 -394.14079144 599.28370859 -414.96606445 578.41113281 C-435.20010846 558.13118201 -455.43938655 537.85647833 -475.68579102 517.58886719 C-476.30964876 516.96435182 -476.9335065 516.33983645 -477.57626902 515.69639637 C-483.84119484 509.42487805 -490.10622742 503.15346639 -496.37133822 496.88213286 C-509.13458601 484.10620332 -521.89712111 471.32956196 -534.65922546 458.55249023 C-535.24603338 457.96499586 -535.8328413 457.37750149 -536.43743128 456.77220426 C-575.63689391 417.52672257 -614.81968671 378.2645981 -654 339 C-650.2065432 334.47132788 -646.29243659 330.14705924 -642.10747242 325.97883797 C-641.54330485 325.41291736 -640.97913728 324.84699676 -640.39787373 324.26392704 C-638.51709422 322.37851578 -636.63280341 320.49665491 -634.74848938 318.61477661 C-633.38150726 317.2459251 -632.01474119 315.87685781 -630.64817208 314.50759399 C-626.89989423 310.75320763 -623.14850621 307.0019426 -619.3965832 303.25119948 C-615.34762643 299.20244696 -611.30153421 295.15083345 -607.25505066 291.09960938 C-599.32949497 283.16575174 -591.40116651 275.23467059 -583.47173772 267.30468406 C-577.0253238 260.85779476 -570.57970074 254.41011583 -564.13463402 247.96187973 C-548.82956604 232.64943881 -533.52388811 217.33760887 -518.21487141 202.02911568 C-517.7255353 201.53979515 -517.23619919 201.05047462 -516.73203472 200.5463262 C-514.2520188 198.06639339 -511.77199492 195.58646854 -509.29196928 193.10654546 C-508.79945052 192.61404665 -508.30693176 192.12154783 -507.79948819 191.61412481 C-506.80349543 190.6181725 -505.807502 189.62222086 -504.81150788 188.6262699 C-489.31925026 173.13462489 -473.83105669 157.63892679 -458.34594727 142.14013672 C-440.93777561 124.71659169 -423.52621072 107.29644737 -406.10989255 89.88104522 C-396.89245873 80.66394323 -387.67656744 71.44531105 -378.46468544 62.22266006 C-370.6212828 54.37014693 -362.7744165 46.5211154 -354.92306528 38.67654933 C-350.91922965 34.67597612 -346.91700773 30.67382361 -342.91914749 26.66727829 C-339.25496545 22.99521819 -335.58614625 19.3278569 -331.91367378 15.66408871 C-330.59025438 14.34220142 -329.26849986 13.01864462 -327.9486442 11.69319905 C-320.61049473 4.32604842 -313.20104308 -2.58627846 -305 -9 C-303.90379931 -9.89181918 -302.8085526 -10.78481413 -301.71484375 -11.6796875 C-270.6900004 -36.20284075 -232.88388475 -51.63144574 -194 -58 C-193.3292041 -58.11714355 -192.6584082 -58.23428711 -191.96728516 -58.35498047 C-123.31932089 -69.9368506 -51.24993565 -45.74610713 0 0 Z " fill="#F05132" transform="translate(2074,161)"/>
</svg>
