<?xml version="1.0" encoding="UTF-8"?>
<svg version="1.1" xmlns="http://www.w3.org/2000/svg" width="1280" height="1279">
<path d="M0 0 C5.62664954 0.02278778 11.25254191 0.0092296 16.87916565 -0.01376724 C42.95196378 -0.10405128 68.43636896 0.80482442 94.25537109 4.52148438 C96.11016934 4.77553274 97.96498448 5.02945786 99.81982422 5.28320312 C103.97983403 5.87237165 108.11595196 6.55130125 112.25537109 7.27148438 C112.9701059 7.39365326 113.6848407 7.51582214 114.42123413 7.64169312 C142.50509289 12.45834062 170.06414515 19.00262262 197.25537109 27.52148438 C197.91154419 27.72559937 198.56771729 27.92971436 199.24377441 28.14001465 C278.26191492 52.74122258 353.22481633 93.05521339 416.18505859 146.91992188 C418.93271154 149.26406139 421.74337338 151.52031754 424.56787109 153.77148438 C434.74561705 162.05673585 444.16203788 171.3189018 453.36474609 180.66210938 C455.69119461 182.9501042 458.13035495 185.06313777 460.64990234 187.13476562 C462.61907798 188.83563509 464.43197406 190.66644487 466.25537109 192.52148438 C491.89775127 156.36059872 515.89476614 118.24358479 532.15966797 76.83105469 C533.25537109 74.52148437 533.25537109 74.52148437 535.25537109 73.52148438 C572.57437483 186.24520839 606.67555629 300.54008346 645.56787109 527.70898438 C645.68118271 528.82844452 645.68118271 528.82844452 645.79678345 529.97052002 C646.34548301 535.48275384 646.81410499 540.9996983 647.25537109 546.52148438 C647.38407593 548.09274078 647.38407593 548.09274078 647.51538086 549.69573975 C649.17555842 570.40781737 649.65669208 591.00375193 649.63037109 611.77148438 C649.6302792 612.55992107 649.6301873 613.34835777 649.63009262 614.16068649 C649.6259417 641.84988098 648.57450499 669.26364147 645.55285645 696.8081665 C645.25784977 699.49887674 644.97222459 702.19045728 644.68798828 704.88232422 C637.8560775 768.78450334 622.63617085 831.38375354 597.25537109 890.52148438 C596.66296631 891.90352051 596.66296631 891.90352051 596.05859375 893.31347656 C593.5568303 899.09711159 590.93358402 904.8177618 588.25537109 910.52148438 C587.81257813 911.47265137 587.36978516 912.42381836 586.91357422 913.40380859 C569.77750993 950.12646488 549.2678949 984.86630267 525.25537109 1017.52148438 C524.79984863 1018.14297363 524.34432617 1018.76446289 523.875 1019.40478516 C510.24046996 1037.9545702 495.59586853 1055.73965054 479.93896484 1072.61914062 C478.20942745 1074.48965923 476.49223084 1076.37170244 474.79052734 1078.26757812 C468.90105468 1084.81042834 462.78280993 1091.09927944 456.56787109 1097.33398438 C455.771875 1098.13457275 454.97587891 1098.93516113 454.15576172 1099.76000977 C449.9301394 1103.9746553 445.62627018 1108.0272946 441.10229492 1111.91967773 C438.31330595 1114.33852197 435.63528609 1116.8714162 432.94287109 1119.39648438 C428.17928061 1123.82291476 423.31468959 1128.0567311 418.23974609 1132.12695312 C416.02509567 1133.90389123 413.83044729 1135.6964424 411.64599609 1137.50976562 C402.52882582 1145.05129833 393.14423748 1152.10709266 383.48583984 1158.93945312 C381.31792118 1160.47711873 379.16057228 1162.02856088 377.00537109 1163.58398438 C303.68876012 1216.27282158 218.3243099 1251.15995556 77.25537109 1276.52148438 C76.51083679 1276.60611938 75.76630249 1276.69075439 74.99920654 1276.7779541 C30.53011665 1281.75196119 -15.29561356 1281.61230916 -59.74462891 1276.52148438 C-60.485578 1276.43898438 -61.2265271 1276.35648438 -61.9899292 1276.27148438 C-130.13442558 1268.67491699 -196.51894655 1250.3164342 -258.74462891 1221.52148438 C-259.75750977 1221.05419922 -260.77039063 1220.58691406 -261.81396484 1220.10546875 C-307.09915052 1199.09086767 -349.85242537 1172.85917574 -388.74462891 1141.52148438 C-390.13875 1140.40193359 -390.13875 1140.40193359 -391.56103516 1139.25976562 C-402.03737623 1130.76584717 -412.28600489 1122.01351078 -422.13085938 1112.79370117 C-424.79764034 1110.29881459 -427.49951272 1107.87391361 -430.27978516 1105.50585938 C-435.94397974 1100.57194131 -441.19969866 1095.21551975 -446.49926758 1089.8972168 C-448.30324976 1088.08787505 -450.11251555 1086.28394118 -451.92236328 1084.48046875 C-457.74506924 1078.66111919 -463.41000732 1072.79690344 -468.74462891 1066.52148438 C-470.36430707 1064.74578217 -471.98874609 1062.9744013 -473.61962891 1061.20898438 C-477.65742213 1056.77651963 -481.51770325 1052.24406261 -485.27978516 1047.57617188 C-487.08548066 1045.33836858 -488.90442203 1043.11666538 -490.74072266 1040.90429688 C-498.24404547 1031.83064395 -505.28015242 1022.5015306 -512.07226562 1012.88525391 C-513.77782006 1010.47457099 -515.49697823 1008.07399959 -517.21728516 1005.67382812 C-572.501908 928.13116207 -608.29510406 837.54824815 -629.74462891 703.52148438 C-629.82718618 702.81017553 -629.90974346 702.09886669 -629.99480247 701.36600304 C-630.67802017 695.1454664 -630.90387064 689.00708644 -630.92163086 682.75219727 C-630.93148766 681.21036774 -630.93148766 681.21036774 -630.94154358 679.63739014 C-630.96114142 676.25630591 -630.97292122 672.87526625 -630.98291016 669.49414062 C-630.98698568 668.32238218 -630.99106121 667.15062374 -630.99526024 665.94335747 C-631.01608339 659.71736711 -631.03039034 653.49139842 -631.03979492 647.26538086 C-631.04857633 642.18908392 -631.06926767 637.11306774 -631.10131836 632.03686523 C-631.27705309 603.57640608 -631.08528786 575.6903852 -626.74462891 547.52148438 C-626.48864502 545.7275556 -626.23427538 543.93339505 -625.98217773 542.13891602 C-625.3952837 538.08536461 -624.71613226 534.05352269 -623.99462891 530.02148438 C-623.87246002 529.32631714 -623.75029114 528.6311499 -623.62442017 527.91491699 C-613.24593186 469.0556662 -594.54236628 412.39839167 -568.74462891 358.52148438 C-568.25881348 357.5045752 -567.77299805 356.48766602 -567.27246094 355.43994141 C-560.3320763 341.00496165 -552.67266885 327.10625229 -544.4453125 313.3671875 C-542.80910208 310.62936541 -541.19053778 307.88189066 -539.57666016 305.13085938 C-533.38156003 294.61537446 -526.83264352 284.45562409 -519.74462891 274.52148438 C-519.22223633 273.78655762 -518.69984375 273.05163086 -518.16162109 272.29443359 C-500.71495975 247.79343294 -481.9974443 224.26106657 -461.41650391 202.31103516 C-459.60038471 200.36708748 -457.79746035 198.41135178 -455.99462891 196.45507812 C-447.55818968 187.34284909 -438.82547097 178.68536417 -429.671875 170.29589844 C-427.77345819 168.54802747 -425.89144018 166.78420363 -424.01416016 165.01367188 C-417.14456622 158.54489703 -410.11829352 152.41649912 -402.74462891 146.52148438 C-401.56481905 145.55186083 -400.38652807 144.58038727 -399.20947266 143.60742188 C-372.5002034 121.57440806 -343.83695721 101.67478472 -313.74462891 84.52148438 C-313.01920898 84.10576172 -312.29378906 83.69003906 -311.54638672 83.26171875 C-306.31721083 80.27693393 -301.04536144 77.37703685 -295.74462891 74.52148438 C-294.87499512 74.05242676 -294.00536133 73.58336914 -293.109375 73.10009766 C-227.68342318 37.98473544 -156.24617372 15.25505907 -82.7935257 4.81307411 C-80.84709073 4.53606628 -78.90121973 4.25510413 -76.9553833 3.97392273 C-51.30601509 0.3830236 -25.87100567 -0.10579843 0 0 Z M527.25537109 142.52148438 C526.89411133 143.20960205 526.53285156 143.89771973 526.16064453 144.60668945 C508.02301328 179.03438845 486.61999591 210.37072496 460.39599609 239.16210938 C459.03757608 240.65934604 457.69211689 242.16852846 456.36474609 243.69335938 C451.04372637 249.76853937 445.39311696 255.49068937 439.69287109 261.20898438 C438.48751709 262.42122681 438.48751709 262.42122681 437.2578125 263.65795898 C432.41743992 268.48592544 427.43771575 273.06552168 422.25537109 277.52148438 C420.64768737 278.97593955 419.04297395 280.43369332 417.44287109 281.89648438 C412.19338255 286.62661713 406.77168503 291.10697388 401.25537109 295.52148438 C400.74554687 295.93092285 400.23572266 296.34036133 399.71044922 296.76220703 C333.46346563 349.85304241 256.3771121 390.81278067 93.25537109 428.52148438 C92.14298065 428.66716858 92.14298065 428.66716858 91.00811768 428.8157959 C58.61381902 432.9999579 25.91891683 434.36016064 -6.67305279 436.18149662 C-100.98224309 441.29255423 -100.98224309 441.29255423 -192.74462891 462.52148438 C-193.71335937 462.83166504 -194.68208984 463.1418457 -195.68017578 463.46142578 C-257.52902341 483.41981672 -321.80310225 520.60343973 -362.49536133 572.68994141 C-364.7502544 575.52856616 -367.08805654 578.27800449 -369.44384766 581.03320312 C-374.68164324 587.2574899 -379.27828453 593.84917792 -383.74462891 600.64648438 C-384.32824188 601.52938141 -384.32824188 601.52938141 -384.92364502 602.43011475 C-391.37340006 612.20114265 -397.45333712 622.07017735 -402.74462891 632.52148438 C-403.21562012 633.44574219 -403.68661133 634.37 -404.171875 635.32226562 C-423.16231595 672.90104001 -435.40202083 713.43864916 -438.74462891 755.52148438 C-438.82922363 756.55909912 -438.82922363 756.55909912 -438.91552734 757.61767578 C-444.09329967 823.84107745 -428.57815403 892.74997578 -385.37353516 944.35351562 C-383.21470599 946.79711014 -381.00065396 949.16754157 -378.74462891 951.52148438 C-377.94025391 952.38902344 -377.13587891 953.2565625 -376.30712891 954.15039062 C-365.23541573 965.73285247 -352.57863127 974.33156781 -338.74462891 982.33398438 C-337.15110596 983.27818237 -337.15110596 983.27818237 -335.52539062 984.24145508 C-334.50461426 984.81468506 -333.48383789 985.38791504 -332.43212891 985.97851562 C-331.52849609 986.49389893 -330.62486328 987.00928223 -329.69384766 987.5402832 C-325.79737043 988.83663602 -322.67147456 988.29884727 -318.74462891 987.52148438 C-317.54432037 987.29612251 -317.54432037 987.29612251 -316.31976318 987.06620789 C-313.52588704 986.52360518 -310.74087338 985.94630964 -307.95556641 985.36132812 C-306.89346954 985.14031937 -305.83137268 984.91931061 -304.73709106 984.69160461 C-301.19688719 983.95230553 -297.65809952 983.20653367 -294.11962891 982.45898438 C-292.88124268 982.19782837 -291.64285645 981.93667236 -290.36694336 981.66760254 C-210.08259885 964.69819152 -130.04619462 945.8081332 98.26220703 865.52539062 C100.43956611 864.42871001 102.63090487 863.36410639 104.82568359 862.30273438 C117.3613016 856.20735305 129.36397767 849.37279749 141.33837891 842.24462891 C144.01334563 840.66445523 146.70307116 839.1156582 149.40380859 837.58007812 C161.51559995 830.64673595 173.14996444 823.07615007 184.75537109 815.33398438 C185.90205261 814.56964081 185.90205261 814.56964081 187.07189941 813.78985596 C196.92894674 807.20833317 206.65616126 800.47339551 216.25537109 793.52148438 C217.11678711 792.90039795 217.97820313 792.27931152 218.86572266 791.6394043 C229.3735214 784.04013107 239.58344947 776.15778142 249.57910156 767.89794922 C251.82300421 766.05537376 254.10058107 764.25686756 256.38037109 762.45898438 C265.54406028 755.14654553 274.36115994 747.39903015 283.04052734 739.52148438 C285.02949611 737.72544909 287.04100304 735.96195134 289.06787109 734.20898438 C300.11494093 724.55079706 310.59305739 714.3445503 320.95068359 703.95654297 C323.14485612 701.75696366 325.34438832 699.5628443 327.54443359 697.36914062 C328.96662965 695.94628438 330.3885158 694.52311828 331.81005859 693.09960938 C332.4549826 692.45670959 333.09990662 691.81380981 333.76437378 691.15142822 C337.57739098 687.31896858 341.20727003 683.37427488 344.73638916 679.27857971 C346.81553382 676.87351135 348.97322649 674.54407525 351.13037109 672.20898438 C355.21974897 667.72485509 359.10156131 663.118812 362.91162109 658.39648438 C365.00553298 655.82795246 367.13707795 653.3011683 369.29199219 650.78417969 C374.69359569 644.46944349 379.8770372 638.01524024 384.8671875 631.36914062 C385.82972147 630.08801908 386.79579127 628.80954941 387.76464844 627.53320312 C421.67266247 582.80657219 450.00819559 533.68072133 469.31665039 480.91796875 C470.18219908 478.70828711 471.15609892 476.6230072 472.25537109 474.52148438 C460.7656482 533.30344257 441.11084139 589.80332041 411.62695312 642.07519531 C410.34504023 644.36155473 409.08966592 646.65988341 407.84521484 648.96679688 C396.29958398 670.28663447 383.20052537 690.70103871 369.25537109 710.52148438 C368.6975293 711.31490234 368.1396875 712.10832031 367.56494141 712.92578125 C349.76902365 738.12522325 330.36075547 762.33099373 309.49755859 785.06054688 C307.48509002 787.26935384 305.51879094 789.50841736 303.56787109 791.77148438 C300.87097316 794.87891712 298.02561773 797.77598763 295.08886719 800.65551758 C293.35844994 802.41658004 291.75618427 804.23070293 290.15771484 806.11132812 C285.76711922 811.15917768 281.05736749 815.86582105 276.31787109 820.58398438 C275.46257813 821.44314453 274.60728516 822.30230469 273.72607422 823.1875 C269.32337591 827.58348176 264.85788355 831.8299192 260.13842773 835.88354492 C256.98483848 838.62663195 253.97588529 841.5216793 250.94287109 844.39648438 C245.71588449 849.31642211 240.39674248 853.9752312 234.78662109 858.45507812 C232.25398956 860.5226122 229.84805949 862.68261778 227.44287109 864.89648438 C221.94350901 869.89511962 216.1222873 874.43716907 210.24609375 878.9765625 C208.14019037 880.61087163 206.04664593 882.26011773 203.95458984 883.91210938 C193.94862188 891.79463839 183.77553577 899.3397997 173.25537109 906.52148438 C172.29018555 907.18132324 171.325 907.84116211 170.33056641 908.52099609 C108.88326144 950.368566 43.13751367 980.79090033 -27.45947266 1003.68554688 C-28.31220827 1003.9626116 -29.16494389 1004.23967632 -30.04351997 1004.52513695 C-46.6869023 1009.9258404 -63.4114306 1015.03645626 -80.16789246 1020.07313061 C-110.483452 1029.18594141 -140.68418831 1038.59835163 -170.74462891 1048.52148438 C-171.87338503 1048.89370306 -171.87338503 1048.89370306 -173.02494431 1049.27344131 C-188.07302312 1054.23661895 -203.09858363 1059.26404237 -218.08056641 1064.42382812 C-219.09675049 1064.77264038 -220.11293457 1065.12145264 -221.15991211 1065.48083496 C-230.82113729 1068.8302588 -240.29944769 1072.6090899 -249.74462891 1076.52148438 C-249.74462891 1076.85148437 -249.74462891 1077.18148437 -249.74462891 1077.52148438 C-241.54569204 1076.97907137 -233.37866897 1076.20332003 -225.20556641 1075.36523438 C-223.62645477 1075.2037793 -223.62645477 1075.2037793 -222.01544189 1075.0390625 C-217.61869864 1074.58849451 -213.22213003 1074.13639294 -208.82617188 1073.67822266 C-205.57805933 1073.34047322 -202.32937183 1073.00874439 -199.08056641 1072.67773438 C-198.12572357 1072.57666382 -197.17088074 1072.47559326 -196.18710327 1072.37145996 C-180.51937609 1070.78773286 -164.82591145 1070.35691669 -149.08837891 1070.31835938 C-147.30469251 1070.3115232 -145.52100619 1070.30466624 -143.73731995 1070.29779053 C-138.91826647 1070.28198839 -134.09924784 1070.27561061 -129.28017044 1070.27310181 C-127.24207134 1070.27201584 -125.2039725 1070.27027748 -123.16587448 1070.26791382 C-90.45205823 1070.23110435 -57.79580678 1070.85684067 -25.10044861 1071.91496658 C14.31162625 1073.18969469 53.69149693 1073.83487378 93.12221146 1073.83334351 C96.94044059 1073.83397366 100.75864857 1073.83844844 104.57687378 1073.84375 C133.52799179 1073.8746783 162.36578502 1073.49260506 191.25537109 1071.52148438 C192.37329041 1071.44596344 193.49120972 1071.3704425 194.64300537 1071.29263306 C200.79270054 1070.86441527 206.93089287 1070.35300445 213.06787109 1069.77148438 C214.4023378 1069.64743225 214.4023378 1069.64743225 215.76376343 1069.52087402 C305.74617159 1061.07171076 397.02865584 1039.30975487 486.04052734 969.55273438 C488.01376354 967.7430645 490.02644922 966.00308547 492.06787109 964.27148438 C500.73034292 956.7182315 508.93573467 948.37973825 516.25537109 939.52148438 C516.6978418 938.99280762 517.1403125 938.46413086 517.59619141 937.91943359 C574.94009425 869.28838245 604.70824154 784.18055939 616.73339844 528.26879883 C612.73482953 483.69254169 605.91858046 439.42065099 597.25537109 395.52148438 C596.99234192 394.18283325 596.99234192 394.18283325 596.72399902 392.81713867 C586.89010397 342.92428646 574.36416588 293.37234707 560.25537109 244.52148438 C560.00416504 243.65052124 559.75295898 242.77955811 559.49414062 241.88220215 C552.36569242 217.20926307 544.80686376 192.67700044 537.00537109 168.20898438 C536.63112 167.02954254 536.2568689 165.85010071 535.87127686 164.63491821 C534.81345447 161.30710384 533.74694046 157.98221763 532.67724609 154.65820312 C532.20162735 153.15862564 532.20162735 153.15862564 531.71640015 151.62875366 C531.42085236 150.71767853 531.12530457 149.80660339 530.82080078 148.86791992 C530.5654657 148.07258347 530.31013062 147.27724701 530.04705811 146.45780945 C529.32350291 144.33167711 529.32350291 144.33167711 527.25537109 142.52148438 Z M-414.74462891 1040.52148438 C-426.08471337 1052.80657588 -430.27929535 1066.47508884 -430.02587891 1082.82617188 C-429.43370873 1097.48238372 -422.08970205 1109.58758266 -411.74462891 1119.52148438 C-398.72119313 1130.23464034 -385.44650732 1133.63024975 -368.74462891 1132.52148438 C-353.71519455 1130.18357236 -341.06281389 1121.81800842 -331.93212891 1109.83398438 C-324.06646685 1097.95181403 -321.03716198 1083.65314056 -323.39306641 1069.67382812 C-326.581958 1054.55072374 -333.86461054 1042.43880239 -346.70166016 1033.45117188 C-369.15759804 1019.67204696 -395.28619461 1022.81000896 -414.74462891 1040.52148438 Z " fill="#6CB33E" transform="translate(630.74462890625,-0.521484375)"/>
</svg>
