<?xml version="1.0" encoding="UTF-8"?>
<svg version="1.1" xmlns="http://www.w3.org/2000/svg" width="3840" height="3326">
<path d="M0 0 C487.74 0 975.48 0 1478 0 C1482.62 8.25 1487.24 16.5 1492 25 C1497.20530347 33.9631419 1497.20530347 33.9631419 1502.4375 42.91015625 C1506.1321331 49.21570419 1509.78852681 55.54294436 1513.4375 61.875 C1514.06003662 62.95515381 1514.68257324 64.03530762 1515.32397461 65.14819336 C1516.58576826 67.33796334 1517.84740534 69.52782355 1519.10888672 71.71777344 C1522.23680148 77.14659942 1525.36858448 82.57319281 1528.5 88 C1529.75001879 90.16665583 1531.00001878 92.3333225 1532.25 94.5 C1532.86875 95.5725 1533.4875 96.645 1534.125 97.75 C1644.75000001 289.50000001 1644.75000001 289.50000001 1646.62524414 292.75048828 C1647.87435518 294.91557071 1649.12354129 297.08060982 1650.37280273 299.24560547 C1653.51202309 304.68615706 1656.64990563 310.12747216 1659.78515625 315.5703125 C1665.80747329 326.02206199 1671.84669337 336.46299548 1677.9375 346.875 C1683.35921178 356.14499777 1688.70204915 365.45831752 1694.01922607 374.78845215 C1699.22045129 383.9128284 1704.48027878 393.00132774 1709.78344727 402.06689453 C1715.93766742 412.59084625 1722.02369996 423.15380137 1728.10888672 433.71777344 C1731.23680148 439.14659942 1734.36858448 444.57319281 1737.5 450 C1738.75001879 452.16665583 1740.00001878 454.3333225 1741.25 456.5 C1741.86875 457.5725 1742.4875 458.645 1743.125 459.75 C1853.75 651.5 1853.75 651.5 1855.62524414 654.75048828 C1856.87435518 656.91557071 1858.12354129 659.08060982 1859.37280273 661.24560547 C1862.51202309 666.68615706 1865.64990563 672.12747216 1868.78515625 677.5703125 C1875.37168309 689.00124982 1881.98726591 700.41399663 1888.64941406 711.80102539 C1893.60656403 720.29031925 1898.48062876 728.82582865 1903.34103394 737.37072754 C1907.96500016 745.49804422 1912.67263372 753.55690449 1917.59375 761.5078125 C1919 764 1919 764 1919 766 C1919.66 766 1920.32 766 1921 766 C1921.24363281 765.15953125 1921.48726562 764.3190625 1921.73828125 763.453125 C1923.14879975 759.59275859 1925.05985465 756.24185902 1927.1875 752.75 C1928.09498405 751.23381085 1929.00114806 749.71683112 1929.90625 748.19921875 C1930.40125 747.37083496 1930.89625 746.54245117 1931.40625 745.68896484 C1934.3790229 740.67332135 1937.27939472 735.61581773 1940.1875 730.5625 C1940.82453857 729.45680664 1941.46157715 728.35111328 1942.11791992 727.21191406 C1943.42700657 724.93975918 1944.73584262 722.66745991 1946.04443359 720.39501953 C1949.19332054 714.9283002 1952.34683264 709.46425113 1955.5 704 C1956.7500235 701.83334689 1958.00002347 699.66668021 1959.25 697.5 C1966.75 684.5 1974.25 671.5 1981.75 658.5 C1982.36883057 657.42733887 1982.98766113 656.35467773 1983.62524414 655.24951172 C1984.87435518 653.08442929 1986.12354129 650.91939018 1987.37280273 648.75439453 C1990.51202309 643.31384294 1993.64990563 637.87252784 1996.78515625 632.4296875 C2002.80747329 621.97793801 2008.84669337 611.53700452 2014.9375 601.125 C2020.01275123 592.44737759 2025.02258767 583.73394432 2030 575 C2035.5400173 565.27884383 2041.13374809 555.59105342 2046.78344727 545.93310547 C2052.93766742 535.40915375 2059.02369996 524.84619863 2065.10888672 514.28222656 C2068.23680148 508.85340058 2071.36858448 503.42680719 2074.5 498 C2075.75001879 495.83334417 2077.00001878 493.6666775 2078.25 491.5 C2134.5 394 2134.5 394 2190.75 296.5 C2191.67824585 294.8910083 2191.67824585 294.8910083 2192.62524414 293.24951172 C2193.87435518 291.08442929 2195.12354129 288.91939018 2196.37280273 286.75439453 C2199.51202309 281.31384294 2202.64990563 275.87252784 2205.78515625 270.4296875 C2211.80747329 259.97793801 2217.84669337 249.53700452 2223.9375 239.125 C2229.01275123 230.44737759 2234.02258767 221.73394432 2239 213 C2244.5400173 203.27884383 2250.13374809 193.59105342 2255.78344727 183.93310547 C2261.93766742 173.40915375 2268.02369996 162.84619863 2274.10888672 152.28222656 C2277.23680148 146.85340058 2280.36858448 141.42680719 2283.5 136 C2284.75001879 133.83334417 2286.00001878 131.6666775 2287.25 129.5 C2299.75 107.83333333 2312.25 86.16666667 2324.75 64.5 C2325.36907227 63.42693604 2325.98814453 62.35387207 2326.62597656 61.24829102 C2327.87270256 59.08731012 2329.11944727 56.92634002 2330.36621094 54.76538086 C2333.54145883 49.26181149 2336.71635495 43.75803968 2339.890625 38.25390625 C2340.86032227 36.57264648 2340.86032227 36.57264648 2341.84960938 34.85742188 C2343.05416214 32.76895269 2344.25860296 30.68041893 2345.46289062 28.59179688 C2346.5956949 26.62783791 2347.75112944 24.67674741 2348.92949853 22.73978417 C2350.53088811 19.99741267 2351.74497874 17.22672944 2352.92101221 14.27858798 C2358.35179223 1.69439606 2358.35179223 1.69439606 2364.37073672 -1.10107954 C2371.59842794 -2.91013696 2379.04425265 -2.50045242 2386.43599987 -2.33790874 C2388.96950067 -2.35196708 2391.50296648 -2.37436602 2394.03632894 -2.4043422 C2399.56028707 -2.45050374 2405.07926283 -2.43759086 2410.60294624 -2.37278046 C2418.8705054 -2.2761562 2427.13541133 -2.28973231 2435.40333139 -2.3246454 C2449.49348817 -2.3809636 2463.58214895 -2.34735831 2477.67211914 -2.26490402 C2491.95009331 -2.1817176 2506.22729417 -2.14002482 2520.50551796 -2.14904594 C2521.85823022 -2.14986367 2521.85823022 -2.14986367 2523.23827001 -2.15069792 C2527.83659574 -2.15366905 2532.43492069 -2.15731607 2537.03324574 -2.16120181 C2570.31666525 -2.1879448 2603.59939639 -2.12275769 2636.8826046 -2.00887108 C2669.8446563 -1.89635282 2702.80641327 -1.82314624 2735.76865578 -1.80266762 C2736.79224583 -1.80201379 2737.81583589 -1.80135997 2738.87044382 -1.80068633 C2748.21933177 -1.79473556 2757.56821995 -1.78926943 2766.91710851 -1.78438481 C2790.15763097 -1.77223612 2813.39814654 -1.75400889 2836.63866138 -1.73165607 C2837.69699523 -1.73064304 2838.75532907 -1.72963001 2839.84573363 -1.72858628 C2891.33045362 -1.67877463 2942.81497902 -1.55892994 2994.29956055 -1.43334961 C3012.16636 -1.38980815 3030.03316011 -1.34657629 3047.89996338 -1.30462646 C3049.00806083 -1.30202443 3050.11615828 -1.2994224 3051.25783444 -1.29674151 C3102.76839031 -1.17620884 3154.27897959 -1.10541937 3205.78963948 -1.04746536 C3209.1336586 -1.04370214 3212.4776777 -1.03991748 3215.82169679 -1.03612845 C3237.98264524 -1.01105265 3260.14359457 -0.98683431 3282.3045446 -0.96319013 C3326.3995134 -0.91613632 3370.49447582 -0.86404434 3414.58943472 -0.80849123 C3416.68936205 -0.80584567 3418.78928939 -0.80320363 3420.88921673 -0.80056513 C3515.42583376 -0.68175322 3609.96230812 -0.50433127 3704.4987793 -0.30151367 C3705.3840013 -0.2996149 3706.2692233 -0.29771613 3707.18127021 -0.29575982 C3751.45418825 -0.20075063 3795.72709842 -0.10239691 3840 0 C3838.61572638 3.53064211 3837.09020174 6.80355979 3835.234375 10.11328125 C3834.68144775 11.10126709 3834.12852051 12.08925293 3833.55883789 13.10717773 C3832.96192139 14.16493408 3832.36500488 15.22269043 3831.75 16.3125 C3831.12665771 17.42117432 3830.50331543 18.52984863 3829.86108398 19.67211914 C3824.52126695 29.13940877 3819.05876975 38.53299965 3813.5625 47.91015625 C3809.8678669 54.21570419 3806.21147319 60.54294436 3802.5625 66.875 C3801.62869507 68.49523071 3801.62869507 68.49523071 3800.67602539 70.14819336 C3799.41423174 72.33796334 3798.15259466 74.52782355 3796.89111328 76.71777344 C3793.76319852 82.14659942 3790.63141552 87.57319281 3787.5 93 C3786.24998121 95.16665583 3784.99998122 97.3333225 3783.75 99.5 C3776.25 112.5 3768.75 125.5 3761.25 138.5 C3760.32175415 140.1089917 3760.32175415 140.1089917 3759.37475586 141.75048828 C3758.12564482 143.91557071 3756.87645871 146.08060982 3755.62719727 148.24560547 C3752.48797691 153.68615706 3749.35009437 159.12747216 3746.21484375 164.5703125 C3740.19252671 175.02206199 3734.15330663 185.46299548 3728.0625 195.875 C3722.98724877 204.55262241 3717.97741233 213.26605568 3713 222 C3707.4599827 231.72115617 3701.86625191 241.40894658 3696.21655273 251.06689453 C3690.06233258 261.59084625 3683.97630004 272.15380137 3677.89111328 282.71777344 C3674.76319852 288.14659942 3671.63141552 293.57319281 3668.5 299 C3667.24998121 301.16665583 3665.99998122 303.3333225 3664.75 305.5 C3627.25 370.5 3589.75 435.5 3552.25 500.5 C3551.32175415 502.1089917 3551.32175415 502.1089917 3550.37475586 503.75048828 C3549.12564482 505.91557071 3547.87645871 508.08060982 3546.62719727 510.24560547 C3543.48797691 515.68615706 3540.35009437 521.12747216 3537.21484375 526.5703125 C3531.19252671 537.02206199 3525.15330663 547.46299548 3519.0625 557.875 C3513.98724877 566.55262241 3508.97741233 575.26605568 3504 584 C3498.4599827 593.72115617 3492.86625191 603.40894658 3487.21655273 613.06689453 C3481.06233258 623.59084625 3474.97630004 634.15380137 3468.89111328 644.71777344 C3465.76319852 650.14659942 3462.63141552 655.57319281 3459.5 661 C3458.24998121 663.16665583 3456.99998122 665.3333225 3455.75 667.5 C3399.5 765 3399.5 765 3343.25 862.5 C3342.32175415 864.1089917 3342.32175415 864.1089917 3341.37475586 865.75048828 C3340.12564482 867.91557071 3338.87645871 870.08060982 3337.62719727 872.24560547 C3334.48797691 877.68615706 3331.35009437 883.12747216 3328.21484375 888.5703125 C3322.19252671 899.02206199 3316.15330663 909.46299548 3310.0625 919.875 C3304.98724877 928.55262241 3299.97741233 937.26605568 3295 946 C3289.4599827 955.72115617 3283.86625191 965.40894658 3278.21655273 975.06689453 C3272.06233258 985.59084625 3265.97630004 996.15380137 3259.89111328 1006.71777344 C3256.76319852 1012.14659942 3253.63141552 1017.57319281 3250.5 1023 C3249.24998121 1025.16665583 3247.99998122 1027.3333225 3246.75 1029.5 C3209.25 1094.5 3171.75 1159.5 3134.25 1224.5 C3133.32175415 1226.1089917 3133.32175415 1226.1089917 3132.37475586 1227.75048828 C3131.12564482 1229.91557071 3129.87645871 1232.08060982 3128.62719727 1234.24560547 C3125.48797691 1239.68615706 3122.35009437 1245.12747216 3119.21484375 1250.5703125 C3113.19252671 1261.02206199 3107.15330663 1271.46299548 3101.0625 1281.875 C3095.98724877 1290.55262241 3090.97741233 1299.26605568 3086 1308 C3080.4599827 1317.72115617 3074.86625191 1327.40894658 3069.21655273 1337.06689453 C3063.06233258 1347.59084625 3056.97630004 1358.15380137 3050.89111328 1368.71777344 C3047.76319852 1374.14659942 3044.63141552 1379.57319281 3041.5 1385 C3040.24998121 1387.16665583 3038.99998122 1389.3333225 3037.75 1391.5 C3000.25 1456.5 2962.75 1521.5 2925.25 1586.5 C2924.32175415 1588.1089917 2924.32175415 1588.1089917 2923.37475586 1589.75048828 C2922.12564482 1591.91557071 2920.87645871 1594.08060982 2919.62719727 1596.24560547 C2916.48797691 1601.68615706 2913.35009437 1607.12747216 2910.21484375 1612.5703125 C2904.19252671 1623.02206199 2898.15330663 1633.46299548 2892.0625 1643.875 C2886.98724877 1652.55262241 2881.97741233 1661.26605568 2877 1670 C2871.4599827 1679.72115617 2865.86625191 1689.40894658 2860.21655273 1699.06689453 C2854.06233258 1709.59084625 2847.97630004 1720.15380137 2841.89111328 1730.71777344 C2838.76319852 1736.14659942 2835.63141552 1741.57319281 2832.5 1747 C2831.24998121 1749.16665583 2829.99998122 1751.3333225 2828.75 1753.5 C2791.25 1818.5 2753.75 1883.5 2716.25 1948.5 C2715.32175415 1950.1089917 2715.32175415 1950.1089917 2714.37475586 1951.75048828 C2713.12564482 1953.91557071 2711.87645871 1956.08060982 2710.62719727 1958.24560547 C2707.48797691 1963.68615706 2704.35009437 1969.12747216 2701.21484375 1974.5703125 C2695.19252671 1985.02206199 2689.15330663 1995.46299548 2683.0625 2005.875 C2677.98724877 2014.55262241 2672.97741233 2023.26605568 2668 2032 C2662.4599827 2041.72115617 2656.86625191 2051.40894658 2651.21655273 2061.06689453 C2645.06233258 2071.59084625 2638.97630004 2082.15380137 2632.89111328 2092.71777344 C2629.76319852 2098.14659942 2626.63141552 2103.57319281 2623.5 2109 C2622.24998121 2111.16665583 2620.99998122 2113.3333225 2619.75 2115.5 C2577.25 2189.16666667 2534.75 2262.83333333 2492.25 2336.5 C2491.63116943 2337.57266113 2491.01233887 2338.64532227 2490.37475586 2339.75048828 C2489.12564482 2341.91557071 2487.87645871 2344.08060982 2486.62719727 2346.24560547 C2483.48797691 2351.68615706 2480.35009437 2357.12747216 2477.21484375 2362.5703125 C2471.19252671 2373.02206199 2465.15330663 2383.46299548 2459.0625 2393.875 C2453.98724877 2402.55262241 2448.97741233 2411.26605568 2444 2420 C2438.4599827 2429.72115617 2432.86625191 2439.40894658 2427.21655273 2449.06689453 C2421.06233258 2459.59084625 2414.97630004 2470.15380137 2408.89111328 2480.71777344 C2405.76319852 2486.14659942 2402.63141552 2491.57319281 2399.5 2497 C2398.24998121 2499.16665583 2396.99998122 2501.3333225 2395.75 2503.5 C2339.5 2601 2339.5 2601 2283.25 2698.5 C2282.63116943 2699.57266113 2282.01233887 2700.64532227 2281.37475586 2701.75048828 C2280.12564482 2703.91557071 2278.87645871 2706.08060982 2277.62719727 2708.24560547 C2274.48797691 2713.68615706 2271.35009437 2719.12747216 2268.21484375 2724.5703125 C2262.19252671 2735.02206199 2256.15330663 2745.46299548 2250.0625 2755.875 C2244.98724877 2764.55262241 2239.97741233 2773.26605568 2235 2782 C2229.4599827 2791.72115617 2223.86625191 2801.40894658 2218.21655273 2811.06689453 C2212.06233258 2821.59084625 2205.97630004 2832.15380137 2199.89111328 2842.71777344 C2196.76319852 2848.14659942 2193.63141552 2853.57319281 2190.5 2859 C2189.24998121 2861.16665583 2187.99998122 2863.3333225 2186.75 2865.5 C2149.25 2930.5 2111.75 2995.5 2074.25 3060.5 C2073.63116943 3061.57266113 2073.01233887 3062.64532227 2072.37475586 3063.75048828 C2071.12564482 3065.91557071 2069.87645871 3068.08060982 2068.62719727 3070.24560547 C2065.48797691 3075.68615706 2062.35009437 3081.12747216 2059.21484375 3086.5703125 C2053.19252671 3097.02206199 2047.15330663 3107.46299548 2041.0625 3117.875 C2035.98724877 3126.55262241 2030.97741233 3135.26605568 2026 3144 C2020.4599827 3153.72115617 2014.86625191 3163.40894658 2009.21655273 3173.06689453 C2003.06233258 3183.59084625 1996.97630004 3194.15380137 1990.89111328 3204.71777344 C1987.76319852 3210.14659942 1984.63141552 3215.57319281 1981.5 3221 C1980.24998121 3223.16665583 1978.99998122 3225.3333225 1977.75 3227.5 C1955.24999994 3266.50000011 1955.24999994 3266.50000011 1953.37329102 3269.75292969 C1952.12895002 3271.90980903 1950.88464636 3274.06670992 1949.64038086 3276.22363281 C1946.76363263 3281.21034826 1943.88655262 3286.19687102 1941.0080719 3291.18258667 C1930.96798192 3308.57060073 1930.96798192 3308.57060073 1921 3326 C1920.34 3326 1919.68 3326 1919 3326 C1840.25 3189.49999999 1840.25 3189.49999999 1838.37475586 3186.24951172 C1837.12564482 3184.08442929 1835.87645871 3181.91939018 1834.62719727 3179.75439453 C1831.48797691 3174.31384294 1828.35009437 3168.87252784 1825.21484375 3163.4296875 C1819.19252671 3152.97793801 1813.15330663 3142.53700452 1807.0625 3132.125 C1801.64078822 3122.85500223 1796.29795085 3113.54168248 1790.98077393 3104.21154785 C1785.77954871 3095.0871716 1780.51972122 3085.99867226 1775.21655273 3076.93310547 C1769.06233258 3066.40915375 1762.97630004 3055.84619863 1756.89111328 3045.28222656 C1753.76319852 3039.85340058 1750.63141552 3034.42680719 1747.5 3029 C1746.24998121 3026.83334417 1744.99998122 3024.6666775 1743.75 3022.5 C1743.13125 3021.4275 1742.5125 3020.355 1741.875 3019.25 C1631.25000001 2827.50000001 1631.25000001 2827.50000001 1629.37475586 2824.24951172 C1628.12564482 2822.08442929 1626.87645871 2819.91939018 1625.62719727 2817.75439453 C1622.48797691 2812.31384294 1619.35009437 2806.87252784 1616.21484375 2801.4296875 C1610.19252671 2790.97793801 1604.15330663 2780.53700452 1598.0625 2770.125 C1592.64078822 2760.85500223 1587.29795085 2751.54168248 1581.98077393 2742.21154785 C1576.77954871 2733.0871716 1571.51972122 2723.99867226 1566.21655273 2714.93310547 C1560.06233258 2704.40915375 1553.97630004 2693.84619863 1547.89111328 2683.28222656 C1544.76319852 2677.85340058 1541.63141552 2672.42680719 1538.5 2667 C1537.24998121 2664.83334417 1535.99998122 2662.6666775 1534.75 2660.5 C1534.13125 2659.4275 1533.5125 2658.355 1532.875 2657.25 C1422.25000001 2465.50000001 1422.25000001 2465.50000001 1420.37475586 2462.24951172 C1419.12564482 2460.08442929 1417.87645871 2457.91939018 1416.62719727 2455.75439453 C1413.48797691 2450.31384294 1410.35009437 2444.87252784 1407.21484375 2439.4296875 C1401.19252671 2428.97793801 1395.15330663 2418.53700452 1389.0625 2408.125 C1383.64078822 2398.85500223 1378.29795085 2389.54168248 1372.98077393 2380.21154785 C1367.77954871 2371.0871716 1362.51972122 2361.99867226 1357.21655273 2352.93310547 C1351.06233258 2342.40915375 1344.97630004 2331.84619863 1338.89111328 2321.28222656 C1335.76319852 2315.85340058 1332.63141552 2310.42680719 1329.5 2305 C1328.24998121 2302.83334417 1326.99998122 2300.6666775 1325.75 2298.5 C1325.13125 2297.4275 1324.5125 2296.355 1323.875 2295.25 C1213.25 2103.50000001 1213.25 2103.50000001 1211.37475586 2100.24951172 C1210.12564482 2098.08442929 1208.87645871 2095.91939018 1207.62719727 2093.75439453 C1204.48797691 2088.31384294 1201.35009437 2082.87252784 1198.21484375 2077.4296875 C1192.19252671 2066.97793801 1186.15330663 2056.53700452 1180.0625 2046.125 C1174.64078822 2036.85500223 1169.29795085 2027.54168248 1163.98077393 2018.21154785 C1158.77954871 2009.0871716 1153.51972122 1999.99867226 1148.21655273 1990.93310547 C1142.06233258 1980.40915375 1135.97630004 1969.84619863 1129.89111328 1959.28222656 C1126.76319852 1953.85340058 1123.63141552 1948.42680719 1120.5 1943 C1119.24998121 1940.83334417 1117.99998122 1938.6666775 1116.75 1936.5 C1116.13125 1935.4275 1115.5125 1934.355 1114.875 1933.25 C989.25000001 1715.50000001 989.25000001 1715.50000001 987.37475586 1712.24951172 C986.12564482 1710.08442929 984.87645871 1707.91939018 983.62719727 1705.75439453 C980.48797691 1700.31384294 977.35009437 1694.87252784 974.21484375 1689.4296875 C968.19252671 1678.97793801 962.15330663 1668.53700452 956.0625 1658.125 C950.64078822 1648.85500223 945.29795085 1639.54168248 939.98077393 1630.21154785 C934.77954871 1621.0871716 929.51972122 1611.99867226 924.21655273 1602.93310547 C918.06233258 1592.40915375 911.97630004 1581.84619863 905.89111328 1571.28222656 C902.76319852 1565.85340058 899.63141552 1560.42680719 896.5 1555 C895.24998121 1552.83334417 893.99998122 1550.6666775 892.75 1548.5 C891.821875 1546.89125 891.821875 1546.89125 890.875 1545.25 C780.25000001 1353.50000001 780.25000001 1353.50000001 778.37475586 1350.24951172 C777.12564482 1348.08442929 775.87645871 1345.91939018 774.62719727 1343.75439453 C771.48797691 1338.31384294 768.35009437 1332.87252784 765.21484375 1327.4296875 C759.19252671 1316.97793801 753.15330663 1306.53700452 747.0625 1296.125 C741.64078822 1286.85500223 736.29795085 1277.54168248 730.98077393 1268.21154785 C725.77954871 1259.0871716 720.51972122 1249.99867226 715.21655273 1240.93310547 C709.06233258 1230.40915375 702.97630004 1219.84619863 696.89111328 1209.28222656 C693.76319852 1203.85340058 690.63141552 1198.42680719 687.5 1193 C686.24998121 1190.83334417 684.99998122 1188.6666775 683.75 1186.5 C682.821875 1184.89125 682.821875 1184.89125 681.875 1183.25 C571.25000001 991.50000001 571.25000001 991.50000001 569.37475586 988.24951172 C568.12564482 986.08442929 566.87645871 983.91939018 565.62719727 981.75439453 C562.48797691 976.31384294 559.35009437 970.87252784 556.21484375 965.4296875 C550.19252671 954.97793801 544.15330663 944.53700452 538.0625 934.125 C532.64078822 924.85500223 527.29795085 915.54168248 521.98077393 906.21154785 C516.77954871 897.0871716 511.51972122 887.99867226 506.21655273 878.93310547 C500.06233258 868.40915375 493.97630004 857.84619863 487.89111328 847.28222656 C484.76319852 841.85340058 481.63141552 836.42680719 478.5 831 C477.24998121 828.83334417 475.99998122 826.6666775 474.75 824.5 C474.13125 823.4275 473.5125 822.355 472.875 821.25 C362.25 629.5 362.25 629.5 360.37475586 626.24951172 C359.12564482 624.08442929 357.87645871 621.91939018 356.62719727 619.75439453 C353.48797691 614.31384294 350.35009437 608.87252784 347.21484375 603.4296875 C341.19252671 592.97793801 335.15330663 582.53700452 329.0625 572.125 C323.64078822 562.85500223 318.29795085 553.54168248 312.98077393 544.21154785 C307.77954871 535.0871716 302.51972122 525.99867226 297.21655273 516.93310547 C291.06233258 506.40915375 284.97630004 495.84619863 278.89111328 485.28222656 C275.76319852 479.85340058 272.63141552 474.42680719 269.5 469 C268.24998121 466.83334417 266.99998122 464.6666775 265.75 462.5 C265.13125 461.4275 264.5125 460.355 263.875 459.25 C153.25 267.5 153.25 267.5 151.37475586 264.24951172 C150.12564482 262.08442929 148.87645871 259.91939018 147.62719727 257.75439453 C144.48797691 252.31384294 141.35009437 246.87252784 138.21484375 241.4296875 C132.19252671 230.97793801 126.15330663 220.53700452 120.0625 210.125 C114.64078822 200.85500223 109.29795085 191.54168248 103.98077393 182.21154785 C98.77954871 173.0871716 93.51972122 163.99867226 88.21655273 154.93310547 C82.06233258 144.40915375 75.97630004 133.84619863 69.89111328 123.28222656 C66.76319852 117.85340058 63.63141552 112.42680719 60.5 107 C59.24998121 104.83334417 57.99998122 102.6666775 56.75 100.5 C56.13125 99.4275 55.5125 98.355 54.875 97.25 C48 85.33333333 41.125 73.41666667 34.25 61.5 C33.63068604 60.4265332 33.01137207 59.35306641 32.37329102 58.24707031 C31.12895002 56.09019097 29.88464636 53.93329008 28.64038086 51.77636719 C24.7668379 45.06175229 20.89178709 38.34800974 17.01586914 31.63476562 C15.12381419 28.35624421 13.23358588 25.07667593 11.34375 21.796875 C9.33035174 18.30290348 7.31103951 14.81259698 5.28125 11.328125 C4.54165293 10.0520913 3.80206816 8.77605046 3.0625 7.5 C2.45535156 6.4584375 1.84820312 5.416875 1.22265625 4.34375 C0 2 0 2 0 0 Z " fill="#40B783" transform="translate(0,0)"/>
<path d="M0 0 C234.3 0 468.6 0 710 0 C714.62 8.25 719.24 16.5 724 25 C729.20530347 33.9631419 729.20530347 33.9631419 734.4375 42.91015625 C738.1321331 49.21570419 741.78852681 55.54294436 745.4375 61.875 C746.06003662 62.95515381 746.68257324 64.03530762 747.32397461 65.14819336 C748.58576826 67.33796334 749.84740534 69.52782355 751.10888672 71.71777344 C754.23680148 77.14659942 757.36858448 82.57319281 760.5 88 C761.75001879 90.16665583 763.00001878 92.3333225 764.25 94.5 C764.86875 95.5725 765.4875 96.645 766.125 97.75 C876.75 289.50000001 876.75 289.50000001 878.62524414 292.75048828 C879.87435518 294.91557071 881.12354129 297.08060982 882.37280273 299.24560547 C885.51202309 304.68615706 888.64990563 310.12747216 891.78515625 315.5703125 C897.80747329 326.02206199 903.84669337 336.46299548 909.9375 346.875 C915.35921178 356.14499777 920.70204915 365.45831752 926.01922607 374.78845215 C931.22045129 383.9128284 936.48027878 393.00132774 941.78344727 402.06689453 C947.93766742 412.59084625 954.02369996 423.15380137 960.10888672 433.71777344 C963.23680148 439.14659942 966.36858448 444.57319281 969.5 450 C970.75001879 452.16665583 972.00001878 454.3333225 973.25 456.5 C974.178125 458.10875 974.178125 458.10875 975.125 459.75 C1085.75 651.5 1085.75 651.5 1087.62524414 654.75048828 C1088.87435518 656.91557071 1090.12354129 659.08060982 1091.37280273 661.24560547 C1094.51202309 666.68615706 1097.64990563 672.12747216 1100.78515625 677.5703125 C1107.37168309 689.00124982 1113.98726591 700.41399663 1120.64941406 711.80102539 C1125.60656403 720.29031925 1130.48062876 728.82582865 1135.34103394 737.37072754 C1139.96500016 745.49804422 1144.67263372 753.55690449 1149.59375 761.5078125 C1151 764 1151 764 1151 766 C1151.66 766 1152.32 766 1153 766 C1153.24363281 765.15953125 1153.48726562 764.3190625 1153.73828125 763.453125 C1155.14879975 759.59275859 1157.05985465 756.24185902 1159.1875 752.75 C1160.09498405 751.23381085 1161.00114806 749.71683112 1161.90625 748.19921875 C1162.40125 747.37083496 1162.89625 746.54245117 1163.40625 745.68896484 C1166.3790229 740.67332135 1169.27939472 735.61581773 1172.1875 730.5625 C1172.82453857 729.45680664 1173.46157715 728.35111328 1174.11791992 727.21191406 C1175.42700657 724.93975918 1176.73584262 722.66745991 1178.04443359 720.39501953 C1181.19332054 714.9283002 1184.34683264 709.46425113 1187.5 704 C1188.7500235 701.83334689 1190.00002347 699.66668021 1191.25 697.5 C1198.75 684.5 1206.25 671.5 1213.75 658.5 C1214.36883057 657.42733887 1214.98766113 656.35467773 1215.62524414 655.24951172 C1216.87435518 653.08442929 1218.12354129 650.91939018 1219.37280273 648.75439453 C1222.51202309 643.31384294 1225.64990563 637.87252784 1228.78515625 632.4296875 C1234.80747329 621.97793801 1240.84669337 611.53700452 1246.9375 601.125 C1252.01275123 592.44737759 1257.02258767 583.73394432 1262 575 C1267.5400173 565.27884383 1273.13374809 555.59105342 1278.78344727 545.93310547 C1284.93766742 535.40915375 1291.02369996 524.84619863 1297.10888672 514.28222656 C1300.23680148 508.85340058 1303.36858448 503.42680719 1306.5 498 C1307.75001879 495.83334417 1309.00001878 493.6666775 1310.25 491.5 C1347.75 426.5 1385.25 361.5 1422.75 296.5 C1423.36883057 295.42733887 1423.98766113 294.35467773 1424.62524414 293.24951172 C1425.87435518 291.08442929 1427.12354129 288.91939018 1428.37280273 286.75439453 C1431.51202309 281.31384294 1434.64990563 275.87252784 1437.78515625 270.4296875 C1443.80747329 259.97793801 1449.84669337 249.53700452 1455.9375 239.125 C1461.01275123 230.44737759 1466.02258767 221.73394432 1471 213 C1476.5400173 203.27884383 1482.13374809 193.59105342 1487.78344727 183.93310547 C1493.93766742 173.40915375 1500.02369996 162.84619863 1506.10888672 152.28222656 C1509.23680148 146.85340058 1512.36858448 141.42680719 1515.5 136 C1516.75001879 133.83334417 1518.00001878 131.6666775 1519.25 129.5 C1531.75 107.83333333 1544.25 86.16666667 1556.75 64.5 C1557.36907227 63.42693604 1557.98814453 62.35387207 1558.62597656 61.24829102 C1559.87270256 59.08731012 1561.11944727 56.92634002 1562.36621094 54.76538086 C1565.54145883 49.26181149 1568.71635495 43.75803968 1571.890625 38.25390625 C1572.86032227 36.57264648 1572.86032227 36.57264648 1573.84960938 34.85742188 C1575.05416214 32.76895269 1576.25860296 30.68041893 1577.46289062 28.59179688 C1578.5969409 26.62567772 1579.75745108 24.67457213 1580.94450301 22.73999149 C1582.54878916 19.99771784 1583.68744051 17.25534384 1584.78597194 14.27672213 C1587.0142392 8.80076015 1589.43815717 3.88919611 1594 0 C1602.14850956 -3.35474766 1611.49540379 -2.52898727 1620.15176519 -2.32305767 C1623.79860531 -2.25747459 1627.44438672 -2.30291101 1631.09145099 -2.33402997 C1637.47815553 -2.37334919 1643.86149083 -2.3423627 1650.24780273 -2.26490402 C1659.74319738 -2.15005635 1669.23647519 -2.14453823 1678.73243778 -2.16120181 C1694.70631381 -2.1861471 1710.67869488 -2.1227558 1726.65213585 -2.00887108 C1742.46579068 -1.89641477 1758.27882275 -1.82331216 1774.09287453 -1.80266762 C1775.0764246 -1.80136156 1776.05997468 -1.80005551 1777.07332931 -1.79870988 C1782.06836209 -1.79228148 1787.06339541 -1.78655521 1792.05842934 -1.78109924 C1827.4308968 -1.74119991 1862.80255109 -1.61321533 1898.17456055 -1.43334961 C1932.53617022 -1.25882352 1966.89755732 -1.12424615 2001.25952148 -1.04370117 C2002.31885439 -1.04120217 2003.3781873 -1.03870318 2004.46962121 -1.03612845 C2015.10795769 -1.0110764 2025.7462959 -0.98683596 2036.3846356 -0.96319013 C2058.05581814 -0.91500314 2079.72698617 -0.86139935 2101.39814758 -0.80451965 C2102.892728 -0.80060689 2102.892728 -0.80060689 2104.41750196 -0.79661508 C2170.94533949 -0.62182644 2237.47272593 -0.32077032 2304 0 C2303.17684799 1.43830673 2303.17684799 1.43830673 2302.33706665 2.90567017 C2301.60962478 4.17750217 2300.88219844 5.44934305 2300.15478516 6.72119141 C2299.61356773 7.6667263 2299.61356773 7.6667263 2299.06141663 8.63136292 C2296.45533078 13.18899233 2293.90077176 17.77240642 2291.375 22.375 C2286.90827604 30.46225091 2282.26667268 38.44130661 2277.59521484 46.41162109 C2273.00973604 54.2441744 2268.49229921 62.11384059 2264 70 C2258.46048161 79.72143706 2252.86624806 89.40895317 2247.21655273 99.06689453 C2241.06233258 109.59084625 2234.97630004 120.15380137 2228.89111328 130.71777344 C2225.76319852 136.14659942 2222.63141552 141.57319281 2219.5 147 C2218.24998121 149.16665583 2216.99998122 151.3333225 2215.75 153.5 C2183.25 209.83333333 2150.75 266.16666667 2118.25 322.5 C2117.32175415 324.1089917 2117.32175415 324.1089917 2116.37475586 325.75048828 C2115.12564482 327.91557071 2113.87645871 330.08060982 2112.62719727 332.24560547 C2109.48797691 337.68615706 2106.35009437 343.12747216 2103.21484375 348.5703125 C2097.19252671 359.02206199 2091.15330663 369.46299548 2085.0625 379.875 C2079.98724877 388.55262241 2074.97741233 397.26605568 2070 406 C2064.4599827 415.72115617 2058.86625191 425.40894658 2053.21655273 435.06689453 C2047.06233258 445.59084625 2040.97630004 456.15380137 2034.89111328 466.71777344 C2031.76319852 472.14659942 2028.63141552 477.57319281 2025.5 483 C2024.24998121 485.16665583 2022.99998122 487.3333225 2021.75 489.5 C1989.25 545.83333333 1956.75 602.16666667 1924.25 658.5 C1923.63116943 659.57266113 1923.01233887 660.64532227 1922.37475586 661.75048828 C1921.12564482 663.91557071 1919.87645871 666.08060982 1918.62719727 668.24560547 C1915.48797691 673.68615706 1912.35009437 679.12747216 1909.21484375 684.5703125 C1903.19252671 695.02206199 1897.15330663 705.46299548 1891.0625 715.875 C1885.98724877 724.55262241 1880.97741233 733.26605568 1876 742 C1870.4599827 751.72115617 1864.86625191 761.40894658 1859.21655273 771.06689453 C1853.06233258 781.59084625 1846.97630004 792.15380137 1840.89111328 802.71777344 C1837.76319852 808.14659942 1834.63141552 813.57319281 1831.5 819 C1830.24998121 821.16665583 1828.99998122 823.3333225 1827.75 825.5 C1790.25 890.5 1752.75 955.5 1715.25 1020.5 C1714.63116943 1021.57266113 1714.01233887 1022.64532227 1713.37475586 1023.75048828 C1712.12564482 1025.91557071 1710.87645871 1028.08060982 1709.62719727 1030.24560547 C1706.48797691 1035.68615706 1703.35009437 1041.12747216 1700.21484375 1046.5703125 C1694.19252671 1057.02206199 1688.15330663 1067.46299548 1682.0625 1077.875 C1676.64041301 1087.14563931 1671.29675988 1096.45936699 1665.97976685 1105.79046631 C1660.80621213 1114.86778636 1655.56857846 1123.90571533 1650.2890625 1132.921875 C1645.80833735 1140.58573974 1641.39505776 1148.28685835 1637 1156 C1631.46014067 1165.72124506 1625.86625068 1175.40894868 1620.21655273 1185.06689453 C1614.06233258 1195.59084625 1607.97630004 1206.15380137 1601.89111328 1216.71777344 C1598.76319852 1222.14659942 1595.63141552 1227.57319281 1592.5 1233 C1591.24998121 1235.16665583 1589.99998122 1237.3333225 1588.75 1239.5 C1540 1324 1540 1324 1491.25 1408.5 C1490.63116943 1409.57266113 1490.01233887 1410.64532227 1489.37475586 1411.75048828 C1488.12564482 1413.91557071 1486.87645871 1416.08060982 1485.62719727 1418.24560547 C1482.48797691 1423.68615706 1479.35009437 1429.12747216 1476.21484375 1434.5703125 C1470.19252671 1445.02206199 1464.15330663 1455.46299548 1458.0625 1465.875 C1452.98724877 1474.55262241 1447.97741233 1483.26605568 1443 1492 C1437.4599827 1501.72115617 1431.86625191 1511.40894658 1426.21655273 1521.06689453 C1420.06233258 1531.59084625 1413.97630004 1542.15380137 1407.89111328 1552.71777344 C1404.76319852 1558.14659942 1401.63141552 1563.57319281 1398.5 1569 C1397.24998121 1571.16665583 1395.99998122 1573.3333225 1394.75 1575.5 C1362.25 1631.83333333 1329.75 1688.16666667 1297.25 1744.5 C1296.63116943 1745.57266113 1296.01233887 1746.64532227 1295.37475586 1747.75048828 C1294.12564482 1749.91557071 1292.87645871 1752.08060982 1291.62719727 1754.24560547 C1288.48797691 1759.68615706 1285.35009437 1765.12747216 1282.21484375 1770.5703125 C1276.19252671 1781.02206199 1270.15330663 1791.46299548 1264.0625 1801.875 C1258.98724877 1810.55262241 1253.97741233 1819.26605568 1249 1828 C1243.4599827 1837.72115617 1237.86625191 1847.40894658 1232.21655273 1857.06689453 C1226.06233258 1867.59084625 1219.97630004 1878.15380137 1213.89111328 1888.71777344 C1210.76319852 1894.14659942 1207.63141552 1899.57319281 1204.5 1905 C1203.24998121 1907.16665583 1201.99998122 1909.3333225 1200.75 1911.5 C1198.25 1915.83333333 1195.75 1920.16666667 1193.25 1924.5 C1192.63116943 1925.57266113 1192.01233887 1926.64532227 1191.37475586 1927.75048828 C1190.12564482 1929.91557071 1188.87645871 1932.08060982 1187.62719727 1934.24560547 C1184.48797691 1939.68615706 1181.35009437 1945.12747216 1178.21484375 1950.5703125 C1169.85741101 1965.07491223 1161.45075616 1979.54958134 1153 1994 C1149.07612434 1992.69204145 1148.7265064 1991.2626032 1146.734375 1987.69140625 C1146.09943115 1986.56524902 1145.4644873 1985.4390918 1144.81030273 1984.27880859 C1144.12350331 1983.04005672 1143.4367366 1981.8012867 1142.75 1980.5625 C1142.03367412 1979.28668728 1141.31629291 1978.01146657 1140.59790039 1976.73681641 C1139.11756612 1974.1093667 1137.64093264 1971.47988874 1136.16650391 1968.84912109 C1132.97305482 1963.16255782 1129.70528068 1957.51907265 1126.4375 1951.875 C1125.19646826 1949.72664702 1123.95558302 1947.5782094 1122.71484375 1945.4296875 C1122.10237793 1944.36975586 1121.48991211 1943.30982422 1120.85888672 1942.21777344 C1117.73675395 1936.81329355 1114.61858796 1931.40652588 1111.5 1926 C1110.25001878 1923.8333225 1109.00001879 1921.66665583 1107.75 1919.5 C1085.25000001 1880.50000002 1085.25000001 1880.50000002 1083.37475586 1877.24951172 C1082.12564482 1875.08442929 1080.87645871 1872.91939018 1079.62719727 1870.75439453 C1076.48797691 1865.31384294 1073.35009437 1859.87252784 1070.21484375 1854.4296875 C1064.19252671 1843.97793801 1058.15330663 1833.53700452 1052.0625 1823.125 C1046.64041301 1813.85436069 1041.29675988 1804.54063301 1035.97976685 1795.20953369 C1031.36515971 1787.11292157 1026.70915114 1779.04211199 1022 1771 C1016.94369077 1762.36502443 1011.95392878 1753.69393681 1007 1745 C1001.46014067 1735.27875494 995.86625068 1725.59105132 990.21655273 1715.93310547 C984.06233258 1705.40915375 977.97630004 1694.84619863 971.89111328 1684.28222656 C968.76319852 1678.85340058 965.63141552 1673.42680719 962.5 1668 C961.24998121 1665.83334417 959.99998122 1663.6666775 958.75 1661.5 C957.821875 1659.89125 957.821875 1659.89125 956.875 1658.25 C861.24999999 1492.49999998 861.24999999 1492.49999998 859.37475586 1489.24951172 C858.12564482 1487.08442929 856.87645871 1484.91939018 855.62719727 1482.75439453 C852.48797691 1477.31384294 849.35009437 1471.87252784 846.21484375 1466.4296875 C840.16944841 1455.93767906 834.10889781 1445.45518324 828 1435 C821.25298806 1423.45270484 814.56660682 1411.87097973 807.89111328 1400.28222656 C804.76319852 1394.85340058 801.63141552 1389.42680719 798.5 1384 C797.24998121 1381.83334417 795.99998122 1379.6666775 794.75 1377.5 C793.821875 1375.89125 793.821875 1375.89125 792.875 1374.25 C682.24999999 1182.49999998 682.24999999 1182.49999998 680.37475586 1179.24951172 C679.12564482 1177.08442929 677.87645871 1174.91939018 676.62719727 1172.75439453 C673.48797691 1167.31384294 670.35009437 1161.87252784 667.21484375 1156.4296875 C661.19252671 1145.97793801 655.15330663 1135.53700452 649.0625 1125.125 C643.64078822 1115.85500223 638.29795085 1106.54168248 632.98077393 1097.21154785 C627.77954871 1088.0871716 622.51972122 1078.99867226 617.21655273 1069.93310547 C611.06233258 1059.40915375 604.97630004 1048.84619863 598.89111328 1038.28222656 C595.76319852 1032.85340058 592.63141552 1027.42680719 589.5 1022 C588.24998121 1019.83334417 586.99998122 1017.6666775 585.75 1015.5 C584.821875 1013.89125 584.821875 1013.89125 583.875 1012.25 C473.25 820.5 473.25 820.5 471.37475586 817.24951172 C470.12564482 815.08442929 468.87645871 812.91939018 467.62719727 810.75439453 C464.48797691 805.31384294 461.35009437 799.87252784 458.21484375 794.4296875 C452.19252671 783.97793801 446.15330663 773.53700452 440.0625 763.125 C434.64078822 753.85500223 429.29795085 744.54168248 423.98077393 735.21154785 C419.34224756 727.07429978 414.66620308 718.96029169 409.9375 710.875 C399.49023823 693.01192901 389.1760581 675.07342208 378.92391968 657.09783936 C373.74014875 648.01204122 368.49805979 638.96178959 363.21630859 629.93261719 C357.06207011 619.40888681 350.97620913 608.8460408 344.89111328 598.28222656 C341.76319852 592.85340058 338.63141552 587.42680719 335.5 582 C334.24998121 579.83334417 332.99998122 577.6666775 331.75 575.5 C331.13125 574.4275 330.5125 573.355 329.875 572.25 C264.25 458.5 264.25 458.5 262.37475586 455.24951172 C261.12564482 453.08442929 259.87645871 450.91939018 258.62719727 448.75439453 C255.48797691 443.31384294 252.35009437 437.87252784 249.21484375 432.4296875 C243.19252671 421.97793801 237.15330663 411.53700452 231.0625 401.125 C225.64078822 391.85500223 220.29795085 382.54168248 214.98077393 373.21154785 C210.34224756 365.07429978 205.66620308 356.96029169 200.9375 348.875 C190.49023823 331.01192901 180.1760581 313.07342208 169.92391968 295.09783936 C164.74014875 286.01204122 159.49805979 276.96178959 154.21630859 267.93261719 C148.06207011 257.40888681 141.97620913 246.8460408 135.89111328 236.28222656 C132.76319852 230.85340058 129.63141552 225.42680719 126.5 220 C125.24998121 217.83334417 123.99998122 215.6666775 122.75 213.5 C122.13125 212.4275 121.5125 211.355 120.875 210.25 C55.25 96.5 55.25 96.5 53.37475586 93.24951172 C52.12564482 91.08442929 50.87645871 88.91939018 49.62719727 86.75439453 C46.48797691 81.31384294 43.35009437 75.87252784 40.21484375 70.4296875 C34.16944734 59.93767721 28.10864592 49.4553317 22 39 C17.20214735 30.78446113 12.41285995 22.56403701 7.64794922 14.3293457 C6.64044104 12.58916988 5.63078385 10.85023885 4.62109375 9.11132812 C4.01652344 8.06525391 3.41195312 7.01917969 2.7890625 5.94140625 C2.24975098 5.01013916 1.71043945 4.07887207 1.15478516 3.11938477 C0 1 0 1 0 0 Z " fill="#34495E" transform="translate(768,0)"/>
</svg>
